<svg xmlns="http://www.w3.org/2000/svg" viewBox="0 0 3000 2000"><defs><style>.cls-1{fill:#f5f7f9;}.cls-2{opacity:0.1;}.cls-3{fill:#231f20;}.cls-4,.cls-5,.cls-6,.cls-7{fill:none;stroke-miterlimit:10;stroke-width:2px;}.cls-4,.cls-5{stroke:#0071e3;}.cls-5,.cls-7{stroke-dasharray:5.31 5.31;}.cls-6,.cls-7{stroke:#999;}.cls-8{fill:#0071e3;}</style></defs><g id="Layer_2" data-name="Layer 2"><g id="Layer_1-2" data-name="Layer 1"><rect class="cls-1" width="3000" height="2000"/><g class="cls-2"><path class="cls-3" d="M750,1121.88V886h88.47q27.19,0,45.68,9.44t28,26.45q9.51,17,9.5,39.56T912,1000.75q-9.62,16.65-28.28,25.69t-45.85,9h-63V1000h57.26q15.9,0,26-4.44a30.9,30.9,0,0,0,15-13q4.89-8.59,4.9-21.15t-5-21.48a31.94,31.94,0,0,0-15.09-13.6q-10.14-4.65-26.15-4.66H792.74v200.22ZM871.88,1015l58.41,106.9H882.6L825.22,1015Z"/><path class="cls-3" d="M1033.86,1125.34q-25.93,0-44.93-11.4A77.13,77.13,0,0,1,959.49,1082q-10.43-20.52-10.42-47.93t10.42-48a76.82,76.82,0,0,1,29.44-32q19-11.41,44.93-11.41T1078.79,954a76.86,76.86,0,0,1,29.43,32q10.42,20.63,10.42,48T1108.22,1082a77.17,77.17,0,0,1-29.43,31.91Q1059.77,1125.34,1033.86,1125.34Zm.23-33.41q14,0,23.5-7.77t14.11-20.91a94.56,94.56,0,0,0,0-58.7q-4.67-13.18-14.11-21t-23.5-7.84q-14.41,0-23.91,7.84t-14.17,21a94.76,94.76,0,0,0,0,58.7q4.66,13.13,14.17,20.91T1034.09,1091.93Z"/><path class="cls-3" d="M1153.9,1121.88v-177h39.86V975h2.07a47.23,47.23,0,0,1,18.32-23.79q12.78-8.58,30.53-8.58,18,0,30.35,8.7A46.25,46.25,0,0,1,1292.49,975h1.84a48.63,48.63,0,0,1,19.87-23.56q14-8.82,33.24-8.81,24.42,0,39.86,15.44t15.44,45v118.77h-41.82V1009.56q0-16.48-8.76-24.13t-21.43-7.67q-15.09,0-23.56,9.39t-8.47,24.37v110.36h-40.89V1007.83q0-13.7-8.24-21.88t-21.48-8.19a30.53,30.53,0,0,0-16.36,4.55A32.76,32.76,0,0,0,1200,995.1a40.3,40.3,0,0,0-4.38,19.18v107.6Z"/><path class="cls-3" d="M1496.05,1125.46a72.88,72.88,0,0,1-30.25-6,48.69,48.69,0,0,1-21.19-17.92q-7.78-11.87-7.78-29.26,0-15,5.53-24.77a42.84,42.84,0,0,1,15.09-15.66,77.44,77.44,0,0,1,21.6-8.94,179.42,179.42,0,0,1,25-4.43q15.54-1.62,25.23-2.93t14.11-4.16q4.42-2.8,4.43-8.81v-.69q0-13-7.71-20.16t-22.24-7.14q-15.33,0-24.25,6.68t-12,15.78l-38.94-5.53a62.55,62.55,0,0,1,15.21-27,67,67,0,0,1,25.92-16.36,100,100,0,0,1,33.87-5.47,110.68,110.68,0,0,1,25.46,3,72.54,72.54,0,0,1,23.16,9.85,50.84,50.84,0,0,1,16.87,18.6q6.39,11.77,6.4,29.39v118.42h-40.1v-24.3H1548a50.3,50.3,0,0,1-27.82,24Q1509.88,1125.46,1496.05,1125.46Zm10.82-30.65q12.57,0,21.78-5a36.6,36.6,0,0,0,14.23-13.31,34.29,34.29,0,0,0,5-18.08v-20.86a19.56,19.56,0,0,1-6.62,3,96.25,96.25,0,0,1-10.43,2.42q-5.76,1-11.41,1.84t-9.79,1.38a72.69,72.69,0,0,0-16.71,4.16,27.88,27.88,0,0,0-11.63,8q-4.26,5.13-4.26,13.19,0,11.52,8.41,17.4T1506.87,1094.81Z"/><path class="cls-3" d="M1673.23,1018.2v103.68h-41.7v-177h39.86V975h2.07A50.47,50.47,0,0,1,1693,951.38q13.41-8.76,33.23-8.75,18.33,0,32,7.83a53.22,53.22,0,0,1,21.2,22.7q7.54,14.85,7.43,36.05v112.67h-41.71V1015.66q0-17.73-9.15-27.76t-25.29-10a38.84,38.84,0,0,0-19.41,4.78A33.34,33.34,0,0,0,1678,996.43Q1673.23,1005.42,1673.23,1018.2Z"/><path class="cls-3" d="M1829.33,1121.88V886H1871v235.93Zm38-55.53-.12-50.34h6.68l63.6-71.08h48.72L1908,1032h-8.64Zm73,55.53-57.6-80.53,28.11-29.37,79.38,109.9Z"/><path class="cls-3" d="M2034.85,919.82a24.11,24.11,0,0,1-17.06-6.69,21.45,21.45,0,0,1,0-32,25.25,25.25,0,0,1,34.16.05,21.28,21.28,0,0,1,7.09,16,21.06,21.06,0,0,1-7.09,16A24.14,24.14,0,0,1,2034.85,919.82Zm-21,202.06v-177h41.7v177Z"/><path class="cls-3" d="M2135,1121.88l-50-177h42.51l31.1,124.42h1.61L2192,944.93H2234l31.8,123.73h1.72l30.65-123.73h42.62l-50.11,177h-43.43l-33.18-119.57h-2.42l-33.18,119.57Z"/></g><path class="cls-3" d="M750,1120.55V884.61h88.48q27.18,0,45.67,9.44t28,26.44q9.5,17,9.5,39.58T912,999.41q-9.62,16.65-28.28,25.69t-45.85,9h-63V998.66h57.26q15.9,0,26-4.44a30.88,30.88,0,0,0,15-13q4.89-8.58,4.9-21.14t-5-21.49A31.87,31.87,0,0,0,858.06,925q-10.14-4.66-26.15-4.67H792.74v200.23Zm121.88-106.91,58.41,106.91H882.6l-57.37-106.91Z"/><path class="cls-3" d="M1020.88,1125.34q-25.92,0-44.93-11.4A77.11,77.11,0,0,1,946.52,1082q-10.42-20.52-10.43-47.93t10.43-48A76.94,76.94,0,0,1,976,954q19-11.4,44.93-11.4t44.93,11.4a76.9,76.9,0,0,1,29.44,32q10.43,20.63,10.42,48T1095.25,1082a77.07,77.07,0,0,1-29.44,31.91Q1046.81,1125.34,1020.88,1125.34Zm.23-33.4q14.05,0,23.5-7.78t14.12-20.91a87,87,0,0,0,4.66-29.26,87.89,87.89,0,0,0-4.66-29.44q-4.67-13.18-14.12-21t-23.5-7.84q-14.4,0-23.9,7.84t-14.17,21a87.89,87.89,0,0,0-4.67,29.44,87,87,0,0,0,4.67,29.26q4.66,13.13,14.17,20.91T1021.11,1091.94Z"/><path class="cls-3" d="M1128,1121.89v-177h39.85V975h2.08a47.23,47.23,0,0,1,18.32-23.79q12.78-8.58,30.52-8.58,18,0,30.36,8.7A46.12,46.12,0,0,1,1266.53,975h1.85a48.63,48.63,0,0,1,19.87-23.56q14-8.81,33.24-8.81,24.42,0,39.86,15.44t15.43,45v118.78H1335V1009.56q0-16.47-8.76-24.13t-21.43-7.66q-15.09,0-23.56,9.39t-8.46,24.36v110.37h-40.9V1007.83q0-13.7-8.24-21.88t-21.48-8.18a30.44,30.44,0,0,0-16.36,4.55A32.53,32.53,0,0,0,1174,995.1a40.31,40.31,0,0,0-4.38,19.19v107.6Z"/><path class="cls-3" d="M1457.12,1125.46a72.84,72.84,0,0,1-30.24-6,48.58,48.58,0,0,1-21.2-17.91q-7.79-11.87-7.78-29.27,0-15,5.54-24.77a42.68,42.68,0,0,1,15.09-15.66,76.88,76.88,0,0,1,21.6-8.93,179,179,0,0,1,24.94-4.44q15.56-1.6,25.23-2.93t14.11-4.15c2.95-1.88,4.44-4.82,4.44-8.81v-.7q0-13-7.72-20.16t-22.24-7.14q-15.32,0-24.25,6.68t-12,15.79l-38.94-5.53a62.74,62.74,0,0,1,15.21-27,67.09,67.09,0,0,1,25.92-16.36,100.35,100.35,0,0,1,33.87-5.47,110.15,110.15,0,0,1,25.46,3,72.22,72.22,0,0,1,23.16,9.85,50.78,50.78,0,0,1,16.88,18.6q6.39,11.74,6.39,29.38v118.43h-40.09v-24.31h-1.38a50.46,50.46,0,0,1-27.82,24Q1470.94,1125.46,1457.12,1125.46Zm10.83-30.64q12.55,0,21.77-5a36.58,36.58,0,0,0,14.23-13.3,34.35,34.35,0,0,0,5-18.09v-20.85a19.68,19.68,0,0,1-6.62,3,98.09,98.09,0,0,1-10.43,2.42q-5.76,1-11.41,1.85c-3.76.53-7,1-9.79,1.38a73,73,0,0,0-16.7,4.15,28.1,28.1,0,0,0-11.64,8q-4.26,5.13-4.26,13.19,0,11.52,8.41,17.4T1468,1094.82Z"/><path class="cls-3" d="M1621.33,1018.2v103.69h-41.71v-177h39.87V975h2.07a50.48,50.48,0,0,1,19.52-23.61q13.43-8.76,33.24-8.76,18.32,0,32,7.83a53.27,53.27,0,0,1,21.2,22.7q7.54,14.87,7.43,36.06v112.67h-41.7V1015.67q0-17.74-9.16-27.76t-25.29-10a38.84,38.84,0,0,0-19.41,4.78,33.4,33.4,0,0,0-13.25,13.77Q1621.33,1005.42,1621.33,1018.2Z"/><path class="cls-3" d="M1764.45,1121.89V886h41.7v235.94Zm38-55.53-.11-50.35H1809l63.6-71.08h48.73l-78.23,87.1h-8.64Zm73,55.53-57.6-80.53L1846,1012l79.38,109.91Z"/><path class="cls-3" d="M1957,919.82a24.12,24.12,0,0,1-17-6.68,21.46,21.46,0,0,1,0-32,25.23,25.23,0,0,1,34.16.06,21.59,21.59,0,0,1,0,32A24.16,24.16,0,0,1,1957,919.82Zm-21,202.07v-177h41.7v177Z"/><path class="cls-3" d="M2044.13,1121.89l-50-177h42.51l31.1,124.42h1.62l31.8-124.42h42l31.8,123.73h1.73l30.64-123.73H2250l-50.12,177h-43.43l-33.17-119.58h-2.43l-33.17,119.58Z"/><line class="cls-4" x1="750" y1="759.45" x2="750" y2="762.09"/><line class="cls-5" x1="750" y1="767.4" x2="750" y2="1115.26"/><line class="cls-4" x1="750" y1="1117.91" x2="750" y2="1120.55"/><line class="cls-4" x1="2250" y1="759.45" x2="2250" y2="762.09"/><line class="cls-5" x1="2250" y1="767.4" x2="2250" y2="1115.26"/><line class="cls-4" x1="2250" y1="1117.91" x2="2250" y2="1120.55"/><line class="cls-6" x1="2340.82" y1="759.45" x2="2340.82" y2="762.09"/><line class="cls-7" x1="2340.82" y1="767.4" x2="2340.82" y2="1115.26"/><line class="cls-6" x1="2340.82" y1="1117.91" x2="2340.82" y2="1120.55"/><path class="cls-8" d="M1147.51,819v3.81h-11.79V819Z"/><path class="cls-8" d="M1151.85,829.1v-3.77L1163,807.78h3.15v5.37h-1.92L1156.71,825v.21h15.51v3.89Zm12.5,4.86v-6l.05-1.68V807.78h4.47V834Z"/><path class="cls-8" d="M1186,834.46a9.11,9.11,0,0,1-5.42-1.6,10.08,10.08,0,0,1-3.46-4.64,22.6,22.6,0,0,1,0-14.62,10,10,0,0,1,3.46-4.59,10,10,0,0,1,10.81,0,9.86,9.86,0,0,1,3.47,4.6,19.52,19.52,0,0,1,1.21,7.29,19.77,19.77,0,0,1-1.21,7.33,10,10,0,0,1-3.46,4.63A9.08,9.08,0,0,1,1186,834.46Zm0-4a4.37,4.37,0,0,0,3.88-2.42q1.42-2.43,1.42-7.14a18.21,18.21,0,0,0-.65-5.24,7.07,7.07,0,0,0-1.84-3.21,4,4,0,0,0-2.81-1.08,4.33,4.33,0,0,0-3.87,2.43q-1.41,2.41-1.43,7.1a18,18,0,0,0,.64,5.26,7,7,0,0,0,1.83,3.22A4.05,4.05,0,0,0,1186,830.46Z"/><path class="cls-8" d="M1219.1,814.33v3.58h-11.29v-3.58Zm-8.5-4.71h4.63v18.44a2.88,2.88,0,0,0,.28,1.42,1.49,1.49,0,0,0,.76.67,3,3,0,0,0,1,.18,4.92,4.92,0,0,0,.8-.06,4.65,4.65,0,0,0,.56-.12l.78,3.62a8.94,8.94,0,0,1-1.06.28,9.16,9.16,0,0,1-1.67.18,7.5,7.5,0,0,1-3.13-.53,4.77,4.77,0,0,1-2.2-1.81,5.3,5.3,0,0,1-.8-3.07Z"/><path class="cls-8" d="M1223,834V814.33h4.49v3.27h.2a5,5,0,0,1,1.85-2.63,5,5,0,0,1,3-.93c.25,0,.54,0,.86,0a6.65,6.65,0,0,1,.8.09v4.26a5.22,5.22,0,0,0-.93-.19,10.4,10.4,0,0,0-1.22-.08,4.73,4.73,0,0,0-2.27.54,4.17,4.17,0,0,0-1.58,1.51,4.23,4.23,0,0,0-.57,2.21V834Z"/><path class="cls-8" d="M1242.53,834.36a8.18,8.18,0,0,1-3.35-.67,5.41,5.41,0,0,1-2.36-2,5.85,5.85,0,0,1-.86-3.25,5.65,5.65,0,0,1,.61-2.75,4.72,4.72,0,0,1,1.68-1.73,8.49,8.49,0,0,1,2.4-1,20.38,20.38,0,0,1,2.76-.49c1.15-.12,2.09-.23,2.8-.32a4.27,4.27,0,0,0,1.57-.46,1.08,1.08,0,0,0,.49-1v-.08a2.91,2.91,0,0,0-.85-2.24,3.57,3.57,0,0,0-2.47-.79,4.41,4.41,0,0,0-2.69.74,3.72,3.72,0,0,0-1.34,1.75l-4.32-.61a6.94,6.94,0,0,1,1.69-3,7.41,7.41,0,0,1,2.87-1.81,11,11,0,0,1,3.76-.61,12.36,12.36,0,0,1,2.83.33,8.06,8.06,0,0,1,2.57,1.1,5.57,5.57,0,0,1,1.87,2.06,6.81,6.81,0,0,1,.71,3.26V834h-4.45v-2.69h-.15a5.58,5.58,0,0,1-1.19,1.52,5.41,5.41,0,0,1-1.9,1.14A7.53,7.53,0,0,1,1242.53,834.36Zm1.2-3.4a5,5,0,0,0,2.42-.56,4.08,4.08,0,0,0,1.58-1.47,3.85,3.85,0,0,0,.55-2V824.6a2.27,2.27,0,0,1-.73.34c-.35.1-.73.19-1.16.27l-1.26.2-1.09.15a8.48,8.48,0,0,0-1.85.46,3.1,3.1,0,0,0-1.29.89,2.48,2.48,0,0,0,.45,3.4A4.12,4.12,0,0,0,1243.73,831Z"/><path class="cls-8" d="M1266.13,834.35a9.36,9.36,0,0,1-5-1.3,8.62,8.62,0,0,1-3.24-3.57,12.77,12.77,0,0,1,0-10.55,8.63,8.63,0,0,1,3.26-3.58,9.4,9.4,0,0,1,5-1.28,9.68,9.68,0,0,1,4.24.88,7.27,7.27,0,0,1,3,2.46,7.34,7.34,0,0,1,1.25,3.72h-4.42a4.24,4.24,0,0,0-1.27-2.37,3.71,3.71,0,0,0-2.68-1,4.22,4.22,0,0,0-2.49.76,4.89,4.89,0,0,0-1.67,2.18,8.72,8.72,0,0,0-.6,3.4,9.15,9.15,0,0,0,.59,3.45,4.93,4.93,0,0,0,1.66,2.21,4.48,4.48,0,0,0,4.34.38,3.64,3.64,0,0,0,1.37-1.13,4.45,4.45,0,0,0,.75-1.8h4.42a7.74,7.74,0,0,1-1.22,3.69,7.19,7.19,0,0,1-2.89,2.5A9.49,9.49,0,0,1,1266.13,834.35Z"/><path class="cls-8" d="M1278.35,834V807.78H1283V834Zm4.22-6.16v-5.59h.74l7.06-7.88h5.4l-8.68,9.66h-1Zm8.11,6.16-6.4-8.93,3.12-3.26,8.81,12.19Z"/><path class="cls-8" d="M1301.16,811.54a2.68,2.68,0,0,1-1.89-.74,2.37,2.37,0,0,1-.8-1.78,2.33,2.33,0,0,1,.8-1.77,2.81,2.81,0,0,1,3.79,0,2.4,2.4,0,0,1,0,3.54A2.7,2.7,0,0,1,1301.16,811.54ZM1298.83,834V814.33h4.63V834Z"/><path class="cls-8" d="M1312.84,822.46V834h-4.62V814.33h4.42v3.33h.23A5.56,5.56,0,0,1,1315,815a6.57,6.57,0,0,1,3.68-1,7,7,0,0,1,3.55.87,5.86,5.86,0,0,1,2.35,2.52,8.6,8.6,0,0,1,.83,4V834h-4.63V822.18a4.41,4.41,0,0,0-1-3.09A3.59,3.59,0,0,0,1317,818a4.37,4.37,0,0,0-2.16.53,3.87,3.87,0,0,0-1.47,1.53A5.15,5.15,0,0,0,1312.84,822.46Z"/><path class="cls-8" d="M1338.71,841.74a12.18,12.18,0,0,1-4.29-.68,7.53,7.53,0,0,1-2.87-1.79,6.1,6.1,0,0,1-1.51-2.5l4.17-1a4.72,4.72,0,0,0,.81,1.14,4.09,4.09,0,0,0,1.45.94,5.94,5.94,0,0,0,2.31.38,5.38,5.38,0,0,0,3.26-1,3.63,3.63,0,0,0,1.29-3.13v-3.72h-.23a6.44,6.44,0,0,1-1,1.47,5.43,5.43,0,0,1-1.8,1.27,6.79,6.79,0,0,1-2.81.51,7.94,7.94,0,0,1-4.1-1.07,7.48,7.48,0,0,1-2.91-3.19,11.75,11.75,0,0,1-1.08-5.34,12.41,12.41,0,0,1,1.08-5.46,7.94,7.94,0,0,1,2.92-3.39,7.59,7.59,0,0,1,4.11-1.16,6.11,6.11,0,0,1,2.84.58,5.43,5.43,0,0,1,1.78,1.4,7.67,7.67,0,0,1,1,1.52h.26v-3.24h4.56v19.95a6.91,6.91,0,0,1-1.2,4.17,7.27,7.27,0,0,1-3.28,2.47A13,13,0,0,1,1338.71,841.74Zm0-11.69a4.29,4.29,0,0,0,2.51-.72,4.39,4.39,0,0,0,1.57-2.05,8.66,8.66,0,0,0,.54-3.23,9.17,9.17,0,0,0-.53-3.24,4.86,4.86,0,0,0-1.56-2.17,4.07,4.07,0,0,0-2.53-.77,4.11,4.11,0,0,0-2.58.8,4.89,4.89,0,0,0-1.56,2.21,9,9,0,0,0-.52,3.17,8.47,8.47,0,0,0,.53,3.16,4.54,4.54,0,0,0,1.57,2.09A4.28,4.28,0,0,0,1338.74,830.05Z"/><path class="cls-8" d="M1362.76,820.87a29,29,0,0,1,1.28-8.81,25.16,25.16,0,0,1,3.79-7.44h4.36a16.26,16.26,0,0,0-1.82,3.1,27.8,27.8,0,0,0-1.46,4,34.14,34.14,0,0,0-1,4.52,30.22,30.22,0,0,0-.36,4.61,32.35,32.35,0,0,0,.61,6.14,34.06,34.06,0,0,0,1.65,5.76,17.53,17.53,0,0,0,2.35,4.34h-4.36a25.16,25.16,0,0,1-3.79-7.44A29,29,0,0,1,1362.76,820.87Z"/><path class="cls-8" d="M1380.73,807.78V834H1376V807.78Z"/><path class="cls-8" d="M1390.3,807.78V834h-4.63V807.78Z"/><path class="cls-8" d="M1399.68,807.78V834h-4.62V807.78Z"/><path class="cls-8" d="M1417,825.7V814.33h4.62V834h-4.48v-3.49h-.21a5.91,5.91,0,0,1-2.18,2.7,6.37,6.37,0,0,1-3.72,1.05,6.58,6.58,0,0,1-3.41-.87,5.87,5.87,0,0,1-2.31-2.51,8.93,8.93,0,0,1-.83-4v-12.5h4.63v11.78a4.18,4.18,0,0,0,1,3,3.51,3.51,0,0,0,2.69,1.1,4.28,4.28,0,0,0,2-.5,4.09,4.09,0,0,0,1.58-1.49A4.64,4.64,0,0,0,1417,825.7Z"/><path class="cls-8" d="M1441.86,819.52l-4.22.46a3.57,3.57,0,0,0-.62-1.21,3.2,3.2,0,0,0-1.18-.9,4.31,4.31,0,0,0-1.82-.35,4.38,4.38,0,0,0-2.42.63,1.87,1.87,0,0,0-1,1.62,1.74,1.74,0,0,0,.64,1.4,5.38,5.38,0,0,0,2.14.88l3.35.71a8.5,8.5,0,0,1,4.15,1.91,4.59,4.59,0,0,1,1.37,3.41,5.35,5.35,0,0,1-1.08,3.27,7,7,0,0,1-3,2.2,11.14,11.14,0,0,1-4.35.8,10,10,0,0,1-5.8-1.52,6,6,0,0,1-2.62-4.22l4.51-.44a3.18,3.18,0,0,0,1.31,2,4.53,4.53,0,0,0,2.59.68,4.65,4.65,0,0,0,2.65-.68,2,2,0,0,0,1-1.68,1.76,1.76,0,0,0-.65-1.39,4.5,4.5,0,0,0-2-.84l-3.35-.71a8,8,0,0,1-4.18-2A4.87,4.87,0,0,1,1426,820a5,5,0,0,1,1-3.15,6.46,6.46,0,0,1,2.8-2.07,10.9,10.9,0,0,1,4.15-.74,9,9,0,0,1,5.44,1.47A6.24,6.24,0,0,1,1441.86,819.52Z"/><path class="cls-8" d="M1455.91,814.33v3.58h-11.29v-3.58Zm-8.5-4.71H1452v18.44a2.87,2.87,0,0,0,.29,1.42,1.49,1.49,0,0,0,.76.67,3,3,0,0,0,1.05.18,4.92,4.92,0,0,0,.8-.06,4.65,4.65,0,0,0,.56-.12l.78,3.62a8.94,8.94,0,0,1-1.06.28,9.16,9.16,0,0,1-1.67.18,7.5,7.5,0,0,1-3.13-.53,4.77,4.77,0,0,1-2.2-1.81,5.3,5.3,0,0,1-.8-3.07Z"/><path class="cls-8" d="M1459.78,834V814.33h4.49v3.27h.2a5,5,0,0,1,1.85-2.63,5,5,0,0,1,3-.93c.25,0,.54,0,.86,0a6.65,6.65,0,0,1,.8.09v4.26a5.22,5.22,0,0,0-.93-.19,10.4,10.4,0,0,0-1.22-.08,4.73,4.73,0,0,0-2.27.54,4.17,4.17,0,0,0-1.58,1.51,4.23,4.23,0,0,0-.57,2.21V834Z"/><path class="cls-8" d="M1479.34,834.36a8.18,8.18,0,0,1-3.35-.67,5.41,5.41,0,0,1-2.36-2,5.85,5.85,0,0,1-.86-3.25,5.65,5.65,0,0,1,.61-2.75,4.72,4.72,0,0,1,1.68-1.73,8.49,8.49,0,0,1,2.4-1,20.38,20.38,0,0,1,2.76-.49c1.15-.12,2.09-.23,2.8-.32a4.27,4.27,0,0,0,1.57-.46,1.08,1.08,0,0,0,.49-1v-.08a2.91,2.91,0,0,0-.85-2.24,3.57,3.57,0,0,0-2.47-.79,4.41,4.41,0,0,0-2.69.74,3.72,3.72,0,0,0-1.34,1.75l-4.32-.61a6.94,6.94,0,0,1,1.69-3,7.41,7.41,0,0,1,2.87-1.81,11,11,0,0,1,3.76-.61,12.36,12.36,0,0,1,2.83.33,8.06,8.06,0,0,1,2.57,1.1,5.57,5.57,0,0,1,1.87,2.06,6.81,6.81,0,0,1,.71,3.26V834h-4.45v-2.69h-.15a5.58,5.58,0,0,1-1.19,1.52,5.41,5.41,0,0,1-1.9,1.14A7.53,7.53,0,0,1,1479.34,834.36Zm1.2-3.4a5,5,0,0,0,2.42-.56,4.08,4.08,0,0,0,1.58-1.47,3.85,3.85,0,0,0,.55-2V824.6a2.27,2.27,0,0,1-.73.34c-.35.1-.73.19-1.16.27l-1.26.2-1.09.15a8.48,8.48,0,0,0-1.85.46,3.1,3.1,0,0,0-1.29.89,2.47,2.47,0,0,0,.46,3.4A4.07,4.07,0,0,0,1480.54,831Z"/><path class="cls-8" d="M1504.18,814.33v3.58h-11.29v-3.58Zm-8.5-4.71h4.63v18.44a2.88,2.88,0,0,0,.28,1.42,1.51,1.51,0,0,0,.77.67,2.87,2.87,0,0,0,1,.18,4.92,4.92,0,0,0,.8-.06,4.25,4.25,0,0,0,.56-.12l.78,3.62a8.94,8.94,0,0,1-1.06.28,9.14,9.14,0,0,1-1.66.18,7.55,7.55,0,0,1-3.14-.53,4.77,4.77,0,0,1-2.2-1.81,5.38,5.38,0,0,1-.8-3.07Z"/><path class="cls-8" d="M1516.42,834.35a9.54,9.54,0,0,1-5-1.27,8.48,8.48,0,0,1-3.27-3.54,12.9,12.9,0,0,1,0-10.65,8.45,8.45,0,0,1,3.27-3.55,10.42,10.42,0,0,1,10,0,8.45,8.45,0,0,1,3.27,3.55,12.9,12.9,0,0,1,0,10.65,8.48,8.48,0,0,1-3.27,3.54A9.55,9.55,0,0,1,1516.42,834.35Zm0-3.71a4,4,0,0,0,2.61-.86,5.14,5.14,0,0,0,1.56-2.32,10.48,10.48,0,0,0,0-6.52,5.17,5.17,0,0,0-1.56-2.33,4,4,0,0,0-2.61-.87,4,4,0,0,0-2.65.87,5.2,5.2,0,0,0-1.58,2.33,10.67,10.67,0,0,0,0,6.52,5.17,5.17,0,0,0,1.58,2.32A4.08,4.08,0,0,0,1516.44,830.64Z"/><path class="cls-8" d="M1529.74,834V814.33h4.48v3.27h.21a5,5,0,0,1,1.84-2.63,5.08,5.08,0,0,1,3-.93c.26,0,.55,0,.86,0a6.42,6.42,0,0,1,.8.09v4.26a5.07,5.07,0,0,0-.92-.19,10.54,10.54,0,0,0-1.22-.08,4.7,4.7,0,0,0-2.27.54,4.1,4.1,0,0,0-1.58,1.51,4.14,4.14,0,0,0-.58,2.21V834Z"/><path class="cls-8" d="M1552.27,823.29a29,29,0,0,1-1.27,8.8,25.23,25.23,0,0,1-3.79,7.43h-4.36a15.37,15.37,0,0,0,1.82-3.09,27.66,27.66,0,0,0,1.46-4,36.36,36.36,0,0,0,1-4.53,30.16,30.16,0,0,0,.35-4.6,32.33,32.33,0,0,0-.6-6.14,34.06,34.06,0,0,0-1.65-5.76,17.58,17.58,0,0,0-2.35-4.35h4.36a25.23,25.23,0,0,1,3.79,7.43A29.05,29.05,0,0,1,1552.27,823.29Z"/><path class="cls-8" d="M1586.74,806.55l-8.44,31.35h-4l8.44-31.35Z"/><path class="cls-8" d="M1619.45,819v3.81h-11.78V819Z"/><path class="cls-8" d="M1634,834.46a9.11,9.11,0,0,1-5.42-1.6,10.15,10.15,0,0,1-3.46-4.64,22.6,22.6,0,0,1,0-14.62,10,10,0,0,1,3.47-4.59,10,10,0,0,1,10.81,0,9.93,9.93,0,0,1,3.47,4.6,19.72,19.72,0,0,1,1.21,7.29,20,20,0,0,1-1.21,7.33,10,10,0,0,1-3.47,4.63A9.08,9.08,0,0,1,1634,834.46Zm0-4a4.36,4.36,0,0,0,3.88-2.42q1.43-2.43,1.42-7.14a17.87,17.87,0,0,0-.65-5.24,7,7,0,0,0-1.84-3.21,4,4,0,0,0-2.81-1.08,4.31,4.31,0,0,0-3.86,2.43q-1.42,2.41-1.43,7.1a18.07,18.07,0,0,0,.63,5.26,7,7,0,0,0,1.83,3.22A4.09,4.09,0,0,0,1634,830.46Z"/><path class="cls-8" d="M1650.16,834.24a2.73,2.73,0,0,1-2-.81,2.63,2.63,0,0,1-.82-2,2.6,2.6,0,0,1,.82-2,2.79,2.79,0,0,1,3.95,0,2.7,2.7,0,0,1,.85,2,2.79,2.79,0,0,1-.4,1.42,2.93,2.93,0,0,1-1,1A2.71,2.71,0,0,1,1650.16,834.24Z"/><path class="cls-8" d="M1666.37,834.46a9.06,9.06,0,0,1-5.41-1.6,10.1,10.1,0,0,1-3.47-4.64,22.6,22.6,0,0,1,0-14.62A10,10,0,0,1,1661,809a10,10,0,0,1,10.81,0,9.93,9.93,0,0,1,3.47,4.6,19.72,19.72,0,0,1,1.21,7.29,20,20,0,0,1-1.21,7.33,10,10,0,0,1-3.47,4.63A9.08,9.08,0,0,1,1666.37,834.46Zm0-4a4.34,4.34,0,0,0,3.88-2.42q1.43-2.43,1.42-7.14a17.87,17.87,0,0,0-.65-5.24,7,7,0,0,0-1.84-3.21,4,4,0,0,0-2.81-1.08,4.32,4.32,0,0,0-3.86,2.43q-1.42,2.41-1.43,7.1a18.07,18.07,0,0,0,.63,5.26,7,7,0,0,0,1.83,3.22A4.09,4.09,0,0,0,1666.37,830.46Z"/><path class="cls-8" d="M1680.23,829.1v-3.77l11.11-17.55h3.14v5.37h-1.92L1685.09,825v.21h15.5v3.89Zm12.49,4.86v-6l0-1.68V807.78h4.47V834Z"/><path class="cls-8" d="M1713.42,834.35a10,10,0,0,1-5.1-1.24,8.24,8.24,0,0,1-3.29-3.5,12.92,12.92,0,0,1,0-10.68,8.72,8.72,0,0,1,3.24-3.58,9.19,9.19,0,0,1,4.89-1.28,10,10,0,0,1,3.43.58,7.92,7.92,0,0,1,2.87,1.8,8.49,8.49,0,0,1,2,3.09,12.35,12.35,0,0,1,.72,4.45v1.42h-16.1v-3.12h11.66a5,5,0,0,0-.58-2.37,4.11,4.11,0,0,0-1.56-1.64,4.47,4.47,0,0,0-2.33-.6,4.53,4.53,0,0,0-2.5.68,4.86,4.86,0,0,0-1.67,1.79,5.22,5.22,0,0,0-.6,2.42v2.72a6.45,6.45,0,0,0,.62,2.94,4.46,4.46,0,0,0,1.75,1.87,5.21,5.21,0,0,0,2.64.64,5.32,5.32,0,0,0,1.83-.29,3.93,3.93,0,0,0,1.42-.85,3.49,3.49,0,0,0,.9-1.39l4.32.49a6.72,6.72,0,0,1-1.55,3,7.54,7.54,0,0,1-2.92,2A11.18,11.18,0,0,1,1713.42,834.35Z"/><path class="cls-8" d="M1726.06,834V814.33h4.42v3.33h.23a5.32,5.32,0,0,1,2-2.64,6,6,0,0,1,3.39-.95,5.68,5.68,0,0,1,3.37,1,5.1,5.1,0,0,1,1.94,2.62h.2a5.39,5.39,0,0,1,2.21-2.61,6.77,6.77,0,0,1,3.69-1,6,6,0,0,1,4.42,1.71,6.8,6.8,0,0,1,1.71,5V834H1749V821.5a3.38,3.38,0,0,0-1-2.68,3.47,3.47,0,0,0-2.38-.85,3.35,3.35,0,0,0-2.61,1,3.89,3.89,0,0,0-.94,2.71V834h-4.54V821.31a3.13,3.13,0,0,0-3.3-3.34,3.42,3.42,0,0,0-1.81.5,3.67,3.67,0,0,0-1.31,1.42,4.52,4.52,0,0,0-.48,2.13V834Z"/><path class="cls-8" d="M1768.46,820.87a29,29,0,0,1,1.28-8.81,25.16,25.16,0,0,1,3.79-7.44h4.35a16.79,16.79,0,0,0-1.81,3.1,27.8,27.8,0,0,0-1.46,4,35.82,35.82,0,0,0-1,4.52,31.52,31.52,0,0,0-.35,4.61,33.84,33.84,0,0,0,2.26,11.9,17.86,17.86,0,0,0,2.34,4.34h-4.35a25.16,25.16,0,0,1-3.79-7.44A29,29,0,0,1,1768.46,820.87Z"/><path class="cls-8" d="M1804.09,816.61h-4.78a6.26,6.26,0,0,0-.75-2.09,6,6,0,0,0-1.37-1.55,5.67,5.67,0,0,0-1.86-1,7.42,7.42,0,0,0-2.25-.33,6.82,6.82,0,0,0-3.78,1.07,7.05,7.05,0,0,0-2.58,3.12,12,12,0,0,0-.93,5,12.26,12.26,0,0,0,.93,5.06,6.94,6.94,0,0,0,2.59,3.09,6.81,6.81,0,0,0,3.76,1,7.52,7.52,0,0,0,2.21-.31,6.07,6.07,0,0,0,1.85-.93,5.69,5.69,0,0,0,2.18-3.55l4.78,0a10.36,10.36,0,0,1-3.48,6.39,10.38,10.38,0,0,1-3.35,1.94,12.18,12.18,0,0,1-4.25.7,11.84,11.84,0,0,1-6.16-1.6,11.1,11.1,0,0,1-4.27-4.61,17.53,17.53,0,0,1,0-14.48,11.24,11.24,0,0,1,4.28-4.61,11.91,11.91,0,0,1,6.14-1.6,13,13,0,0,1,4.06.62,10.38,10.38,0,0,1,3.35,1.79,9.7,9.7,0,0,1,2.42,2.89A10.72,10.72,0,0,1,1804.09,816.61Z"/><path class="cls-8" d="M1822.68,815a3.5,3.5,0,0,0-1.5-2.61,5.87,5.87,0,0,0-3.44-.93,6.71,6.71,0,0,0-2.54.44,3.74,3.74,0,0,0-1.62,1.22,2.92,2.92,0,0,0-.58,1.75,2.62,2.62,0,0,0,.38,1.42,3.24,3.24,0,0,0,1,1,7.38,7.38,0,0,0,1.44.69,15.43,15.43,0,0,0,1.6.48l2.46.61a17.27,17.27,0,0,1,2.85.93,10,10,0,0,1,2.47,1.49,6.32,6.32,0,0,1,2.37,5.12,7,7,0,0,1-1.18,4,7.68,7.68,0,0,1-3.39,2.72,13.29,13.29,0,0,1-5.36,1,13.56,13.56,0,0,1-5.3-1,7.82,7.82,0,0,1-3.5-2.76,8.15,8.15,0,0,1-1.37-4.42h4.67a4,4,0,0,0,.84,2.27,4.47,4.47,0,0,0,1.94,1.36,7.57,7.57,0,0,0,2.68.45,7.34,7.34,0,0,0,2.72-.47,4.34,4.34,0,0,0,1.83-1.3,3.18,3.18,0,0,0,.68-2,2.54,2.54,0,0,0-.6-1.69,4.53,4.53,0,0,0-1.65-1.13,16.89,16.89,0,0,0-2.46-.81l-3-.76a12,12,0,0,1-5.1-2.53,5.78,5.78,0,0,1-1.87-4.51,6.72,6.72,0,0,1,1.25-4,8.25,8.25,0,0,1,3.44-2.7,11.87,11.87,0,0,1,4.92-1,11.5,11.5,0,0,1,4.89,1,8,8,0,0,1,3.3,2.67,6.82,6.82,0,0,1,1.24,3.92Z"/><path class="cls-8" d="M1846.05,815a3.5,3.5,0,0,0-1.5-2.61,5.87,5.87,0,0,0-3.44-.93,6.68,6.68,0,0,0-2.54.44,3.74,3.74,0,0,0-1.62,1.22,2.92,2.92,0,0,0-.58,1.75,2.62,2.62,0,0,0,.38,1.42,3.24,3.24,0,0,0,1,1,7.38,7.38,0,0,0,1.44.69,15.43,15.43,0,0,0,1.6.48l2.45.61a17.38,17.38,0,0,1,2.86.93,10,10,0,0,1,2.47,1.49,6.32,6.32,0,0,1,2.37,5.12,7,7,0,0,1-1.18,4,7.68,7.68,0,0,1-3.39,2.72,13.29,13.29,0,0,1-5.36,1,13.56,13.56,0,0,1-5.3-1,7.77,7.77,0,0,1-3.5-2.76,8.15,8.15,0,0,1-1.37-4.42h4.67a4,4,0,0,0,.84,2.27,4.47,4.47,0,0,0,1.94,1.36,7.57,7.57,0,0,0,2.68.45,7.25,7.25,0,0,0,2.71-.47,4.32,4.32,0,0,0,1.84-1.3,3.18,3.18,0,0,0,.68-2,2.54,2.54,0,0,0-.6-1.69,4.62,4.62,0,0,0-1.65-1.13,16.89,16.89,0,0,0-2.46-.81l-3-.76a12,12,0,0,1-5.1-2.53,5.78,5.78,0,0,1-1.88-4.51,6.72,6.72,0,0,1,1.26-4,8.25,8.25,0,0,1,3.44-2.7,11.84,11.84,0,0,1,4.92-1,11.5,11.5,0,0,1,4.89,1,8,8,0,0,1,3.3,2.67,6.82,6.82,0,0,1,1.24,3.92Z"/><path class="cls-8" d="M1863.24,820.87a29,29,0,0,1-1.27,8.8,25.4,25.4,0,0,1-3.79,7.44h-4.36a15.75,15.75,0,0,0,1.82-3.1,27.23,27.23,0,0,0,1.46-4,36.36,36.36,0,0,0,1-4.53,30.16,30.16,0,0,0,.35-4.6,32.23,32.23,0,0,0-.6-6.13,33.91,33.91,0,0,0-1.65-5.77,18,18,0,0,0-2.35-4.35h4.36a25.4,25.4,0,0,1,3.79,7.44A29,29,0,0,1,1863.24,820.87Z"/></g></g></svg>