<svg xmlns="http://www.w3.org/2000/svg" viewBox="0 0 3000 2000"><defs><style>.cls-1{fill:#f5f7f9;}.cls-2{fill:#fdfeff;stroke:#000;stroke-width:0.98px;}.cls-2,.cls-3,.cls-4{stroke-miterlimit:10;}.cls-3,.cls-4{fill:none;stroke:#0071e3;stroke-width:2px;}.cls-4{stroke-dasharray:5.26 5.26;}.cls-5{fill:#0071e3;}</style></defs><g id="Layer_2" data-name="Layer 2"><g id="Layer_1-2" data-name="Layer 1"><rect class="cls-1" width="3000" height="2000"/><rect class="cls-2" x="540" y="460" width="1920" height="1080"/><line class="cls-3" x1="972" y1="340" x2="972" y2="342.64"/><line class="cls-4" x1="972" y1="347.9" x2="972" y2="1534.73"/><line class="cls-3" x1="972" y1="1537.36" x2="972" y2="1540"/><line class="cls-3" x1="2028" y1="340" x2="2028" y2="342.64"/><line class="cls-4" x1="2028" y1="347.9" x2="2028" y2="1534.73"/><line class="cls-3" x1="2028" y1="1537.36" x2="2028" y2="1540"/><path class="cls-5" d="M1382,412.65a10.36,10.36,0,0,1-4.57-1,8,8,0,0,1-3.21-2.65,7.13,7.13,0,0,1-1.26-3.86h4.61a3.6,3.6,0,0,0,1.39,2.63,4.68,4.68,0,0,0,3,1,4.84,4.84,0,0,0,2.48-.63,4.6,4.6,0,0,0,1.72-1.78,5.28,5.28,0,0,0,.61-2.6,5.17,5.17,0,0,0-.63-2.63,4.68,4.68,0,0,0-1.75-1.81,4.89,4.89,0,0,0-2.55-.66,6.05,6.05,0,0,0-2.32.44,4.77,4.77,0,0,0-1.8,1.17l-4.28-.7,1.36-13.5h15.19v4h-11.26l-.76,6.95h.16a5.32,5.32,0,0,1,2.06-1.43,7.26,7.26,0,0,1,2.91-.57,8,8,0,0,1,7.19,4.19,9.24,9.24,0,0,1,1.07,4.48,8.89,8.89,0,0,1-1.2,4.62,8.44,8.44,0,0,1-3.31,3.18A10,10,0,0,1,1382,412.65Z"/><path class="cls-5" d="M1404.81,412.65a10.43,10.43,0,0,1-4.58-1A8,8,0,0,1,1397,409a7,7,0,0,1-1.26-3.86h4.61a3.56,3.56,0,0,0,1.39,2.63,4.68,4.68,0,0,0,3,1,4.84,4.84,0,0,0,2.48-.63,4.51,4.51,0,0,0,1.71-1.78,5.78,5.78,0,0,0,0-5.23,4.68,4.68,0,0,0-1.75-1.81,4.9,4.9,0,0,0-2.56-.66,6,6,0,0,0-2.31.44,4.77,4.77,0,0,0-1.8,1.17l-4.29-.7,1.37-13.5h15.19v4h-11.26l-.76,6.95h.16a5.35,5.35,0,0,1,2-1.43A7.35,7.35,0,0,1,1406,395a8,8,0,0,1,4.24,1.12,8,8,0,0,1,2.94,3.07,9.14,9.14,0,0,1,1.08,4.48,8.89,8.89,0,0,1-1.2,4.62,8.44,8.44,0,0,1-3.31,3.18A10,10,0,0,1,1404.81,412.65Z"/><path class="cls-5" d="M1419.17,392.4V391a6,6,0,0,1,.65-2.81,5.06,5.06,0,0,1,1.89-2.06,6.31,6.31,0,0,1,6,0,5,5,0,0,1,1.86,2.06,6.27,6.27,0,0,1,.63,2.81v1.38a6.27,6.27,0,0,1-.63,2.81,5.12,5.12,0,0,1-1.88,2,6.4,6.4,0,0,1-6,0,5.05,5.05,0,0,1-1.87-2.05A6.13,6.13,0,0,1,1419.17,392.4Zm1.45,19.89,18-26.18h3.2l-18,26.18Zm1.91-21.27v1.38a3.68,3.68,0,0,0,.48,1.86,1.8,1.8,0,0,0,1.71.84,1.77,1.77,0,0,0,1.69-.84,3.78,3.78,0,0,0,.47-1.86V391a3.92,3.92,0,0,0-.45-1.87,1.75,1.75,0,0,0-1.71-.85,1.78,1.78,0,0,0-1.7.85A3.68,3.68,0,0,0,1422.53,391Zm10,16.36V406a6.13,6.13,0,0,1,.64-2.8,5.13,5.13,0,0,1,1.89-2.06,6.24,6.24,0,0,1,6,0,5,5,0,0,1,1.86,2.05,6.14,6.14,0,0,1,.64,2.81v1.38a6.23,6.23,0,0,1-.64,2.8,5,5,0,0,1-1.88,2.06,5.54,5.54,0,0,1-3,.78,5.6,5.6,0,0,1-3-.78,5,5,0,0,1-1.87-2.06A6.22,6.22,0,0,1,1432.48,407.38Zm3.33-1.38v1.38a3.62,3.62,0,0,0,.49,1.86,1.8,1.8,0,0,0,1.71.84,1.78,1.78,0,0,0,1.71-.84,3.75,3.75,0,0,0,.46-1.86V406a3.94,3.94,0,0,0-.44-1.87,1.77,1.77,0,0,0-1.73-.85,1.8,1.8,0,0,0-1.7.85A3.66,3.66,0,0,0,1435.81,406Z"/><path class="cls-5" d="M1458,412.29V386.11h16.78v4h-12v7.1h10.88v4h-10.88v11.12Z"/><path class="cls-5" d="M1490.21,404V392.66h4.63v19.63h-4.49V408.8h-.21a5.91,5.91,0,0,1-2.18,2.7,6.37,6.37,0,0,1-3.72,1.05,6.58,6.58,0,0,1-3.41-.87,5.93,5.93,0,0,1-2.31-2.51,8.93,8.93,0,0,1-.83-4v-12.5h4.63v11.78a4.18,4.18,0,0,0,1,3,3.51,3.51,0,0,0,2.69,1.1,4.28,4.28,0,0,0,2-.5,4.09,4.09,0,0,0,1.58-1.49A4.64,4.64,0,0,0,1490.21,404Z"/><path class="cls-5" d="M1504.22,386.11v26.18h-4.63V386.11Z"/><path class="cls-5" d="M1513.6,386.11v26.18H1509V386.11Z"/><path class="cls-5" d="M1533,412.29l-7.39-26.18h5.1l4.72,19.24h.24l5-19.24h4.64l5.05,19.25h.23l4.71-19.25h5.11l-7.39,26.18h-4.68l-5.24-18.37h-.21l-5.25,18.37Z"/><path class="cls-5" d="M1565.86,389.87a2.69,2.69,0,0,1-1.89-.74,2.36,2.36,0,0,1-.79-1.78,2.32,2.32,0,0,1,.79-1.77,2.69,2.69,0,0,1,1.89-.74,2.63,2.63,0,0,1,1.9.75,2.38,2.38,0,0,1,0,3.54A2.67,2.67,0,0,1,1565.86,389.87Zm-2.32,22.42V392.66h4.63v19.63Z"/><path class="cls-5" d="M1580.21,412.64a7.46,7.46,0,0,1-4.15-1.19,8.1,8.1,0,0,1-2.88-3.45,14.68,14.68,0,0,1,0-11,8,8,0,0,1,2.93-3.41,7.53,7.53,0,0,1,4.1-1.16,6.08,6.08,0,0,1,2.84.58,5.35,5.35,0,0,1,1.76,1.4,8.67,8.67,0,0,1,1,1.52h.19v-9.79h4.64v26.18h-4.55V409.2h-.28a7.66,7.66,0,0,1-1,1.51,5.58,5.58,0,0,1-1.79,1.36A6.15,6.15,0,0,1,1580.21,412.64Zm1.29-3.8a4,4,0,0,0,2.5-.8,4.9,4.9,0,0,0,1.58-2.23,9.67,9.67,0,0,0,.53-3.34,9.23,9.23,0,0,0-.53-3.31A4.74,4.74,0,0,0,1584,397a4,4,0,0,0-2.52-.78,4.11,4.11,0,0,0-2.58.8,4.9,4.9,0,0,0-1.56,2.23,9.25,9.25,0,0,0-.53,3.24,9.52,9.52,0,0,0,.53,3.28,5.12,5.12,0,0,0,1.57,2.27A4,4,0,0,0,1581.5,408.84Z"/><path class="cls-5" d="M1605.42,392.66v3.58h-11.29v-3.58Zm-8.5-4.71h4.62v18.44a2.87,2.87,0,0,0,.29,1.42,1.49,1.49,0,0,0,.76.67,3,3,0,0,0,1.05.18,4.92,4.92,0,0,0,.8-.06c.24-.05.43-.08.56-.12l.78,3.62a8.94,8.94,0,0,1-1.06.28,9.27,9.27,0,0,1-1.67.18,7.5,7.5,0,0,1-3.13-.53,4.85,4.85,0,0,1-2.21-1.81,5.38,5.38,0,0,1-.79-3.07Z"/><path class="cls-5" d="M1614.33,400.79v11.5h-4.63V386.11h4.52V396h.24a5.64,5.64,0,0,1,2.14-2.62,6.48,6.48,0,0,1,3.7-1,7.13,7.13,0,0,1,3.56.86,5.77,5.77,0,0,1,2.36,2.5,8.8,8.8,0,0,1,.84,4v12.5h-4.63V400.5a4.4,4.4,0,0,0-1-3.08,3.68,3.68,0,0,0-2.85-1.11,4.49,4.49,0,0,0-2.19.53,3.83,3.83,0,0,0-1.51,1.53A5,5,0,0,0,1614.33,400.79Z"/><path class="cls-5" d="M705.53,412.29v-3.42l9.09-8.91c.87-.88,1.6-1.66,2.17-2.34a8.82,8.82,0,0,0,1.31-2,4.85,4.85,0,0,0,.43-2,3.85,3.85,0,0,0-.56-2.13,3.69,3.69,0,0,0-1.55-1.37,4.88,4.88,0,0,0-2.23-.49,4.73,4.73,0,0,0-2.27.53,3.8,3.8,0,0,0-1.5,1.5,4.82,4.82,0,0,0-.53,2.32h-4.51a8.07,8.07,0,0,1,1.14-4.34,7.67,7.67,0,0,1,3.14-2.85,10.07,10.07,0,0,1,4.59-1,10.28,10.28,0,0,1,4.63,1,7.56,7.56,0,0,1,3.1,2.69,7.06,7.06,0,0,1,1.1,3.92,7.7,7.7,0,0,1-.56,2.89,12.29,12.29,0,0,1-2,3.14,50.83,50.83,0,0,1-4,4.18l-4.51,4.59v.18h11.4v4Z"/><path class="cls-5" d="M727.9,412.29v-3.42L737,400c.87-.88,1.6-1.66,2.18-2.34a8.75,8.75,0,0,0,1.3-2,4.86,4.86,0,0,0,.44-2,3.85,3.85,0,0,0-.57-2.13,3.72,3.72,0,0,0-1.54-1.37,5,5,0,0,0-2.24-.49,4.66,4.66,0,0,0-2.26.53,3.76,3.76,0,0,0-1.51,1.5,4.82,4.82,0,0,0-.53,2.32h-4.51a8.07,8.07,0,0,1,1.14-4.34,7.74,7.74,0,0,1,3.14-2.85,10.07,10.07,0,0,1,4.59-1,10.28,10.28,0,0,1,4.63,1,7.56,7.56,0,0,1,3.1,2.69,7.07,7.07,0,0,1,1.11,3.92,7.71,7.71,0,0,1-.57,2.89,12.29,12.29,0,0,1-2,3.14,50.83,50.83,0,0,1-4,4.18l-4.51,4.59v.18h11.4v4Z"/><path class="cls-5" d="M753.18,412.57a2.74,2.74,0,0,1-2-.82,2.82,2.82,0,0,1,0-4,2.78,2.78,0,0,1,2-.82,2.74,2.74,0,0,1,2,.82,2.7,2.7,0,0,1,.85,2,2.79,2.79,0,0,1-.4,1.42,3,3,0,0,1-1,1A2.71,2.71,0,0,1,753.18,412.57Z"/><path class="cls-5" d="M769.53,412.65a10.43,10.43,0,0,1-4.58-1,8,8,0,0,1-3.2-2.65,7,7,0,0,1-1.26-3.86h4.6a3.61,3.61,0,0,0,1.4,2.63,4.67,4.67,0,0,0,3,1,4.84,4.84,0,0,0,2.48-.63,4.65,4.65,0,0,0,1.71-1.78,5.78,5.78,0,0,0,0-5.23,4.76,4.76,0,0,0-1.75-1.81,4.93,4.93,0,0,0-2.56-.66,6,6,0,0,0-2.31.44,4.77,4.77,0,0,0-1.8,1.17l-4.29-.7,1.37-13.5h15.19v4H766.29l-.75,6.95h.15a5.47,5.47,0,0,1,2.06-1.43,7.35,7.35,0,0,1,2.92-.57,8,8,0,0,1,4.24,1.12,8,8,0,0,1,2.94,3.07,9.14,9.14,0,0,1,1.08,4.48,8.89,8.89,0,0,1-1.2,4.62,8.51,8.51,0,0,1-3.31,3.18A10,10,0,0,1,769.53,412.65Z"/><path class="cls-5" d="M783.88,392.4V391a6,6,0,0,1,.66-2.81,5.06,5.06,0,0,1,1.89-2.06,6.31,6.31,0,0,1,6,0,5,5,0,0,1,1.86,2.06A6.27,6.27,0,0,1,795,391v1.38a6.14,6.14,0,0,1-.64,2.81,5,5,0,0,1-1.87,2,6.4,6.4,0,0,1-6.05,0,5.15,5.15,0,0,1-1.88-2.05A6.26,6.26,0,0,1,783.88,392.4Zm1.46,19.89,18-26.18h3.2l-18,26.18ZM787.25,391v1.38a3.68,3.68,0,0,0,.48,1.86,1.79,1.79,0,0,0,1.7.84,1.77,1.77,0,0,0,1.7-.84,3.77,3.77,0,0,0,.46-1.86V391a4,4,0,0,0-.44-1.87,1.76,1.76,0,0,0-1.72-.85,1.79,1.79,0,0,0-1.7.85A3.77,3.77,0,0,0,787.25,391Zm9.94,16.36V406a6.14,6.14,0,0,1,.65-2.8,5.17,5.17,0,0,1,1.88-2.06,6.26,6.26,0,0,1,6,0,5,5,0,0,1,1.86,2.05,6.27,6.27,0,0,1,.63,2.81v1.38a6.1,6.1,0,0,1-.64,2.8,5,5,0,0,1-1.87,2.06,5.54,5.54,0,0,1-3,.78,5.6,5.6,0,0,1-3-.78,5,5,0,0,1-1.87-2.06A6.1,6.1,0,0,1,797.19,407.38Zm3.34-1.38v1.38a3.62,3.62,0,0,0,.49,1.86,2.16,2.16,0,0,0,3.42,0,3.75,3.75,0,0,0,.46-1.86V406a4.06,4.06,0,0,0-.44-1.87,1.77,1.77,0,0,0-1.73-.85,1.8,1.8,0,0,0-1.7.85A3.66,3.66,0,0,0,800.53,406Z"/><path class="cls-5" d="M2210.78,412.29v-3.42l9.09-8.91c.87-.88,1.59-1.66,2.17-2.34a8.82,8.82,0,0,0,1.31-2,4.85,4.85,0,0,0,.43-2,3.85,3.85,0,0,0-.56-2.13,3.69,3.69,0,0,0-1.55-1.37,4.88,4.88,0,0,0-2.23-.49,4.73,4.73,0,0,0-2.27.53,3.8,3.8,0,0,0-1.5,1.5,4.82,4.82,0,0,0-.53,2.32h-4.51a8.07,8.07,0,0,1,1.14-4.34,7.67,7.67,0,0,1,3.14-2.85,10.07,10.07,0,0,1,4.59-1,10.28,10.28,0,0,1,4.63,1,7.56,7.56,0,0,1,3.1,2.69,7.06,7.06,0,0,1,1.1,3.92,7.7,7.7,0,0,1-.56,2.89,12.29,12.29,0,0,1-2,3.14,50.83,50.83,0,0,1-4,4.18l-4.51,4.59v.18h11.4v4Z"/><path class="cls-5" d="M2233.15,412.29v-3.42l9.09-8.91c.87-.88,1.6-1.66,2.18-2.34a8.75,8.75,0,0,0,1.3-2,4.86,4.86,0,0,0,.44-2,3.85,3.85,0,0,0-.57-2.13,3.72,3.72,0,0,0-1.54-1.37,5,5,0,0,0-2.24-.49,4.66,4.66,0,0,0-2.26.53,3.76,3.76,0,0,0-1.51,1.5,4.82,4.82,0,0,0-.53,2.32H2233a8.07,8.07,0,0,1,1.14-4.34,7.74,7.74,0,0,1,3.14-2.85,10.07,10.07,0,0,1,4.59-1,10.28,10.28,0,0,1,4.63,1,7.56,7.56,0,0,1,3.1,2.69,7.07,7.07,0,0,1,1.11,3.92,7.71,7.71,0,0,1-.57,2.89,12.29,12.29,0,0,1-2,3.14,50.83,50.83,0,0,1-4,4.18l-4.51,4.59v.18h11.4v4Z"/><path class="cls-5" d="M2258.43,412.57a2.74,2.74,0,0,1-2-.82,2.82,2.82,0,0,1,0-4,2.78,2.78,0,0,1,2-.82,2.74,2.74,0,0,1,2,.82,2.7,2.7,0,0,1,.85,2,2.79,2.79,0,0,1-.4,1.42,3,3,0,0,1-1,1A2.71,2.71,0,0,1,2258.43,412.57Z"/><path class="cls-5" d="M2274.78,412.65a10.43,10.43,0,0,1-4.58-1A8,8,0,0,1,2267,409a7,7,0,0,1-1.26-3.86h4.6a3.61,3.61,0,0,0,1.4,2.63,4.67,4.67,0,0,0,3,1,4.84,4.84,0,0,0,2.48-.63,4.65,4.65,0,0,0,1.71-1.78,5.78,5.78,0,0,0,0-5.23,4.76,4.76,0,0,0-1.75-1.81,4.93,4.93,0,0,0-2.56-.66,6,6,0,0,0-2.31.44,4.77,4.77,0,0,0-1.8,1.17l-4.29-.7,1.37-13.5h15.19v4h-11.27l-.75,6.95h.15a5.47,5.47,0,0,1,2.06-1.43,7.35,7.35,0,0,1,2.92-.57,8,8,0,0,1,4.24,1.12,8,8,0,0,1,2.94,3.07,9.14,9.14,0,0,1,1.08,4.48,8.89,8.89,0,0,1-1.2,4.62,8.51,8.51,0,0,1-3.31,3.18A10,10,0,0,1,2274.78,412.65Z"/><path class="cls-5" d="M2289.13,392.4V391a6,6,0,0,1,.66-2.81,5.06,5.06,0,0,1,1.89-2.06,6.31,6.31,0,0,1,6,0,5,5,0,0,1,1.86,2.06,6.27,6.27,0,0,1,.63,2.81v1.38a6.14,6.14,0,0,1-.64,2.81,5,5,0,0,1-1.87,2,6.4,6.4,0,0,1-6,0,5.15,5.15,0,0,1-1.88-2.05A6.26,6.26,0,0,1,2289.13,392.4Zm1.46,19.89,18-26.18h3.2l-18,26.18ZM2292.5,391v1.38a3.68,3.68,0,0,0,.48,1.86,1.79,1.79,0,0,0,1.7.84,1.77,1.77,0,0,0,1.7-.84,3.77,3.77,0,0,0,.46-1.86V391a4,4,0,0,0-.44-1.87,1.76,1.76,0,0,0-1.72-.85,1.79,1.79,0,0,0-1.7.85A3.77,3.77,0,0,0,2292.5,391Zm9.94,16.36V406a6.14,6.14,0,0,1,.65-2.8,5.17,5.17,0,0,1,1.88-2.06,6.26,6.26,0,0,1,6.05,0,5,5,0,0,1,1.86,2.05,6.27,6.27,0,0,1,.63,2.81v1.38a6.22,6.22,0,0,1-.63,2.8,5,5,0,0,1-1.88,2.06,5.54,5.54,0,0,1-3,.78,5.6,5.6,0,0,1-3-.78,5,5,0,0,1-1.87-2.06A6.1,6.1,0,0,1,2302.44,407.38Zm3.34-1.38v1.38a3.62,3.62,0,0,0,.49,1.86,2.16,2.16,0,0,0,3.42,0,3.75,3.75,0,0,0,.46-1.86V406a4.06,4.06,0,0,0-.44-1.87,1.77,1.77,0,0,0-1.73-.85,1.8,1.8,0,0,0-1.7.85A3.66,3.66,0,0,0,2305.78,406Z"/><path d="M972,1044.5V949.26h35.71q11,0,18.44,3.81a26.19,26.19,0,0,1,11.3,10.67,32.17,32.17,0,0,1,3.84,16,31.2,31.2,0,0,1-3.88,15.88A25.81,25.81,0,0,1,1026,1006q-7.53,3.64-18.51,3.65H982V995.29h23.12a26.3,26.3,0,0,0,10.51-1.79,12.5,12.5,0,0,0,6.07-5.25,17.06,17.06,0,0,0,2-8.53,17.59,17.59,0,0,0-2-8.68,12.82,12.82,0,0,0-6.09-5.48,25.33,25.33,0,0,0-10.56-1.89H989.25v80.83Zm49.2-43.16,23.58,43.16h-19.25l-23.16-43.16Z"/><path d="M1081.35,1045.89a34.59,34.59,0,0,1-18.14-4.6,31.09,31.09,0,0,1-11.88-12.88,46.67,46.67,0,0,1,0-38.74,31,31,0,0,1,11.88-12.93,38,38,0,0,1,36.27,0,31,31,0,0,1,11.88,12.93,46.67,46.67,0,0,1,0,38.74,31.09,31.09,0,0,1-11.88,12.88A34.55,34.55,0,0,1,1081.35,1045.89Zm.09-13.49a14.47,14.47,0,0,0,9.49-3.13,18.81,18.81,0,0,0,5.69-8.44,38.09,38.09,0,0,0,0-23.7,18.92,18.92,0,0,0-5.69-8.49,14.43,14.43,0,0,0-9.49-3.16,14.71,14.71,0,0,0-9.65,3.16,18.89,18.89,0,0,0-5.72,8.49,38.29,38.29,0,0,0,0,23.7,18.78,18.78,0,0,0,5.72,8.44A14.74,14.74,0,0,0,1081.44,1032.4Z"/><path d="M1124.56,1044.5V973.07h16.09V985.2h.84a19.09,19.09,0,0,1,7.39-9.6,21.62,21.62,0,0,1,12.33-3.46,20.79,20.79,0,0,1,12.25,3.51,18.68,18.68,0,0,1,7,9.55h.74a19.67,19.67,0,0,1,8-9.51,24.68,24.68,0,0,1,13.42-3.55q9.86,0,16.09,6.23t6.23,18.18v48h-16.88V999.15q0-6.64-3.53-9.74a12.69,12.69,0,0,0-8.65-3.09q-6.09,0-9.51,3.79a14.13,14.13,0,0,0-3.42,9.83v44.56h-16.51v-46a11.89,11.89,0,0,0-3.33-8.84,11.75,11.75,0,0,0-8.67-3.3,12.25,12.25,0,0,0-6.6,1.84,13.11,13.11,0,0,0-4.75,5.16,16.37,16.37,0,0,0-1.76,7.74v43.44Z"/><path d="M1257.44,1045.94a29.51,29.51,0,0,1-12.21-2.44,19.6,19.6,0,0,1-8.55-7.24,21,21,0,0,1-3.14-11.81,20.14,20.14,0,0,1,2.23-10,17.33,17.33,0,0,1,6.09-6.32,31.12,31.12,0,0,1,8.72-3.6,70.79,70.79,0,0,1,10.07-1.79c4.18-.44,7.58-.83,10.18-1.19a14.8,14.8,0,0,0,5.7-1.67,3.93,3.93,0,0,0,1.79-3.56V996c0-3.5-1-6.22-3.11-8.14s-5.07-2.88-9-2.88q-6.18,0-9.79,2.69a13.4,13.4,0,0,0-4.86,6.38l-15.72-2.24A25.28,25.28,0,0,1,1242,981a27.15,27.15,0,0,1,10.46-6.61,40.55,40.55,0,0,1,13.68-2.2,44.8,44.8,0,0,1,10.27,1.2,29.42,29.42,0,0,1,9.35,4,20.53,20.53,0,0,1,6.81,7.51,24.49,24.49,0,0,1,2.59,11.86v47.81H1279v-9.82h-.56a20.17,20.17,0,0,1-4.3,5.56,20.54,20.54,0,0,1-6.93,4.14A27.68,27.68,0,0,1,1257.44,1045.94Zm4.37-12.37a18.12,18.12,0,0,0,8.79-2,14.6,14.6,0,0,0,5.74-5.37,13.83,13.83,0,0,0,2-7.3v-8.42a7.78,7.78,0,0,1-2.68,1.21,37.6,37.6,0,0,1-4.21,1c-1.55.28-3.08.53-4.6.74l-4,.56a29,29,0,0,0-6.74,1.68,11.18,11.18,0,0,0-4.7,3.23,9,9,0,0,0,1.67,12.35A14.79,14.79,0,0,0,1261.81,1033.57Z"/><path d="M1323.73,1002.64v41.86h-16.84V973.07H1323V985.2h.84a20.37,20.37,0,0,1,7.88-9.53q5.41-3.54,13.42-3.53a25.43,25.43,0,0,1,12.9,3.16,21.45,21.45,0,0,1,8.56,9.16,31.5,31.5,0,0,1,3,14.56v45.48h-16.84v-42.88q0-7.15-3.69-11.21t-10.21-4a15.63,15.63,0,0,0-7.84,1.93,13.45,13.45,0,0,0-5.35,5.55A18.59,18.59,0,0,0,1323.73,1002.64Z"/><path d="M1381.5,1044.5V949.26h16.83v95.24Zm15.35-22.42,0-20.32h2.7l25.67-28.69h19.67l-31.58,35.15h-3.49Zm29.48,22.42L1403.08,1012l11.34-11.86,32,44.37Z"/><path d="M1459.22,962.93a9.72,9.72,0,0,1-6.88-2.7,8.66,8.66,0,0,1,0-12.9,10.18,10.18,0,0,1,13.79,0,8.7,8.7,0,0,1,0,12.9A9.73,9.73,0,0,1,1459.22,962.93Zm-8.46,81.57V973.07h16.83v71.43Z"/><path d="M1494.4,1044.5l-20.19-71.43h17.16l12.56,50.22h.65l12.84-50.22h17l12.83,49.94h.7l12.37-49.94h17.21l-20.23,71.43h-17.53l-13.4-48.28h-1L1512,1044.5Z"/><path d="M1689.93,979h-8.74a27.69,27.69,0,0,0-3.51-9,28.42,28.42,0,0,0-6.35-7.27,28.85,28.85,0,0,0-8.65-4.84,30.94,30.94,0,0,0-10.46-1.72,30,30,0,0,0-16.44,4.7,32.82,32.82,0,0,0-11.86,13.78q-4.44,9.11-4.44,22.26t4.44,22.32a32.76,32.76,0,0,0,11.86,13.74,30.15,30.15,0,0,0,16.44,4.67,30.94,30.94,0,0,0,10.46-1.72,29,29,0,0,0,8.65-4.81,28,28,0,0,0,9.86-16.35h8.74a38.29,38.29,0,0,1-4.35,12.21,36.63,36.63,0,0,1-19.37,16.49,39.81,39.81,0,0,1-14,2.37,38.35,38.35,0,0,1-21.3-6,40.73,40.73,0,0,1-14.58-17q-5.28-11-5.28-25.9t5.28-25.91a40.7,40.7,0,0,1,14.58-17,38.28,38.28,0,0,1,21.3-6,40.27,40.27,0,0,1,14,2.35,36.1,36.1,0,0,1,11.28,6.61,37.19,37.19,0,0,1,8.09,9.88A38,38,0,0,1,1689.93,979Z"/><path d="M1707.76,960.79a6,6,0,0,1-4.37-1.75,5.75,5.75,0,0,1,0-8.41,6.31,6.31,0,0,1,8.72,0,5.77,5.77,0,0,1,0,8.41A6.1,6.1,0,0,1,1707.76,960.79Zm-4.23,83.71V973.07h8.32v71.43Z"/><path d="M1736.84,999.85v44.65h-8.28V973.07h8v11.2h.74a20.12,20.12,0,0,1,7.84-8.81q5.32-3.33,13.18-3.32a25.88,25.88,0,0,1,12.67,3,20.64,20.64,0,0,1,8.51,8.81,30.45,30.45,0,0,1,3,14.27v46.28h-8.28V998.74q0-8.79-4.91-13.91t-13.13-5.11a20.33,20.33,0,0,0-10,2.41,17.53,17.53,0,0,0-6.91,7A21.7,21.7,0,0,0,1736.84,999.85Z"/><path d="M1828.1,1046a31.33,31.33,0,0,1-17.3-4.67,30.85,30.85,0,0,1-11.28-13,48.11,48.11,0,0,1,0-38.32,31.93,31.93,0,0,1,11-13.16,28.39,28.39,0,0,1,16.3-4.77,30.25,30.25,0,0,1,11.21,2.12,27.79,27.79,0,0,1,9.69,6.46,31.06,31.06,0,0,1,6.82,10.93,43.63,43.63,0,0,1,2.51,15.55v4.1h-55.81v-7.31h47.34a27.29,27.29,0,0,0-2.76-12.39,22.06,22.06,0,0,0-7.68-8.72,21.52,21.52,0,0,0-23.27.42,24.77,24.77,0,0,0-8.07,9.58,29.69,29.69,0,0,0-3,13v4.37a34.87,34.87,0,0,0,3,14.86,22.86,22.86,0,0,0,8.39,9.84,23.43,23.43,0,0,0,12.89,3.48,23.14,23.14,0,0,0,8.9-1.58,19.08,19.08,0,0,0,6.46-4.25,18.7,18.7,0,0,0,4-5.89l7.86,2.56a23.47,23.47,0,0,1-5.32,8.33,27.31,27.31,0,0,1-9.21,6.11A32.58,32.58,0,0,1,1828.1,1046Z"/><path d="M1870,1044.5V973.07h8v11h.74a17.68,17.68,0,0,1,7.14-8.72,21.92,21.92,0,0,1,12-3.18q7.39,0,12.16,3.46a20.81,20.81,0,0,1,7.14,9.51h.6a19.92,19.92,0,0,1,7.89-9.46,24,24,0,0,1,13.27-3.51q10,0,15.72,6.25t5.77,18.25v47.86h-8.28V996.64q0-8.46-4.33-12.69t-11.39-4.23q-8.19,0-12.6,5a18.55,18.55,0,0,0-4.42,12.74v47H1911V995.9q0-7.26-4-11.72t-11.39-4.46a16.57,16.57,0,0,0-8.86,2.41,17.1,17.1,0,0,0-6.19,6.72,21.05,21.05,0,0,0-2.25,9.89v45.76Z"/><path d="M1997.07,1046.12a27.23,27.23,0,0,1-11.81-2.53,20.48,20.48,0,0,1-8.51-7.35,20.82,20.82,0,0,1-3.16-11.69,18.31,18.31,0,0,1,2-8.93,16.32,16.32,0,0,1,5.67-6,31.44,31.44,0,0,1,8.7-3.67,79.94,79.94,0,0,1,11.07-2.09c4-.5,7.38-.93,10.16-1.3a18.74,18.74,0,0,0,6.35-1.77,4.15,4.15,0,0,0,2.18-3.91v-1.67q0-7.31-4.35-11.51t-12.48-4.21q-7.73,0-12.58,3.39a18.77,18.77,0,0,0-6.81,8l-7.86-2.83a23.33,23.33,0,0,1,6.69-9.37,27,27,0,0,1,9.58-5.07,37.92,37.92,0,0,1,10.74-1.56,36.63,36.63,0,0,1,8.54,1.07,24.33,24.33,0,0,1,8.25,3.7,19.15,19.15,0,0,1,6.19,7.3A26.06,26.06,0,0,1,2028,996v48.51h-8.28v-11.3h-.51a22.33,22.33,0,0,1-4.42,6.13,22.71,22.71,0,0,1-7.35,4.89A26,26,0,0,1,1997.07,1046.12Zm1.12-7.58a21.59,21.59,0,0,0,11.44-2.93,20.14,20.14,0,0,0,7.46-7.79,22.07,22.07,0,0,0,2.63-10.72v-10.32a8.13,8.13,0,0,1-3.09,1.58,39.42,39.42,0,0,1-5,1.23q-2.81.54-5.6.91c-1.86.25-3.53.47-5,.65a46.42,46.42,0,0,0-10.33,2.33,14.9,14.9,0,0,0-6.55,4.35,10.76,10.76,0,0,0-2.28,7.09q0,6.51,4.65,10.07A18.65,18.65,0,0,0,1998.19,1038.54Z"/></g></g></svg>