<svg xmlns="http://www.w3.org/2000/svg" viewBox="0 0 3000 2000"><defs><style>.cls-1{fill:#f5f7f9;}.cls-2{fill:#fdfeff;stroke:#000;stroke-width:0.98px;}.cls-2,.cls-4,.cls-5{stroke-miterlimit:10;}.cls-3{fill:#231f20;}.cls-4,.cls-5{fill:none;stroke:#0071e3;stroke-width:2px;}.cls-5{stroke-dasharray:5.26 5.26;}.cls-6{fill:#0071e3;}</style></defs><g id="Layer_2" data-name="Layer 2"><g id="Layer_1-2" data-name="Layer 1"><rect class="cls-1" width="3000" height="2000"/><rect class="cls-2" x="540" y="460" width="1920" height="1080"/><path class="cls-3" d="M1020,1077.15v-151h56.62q17.4,0,29.24,6.05a41.65,41.65,0,0,1,17.92,16.92q6.08,10.88,6.08,25.32t-6.16,25.18a40.77,40.77,0,0,1-18.1,16.44q-11.94,5.79-29.34,5.79h-40.33V999.14h36.64q10.17,0,16.66-2.84a19.82,19.82,0,0,0,9.63-8.33,27,27,0,0,0,3.13-13.53,28,28,0,0,0-3.17-13.75,20.46,20.46,0,0,0-9.66-8.7q-6.5-3-16.74-3h-25.07v128.14Zm78-68.42,37.38,68.42h-30.53l-36.71-68.42Z"/><path class="cls-3" d="M1193.37,1080.22q-16.59,0-28.76-7.3a49.35,49.35,0,0,1-18.84-20.42q-6.68-13.12-6.67-30.68t6.67-30.74a49.26,49.26,0,0,1,18.84-20.5q12.17-7.29,28.76-7.3t28.75,7.3a49.26,49.26,0,0,1,18.84,20.5q6.68,13.2,6.67,30.74T1241,1052.5a49.35,49.35,0,0,1-18.84,20.42Q1210,1080.22,1193.37,1080.22Zm.14-21.38q9,0,15-5a29.82,29.82,0,0,0,9-13.38,55.67,55.67,0,0,0,3-18.73,56.25,56.25,0,0,0-3-18.84,30,30,0,0,0-9-13.45q-6-5-15-5-9.21,0-15.3,5a30,30,0,0,0-9.07,13.45,56.25,56.25,0,0,0-3,18.84,55.67,55.67,0,0,0,3,18.73,29.79,29.79,0,0,0,9.07,13.38Q1184.3,1058.84,1193.51,1058.84Z"/><path class="cls-3" d="M1261.88,1078V964.76h25.52V984h1.32a30.2,30.2,0,0,1,11.73-15.22q8.17-5.5,19.53-5.5,11.51,0,19.43,5.57A29.5,29.5,0,0,1,1350.58,984h1.18a31.14,31.14,0,0,1,12.72-15.08q9-5.64,21.27-5.64,15.63,0,25.51,9.88t9.88,28.83v76h-26.76v-71.89q0-10.54-5.61-15.45a20.11,20.11,0,0,0-13.71-4.9q-9.66,0-15.08,6t-5.42,15.59V1078h-26.17v-73q0-8.76-5.27-14t-13.75-5.24a19.52,19.52,0,0,0-10.47,2.91,20.85,20.85,0,0,0-7.52,8.19,25.72,25.72,0,0,0-2.81,12.27V1078Z"/><path class="cls-3" d="M1472.56,1080.29a46.64,46.64,0,0,1-19.36-3.87,31.13,31.13,0,0,1-13.57-11.46q-5-7.59-5-18.73,0-9.59,3.54-15.85a27.41,27.41,0,0,1,9.66-10,49.19,49.19,0,0,1,13.82-5.71,113.61,113.61,0,0,1,16-2.84q10-1,16.15-1.88c4.13-.57,7.14-1.45,9-2.66a6.2,6.2,0,0,0,2.84-5.64v-.44q0-8.32-4.94-12.9t-14.23-4.57q-9.81,0-15.52,4.27a21.1,21.1,0,0,0-7.7,10.1l-24.93-3.54a40.08,40.08,0,0,1,9.74-17.28,42.75,42.75,0,0,1,16.59-10.47,63.88,63.88,0,0,1,21.67-3.51,70.55,70.55,0,0,1,16.3,1.92,46.59,46.59,0,0,1,14.82,6.3,32.57,32.57,0,0,1,10.8,11.91q4.1,7.51,4.09,18.8V1078h-25.66v-15.56h-.88a32.2,32.2,0,0,1-17.81,15.37A43.91,43.91,0,0,1,1472.56,1080.29Zm6.93-19.61a28.72,28.72,0,0,0,13.93-3.21,23.34,23.34,0,0,0,9.11-8.51,22,22,0,0,0,3.2-11.58V1024a12.4,12.4,0,0,1-4.23,1.91,62.6,62.6,0,0,1-6.68,1.55c-2.46.44-4.89.84-7.3,1.18l-6.26.89a46.32,46.32,0,0,0-10.69,2.65,17.91,17.91,0,0,0-7.45,5.13,12.74,12.74,0,0,0-2.73,8.44q0,7.37,5.38,11.13T1479.49,1060.68Z"/><path class="cls-3" d="M1577.65,1011.65V1078H1551V964.76h25.51V984h1.33a32.26,32.26,0,0,1,12.49-15.11q8.6-5.61,21.27-5.61a40.36,40.36,0,0,1,20.47,5,34.06,34.06,0,0,1,13.56,14.52q4.83,9.51,4.76,23.08V1078h-26.69v-68q0-11.35-5.86-17.77t-16.19-6.42a24.81,24.81,0,0,0-12.42,3.06,21.35,21.35,0,0,0-8.48,8.82A29.28,29.28,0,0,0,1577.65,1011.65Z"/><path class="cls-3" d="M1669.25,1078V927h26.69v151Zm24.33-35.54-.08-32.22h4.28l40.7-45.49h31.19l-50.07,55.74h-5.52Zm46.74,35.54-36.86-51.54,18-18.8,50.8,70.34Z"/><path class="cls-3" d="M1792.48,948.68a15.44,15.44,0,0,1-10.92-4.27,13.73,13.73,0,0,1,0-20.46,16.17,16.17,0,0,1,21.86,0,13.6,13.6,0,0,1,4.54,10.25,13.45,13.45,0,0,1-4.54,10.21A15.43,15.43,0,0,1,1792.48,948.68ZM1779.06,1078V964.76h26.69V1078Z"/><path class="cls-3" d="M1848.24,1078l-32-113.25h27.21l19.91,79.63h1l20.35-79.63h26.91L1932,1044h1.11l19.61-79.19H1980L1947.93,1078h-27.8l-21.23-76.53h-1.55L1876.11,1078Z"/><line class="cls-4" x1="1020" y1="340" x2="1020" y2="342.64"/><line class="cls-5" x1="1020" y1="347.9" x2="1020" y2="1534.73"/><line class="cls-4" x1="1020" y1="1537.36" x2="1020" y2="1540"/><line class="cls-4" x1="1980" y1="340" x2="1980" y2="342.64"/><line class="cls-5" x1="1980" y1="347.9" x2="1980" y2="1534.73"/><line class="cls-4" x1="1980" y1="1537.36" x2="1980" y2="1540"/><path class="cls-6" d="M1486.2,386.11v26.18h-4.74V390.73h-.16l-6.12,3.91v-4.35l6.51-4.18Z"/><path class="cls-6" d="M1498.63,412.29l-7.39-26.18h5.1l4.71,19.24h.25l5-19.24H1511l5,19.25h.23l4.72-19.25h5.1l-7.39,26.18H1514l-5.24-18.37h-.2l-5.26,18.37Z"/><path class="cls-6" d="M743.73,386.11v26.18H739V390.73h-.15l-6.13,3.91v-4.35l6.51-4.18Z"/><path class="cls-6" d="M761.13,384.88l-8.44,31.35h-4.05l8.44-31.35Z"/><path class="cls-6" d="M764,412.29v-3.42l9.09-8.91c.87-.88,1.59-1.66,2.17-2.34a8.82,8.82,0,0,0,1.31-2,4.85,4.85,0,0,0,.43-2,3.93,3.93,0,0,0-.56-2.13,3.75,3.75,0,0,0-1.55-1.37,4.89,4.89,0,0,0-2.24-.49,4.69,4.69,0,0,0-2.26.53,3.67,3.67,0,0,0-1.5,1.5,4.82,4.82,0,0,0-.53,2.32h-4.51a8.16,8.16,0,0,1,1.13-4.34,7.8,7.8,0,0,1,3.14-2.85,10.14,10.14,0,0,1,4.6-1,10.31,10.31,0,0,1,4.63,1,7.56,7.56,0,0,1,3.1,2.69,7.15,7.15,0,0,1,1.1,3.92,7.9,7.9,0,0,1-.56,2.89,12.36,12.36,0,0,1-2,3.14,52.22,52.22,0,0,1-3.95,4.18l-4.52,4.59v.18H782v4Z"/><path class="cls-6" d="M801.09,412.29l-7.39-26.18h5.1l4.72,19.24h.25l5-19.24h4.64l5,19.25h.23l4.72-19.25h5.1l-7.39,26.18h-4.68l-5.24-18.37H811l-5.26,18.37Z"/><path class="cls-6" d="M2183.73,386.11v26.18H2179V390.73h-.15l-6.13,3.91v-4.35l6.51-4.18Z"/><path class="cls-6" d="M2201.13,384.88l-8.44,31.35h-4.05l8.44-31.35Z"/><path class="cls-6" d="M2204,412.29v-3.42l9.09-8.91c.87-.88,1.59-1.66,2.17-2.34a8.82,8.82,0,0,0,1.31-2,4.85,4.85,0,0,0,.43-2,3.93,3.93,0,0,0-.56-2.13,3.75,3.75,0,0,0-1.55-1.37,4.89,4.89,0,0,0-2.24-.49,4.69,4.69,0,0,0-2.26.53,3.67,3.67,0,0,0-1.5,1.5,4.82,4.82,0,0,0-.53,2.32h-4.51a8.16,8.16,0,0,1,1.13-4.34,7.8,7.8,0,0,1,3.14-2.85,10.14,10.14,0,0,1,4.6-1,10.31,10.31,0,0,1,4.63,1,7.56,7.56,0,0,1,3.1,2.69,7.15,7.15,0,0,1,1.1,3.92,7.9,7.9,0,0,1-.56,2.89,12.58,12.58,0,0,1-2,3.14,54.54,54.54,0,0,1-4,4.18l-4.51,4.59v.18H2222v4Z"/><path class="cls-6" d="M2241.09,412.29l-7.39-26.18h5.1l4.72,19.24h.25l5-19.24h4.64l5,19.25h.23l4.72-19.25h5.1l-7.39,26.18h-4.68l-5.24-18.37h-.2l-5.26,18.37Z"/></g></g></svg>