<svg xmlns="http://www.w3.org/2000/svg" viewBox="0 0 3000 2000"><defs><style>.cls-1{fill:#f5f7f9;}.cls-2{fill:#fdfeff;stroke:#000;stroke-width:0.98px;}.cls-2,.cls-4,.cls-5{stroke-miterlimit:10;}.cls-3{fill:#231f20;}.cls-4,.cls-5{fill:none;stroke:#0071e3;stroke-width:2px;}.cls-5{stroke-dasharray:5.26 5.26;}.cls-6{fill:#0071e3;}</style></defs><g id="Layer_2" data-name="Layer 2"><g id="Layer_1-2" data-name="Layer 1"><rect class="cls-1" width="3000" height="2000"/><rect class="cls-2" x="540" y="460" width="1920" height="1080"/><path class="cls-3" d="M1020,1077.15v-151h56.62q17.4,0,29.24,6.05a41.65,41.65,0,0,1,17.92,16.92q6.08,10.88,6.08,25.32t-6.16,25.18a40.77,40.77,0,0,1-18.1,16.44q-11.94,5.79-29.34,5.79h-40.33V999.14h36.64q10.17,0,16.66-2.84a19.82,19.82,0,0,0,9.63-8.33,27,27,0,0,0,3.13-13.53,28,28,0,0,0-3.17-13.75,20.46,20.46,0,0,0-9.66-8.7q-6.5-3-16.74-3h-25.07v128.14Zm78-68.42,37.38,68.42h-30.53l-36.71-68.42Z"/><path class="cls-3" d="M1193.37,1080.22q-16.59,0-28.76-7.3a49.35,49.35,0,0,1-18.84-20.42q-6.68-13.12-6.67-30.68t6.67-30.74a49.26,49.26,0,0,1,18.84-20.5q12.17-7.29,28.76-7.3t28.75,7.3a49.26,49.26,0,0,1,18.84,20.5q6.68,13.2,6.67,30.74T1241,1052.5a49.35,49.35,0,0,1-18.84,20.42Q1210,1080.22,1193.37,1080.22Zm.14-21.38q9,0,15-5a29.82,29.82,0,0,0,9-13.38,55.67,55.67,0,0,0,3-18.73,56.25,56.25,0,0,0-3-18.84,30,30,0,0,0-9-13.45q-6-5-15-5-9.21,0-15.3,5a30,30,0,0,0-9.07,13.45,56.25,56.25,0,0,0-3,18.84,55.67,55.67,0,0,0,3,18.73,29.79,29.79,0,0,0,9.07,13.38Q1184.3,1058.84,1193.51,1058.84Z"/><path class="cls-3" d="M1261.88,1078V964.76h25.52V984h1.32a30.2,30.2,0,0,1,11.73-15.22q8.17-5.5,19.53-5.5,11.51,0,19.43,5.57A29.5,29.5,0,0,1,1350.58,984h1.18a31.14,31.14,0,0,1,12.72-15.08q9-5.64,21.27-5.64,15.63,0,25.51,9.88t9.88,28.83v76h-26.76v-71.89q0-10.54-5.61-15.45a20.11,20.11,0,0,0-13.71-4.9q-9.66,0-15.08,6t-5.42,15.59V1078h-26.17v-73q0-8.76-5.27-14t-13.75-5.24a19.52,19.52,0,0,0-10.47,2.91,20.85,20.85,0,0,0-7.52,8.19,25.72,25.72,0,0,0-2.81,12.27V1078Z"/><path class="cls-3" d="M1472.56,1080.29a46.64,46.64,0,0,1-19.36-3.87,31.13,31.13,0,0,1-13.57-11.46q-5-7.59-5-18.73,0-9.59,3.54-15.85a27.41,27.41,0,0,1,9.66-10,49.19,49.19,0,0,1,13.82-5.71,113.61,113.61,0,0,1,16-2.84q10-1,16.15-1.88c4.13-.57,7.14-1.45,9-2.66a6.2,6.2,0,0,0,2.84-5.64v-.44q0-8.32-4.94-12.9t-14.23-4.57q-9.81,0-15.52,4.27a21.1,21.1,0,0,0-7.7,10.1l-24.93-3.54a40.08,40.08,0,0,1,9.74-17.28,42.75,42.75,0,0,1,16.59-10.47,63.88,63.88,0,0,1,21.67-3.51,70.55,70.55,0,0,1,16.3,1.92,46.59,46.59,0,0,1,14.82,6.3,32.57,32.57,0,0,1,10.8,11.91q4.1,7.51,4.09,18.8V1078h-25.66v-15.56h-.88a32.2,32.2,0,0,1-17.81,15.37A43.91,43.91,0,0,1,1472.56,1080.29Zm6.93-19.61a28.72,28.72,0,0,0,13.93-3.21,23.34,23.34,0,0,0,9.11-8.51,22,22,0,0,0,3.2-11.58V1024a12.4,12.4,0,0,1-4.23,1.91,62.6,62.6,0,0,1-6.68,1.55c-2.46.44-4.89.84-7.3,1.18l-6.26.89a46.32,46.32,0,0,0-10.69,2.65,17.91,17.91,0,0,0-7.45,5.13,12.74,12.74,0,0,0-2.73,8.44q0,7.37,5.38,11.13T1479.49,1060.68Z"/><path class="cls-3" d="M1577.65,1011.65V1078H1551V964.76h25.51V984h1.33a32.26,32.26,0,0,1,12.49-15.11q8.6-5.61,21.27-5.61a40.36,40.36,0,0,1,20.47,5,34.06,34.06,0,0,1,13.56,14.52q4.83,9.51,4.76,23.08V1078h-26.69v-68q0-11.35-5.86-17.77t-16.19-6.42a24.81,24.81,0,0,0-12.42,3.06,21.35,21.35,0,0,0-8.48,8.82A29.28,29.28,0,0,0,1577.65,1011.65Z"/><path class="cls-3" d="M1669.25,1078V927h26.69v151Zm24.33-35.54-.08-32.22h4.28l40.7-45.49h31.19l-50.07,55.74h-5.52Zm46.74,35.54-36.86-51.54,18-18.8,50.8,70.34Z"/><path class="cls-3" d="M1792.48,948.68a15.44,15.44,0,0,1-10.92-4.27,13.73,13.73,0,0,1,0-20.46,16.17,16.17,0,0,1,21.86,0,13.6,13.6,0,0,1,4.54,10.25,13.45,13.45,0,0,1-4.54,10.21A15.43,15.43,0,0,1,1792.48,948.68ZM1779.06,1078V964.76h26.69V1078Z"/><path class="cls-3" d="M1848.24,1078l-32-113.25h27.21l19.91,79.63h1l20.35-79.63h26.91L1932,1044h1.11l19.61-79.19H1980L1947.93,1078h-27.8l-21.23-76.53h-1.55L1876.11,1078Z"/><line class="cls-4" x1="1020" y1="340" x2="1020" y2="342.64"/><line class="cls-5" x1="1020" y1="347.9" x2="1020" y2="1534.73"/><line class="cls-4" x1="1020" y1="1537.36" x2="1020" y2="1540"/><line class="cls-4" x1="1980" y1="340" x2="1980" y2="342.64"/><line class="cls-5" x1="1980" y1="347.9" x2="1980" y2="1534.73"/><line class="cls-4" x1="1980" y1="1537.36" x2="1980" y2="1540"/><path class="cls-6" d="M1381.42,412.65a10.36,10.36,0,0,1-4.57-1,8,8,0,0,1-3.21-2.65,7,7,0,0,1-1.26-3.86H1377a3.6,3.6,0,0,0,1.39,2.63,4.68,4.68,0,0,0,3,1,4.84,4.84,0,0,0,2.48-.63,4.6,4.6,0,0,0,1.72-1.78,5.28,5.28,0,0,0,.61-2.6,5.17,5.17,0,0,0-.63-2.63,4.68,4.68,0,0,0-1.75-1.81,4.9,4.9,0,0,0-2.56-.66,6,6,0,0,0-2.31.44,4.77,4.77,0,0,0-1.8,1.17l-4.28-.7,1.36-13.5h15.19v4h-11.26l-.76,6.95h.16a5.32,5.32,0,0,1,2.06-1.43,7.26,7.26,0,0,1,2.91-.57,8,8,0,0,1,7.19,4.19,9.24,9.24,0,0,1,1.07,4.48,8.89,8.89,0,0,1-1.2,4.62,8.44,8.44,0,0,1-3.31,3.18A10,10,0,0,1,1381.42,412.65Z"/><path class="cls-6" d="M1404.77,412.79a9.11,9.11,0,0,1-5.42-1.6,10.08,10.08,0,0,1-3.46-4.64,22.6,22.6,0,0,1,0-14.62,10,10,0,0,1,3.46-4.59,10,10,0,0,1,10.81,0,9.86,9.86,0,0,1,3.47,4.6,19.52,19.52,0,0,1,1.21,7.29,19.77,19.77,0,0,1-1.21,7.33,10,10,0,0,1-3.46,4.63A9.08,9.08,0,0,1,1404.77,412.79Zm0-4a4.36,4.36,0,0,0,3.88-2.42q1.42-2.43,1.42-7.14a18.21,18.21,0,0,0-.65-5.24,7.07,7.07,0,0,0-1.84-3.21,4,4,0,0,0-2.81-1.08,4.32,4.32,0,0,0-3.86,2.42q-1.42,2.43-1.44,7.11a18.09,18.09,0,0,0,.64,5.26,7,7,0,0,0,1.83,3.22A4.05,4.05,0,0,0,1404.77,408.79Z"/><path class="cls-6" d="M1419.79,392.4V391a6,6,0,0,1,.65-2.81,5.06,5.06,0,0,1,1.89-2.06,6.31,6.31,0,0,1,6,0,5,5,0,0,1,1.86,2.06,6.27,6.27,0,0,1,.63,2.81v1.38a6.27,6.27,0,0,1-.63,2.81,5.12,5.12,0,0,1-1.88,2,6.4,6.4,0,0,1-6,0,5.05,5.05,0,0,1-1.87-2.05A6.13,6.13,0,0,1,1419.79,392.4Zm1.45,19.89,18-26.18h3.2l-18,26.18Zm1.91-21.27v1.38a3.68,3.68,0,0,0,.48,1.86,1.8,1.8,0,0,0,1.71.84,1.77,1.77,0,0,0,1.69-.84,3.78,3.78,0,0,0,.47-1.86V391a3.92,3.92,0,0,0-.45-1.87,1.75,1.75,0,0,0-1.71-.85,1.78,1.78,0,0,0-1.7.85A3.68,3.68,0,0,0,1423.15,391Zm9.95,16.36V406a6.13,6.13,0,0,1,.64-2.8,5.13,5.13,0,0,1,1.89-2.06,6.24,6.24,0,0,1,6,0,5,5,0,0,1,1.86,2.05,6.14,6.14,0,0,1,.64,2.81v1.38a6.23,6.23,0,0,1-.64,2.8,5,5,0,0,1-1.88,2.06,5.54,5.54,0,0,1-3,.78,5.6,5.6,0,0,1-3-.78,5,5,0,0,1-1.87-2.06A6.22,6.22,0,0,1,1433.1,407.38Zm3.33-1.38v1.38a3.62,3.62,0,0,0,.49,1.86,1.8,1.8,0,0,0,1.71.84,1.78,1.78,0,0,0,1.71-.84,3.75,3.75,0,0,0,.46-1.86V406a4.06,4.06,0,0,0-.44-1.87,1.77,1.77,0,0,0-1.73-.85,1.8,1.8,0,0,0-1.7.85A3.66,3.66,0,0,0,1436.43,406Z"/><path class="cls-6" d="M1458.66,412.29V386.11h16.78v4h-12v7.1h10.88v4h-10.88v11.12Z"/><path class="cls-6" d="M1490.83,404V392.66h4.63v19.63H1491V408.8h-.21a5.91,5.91,0,0,1-2.18,2.7,6.37,6.37,0,0,1-3.72,1.05,6.58,6.58,0,0,1-3.41-.87,5.93,5.93,0,0,1-2.31-2.51,8.93,8.93,0,0,1-.83-4v-12.5h4.63v11.78a4.18,4.18,0,0,0,1,3,3.51,3.51,0,0,0,2.69,1.1,4.28,4.28,0,0,0,2-.5,4.09,4.09,0,0,0,1.58-1.49A4.64,4.64,0,0,0,1490.83,404Z"/><path class="cls-6" d="M1504.84,386.11v26.18h-4.63V386.11Z"/><path class="cls-6" d="M1514.22,386.11v26.18h-4.63V386.11Z"/><path class="cls-6" d="M1533.63,412.29l-7.39-26.18h5.1l4.72,19.24h.24l5-19.24H1546l5,19.25h.23l4.71-19.25h5.11l-7.39,26.18H1549l-5.24-18.37h-.21l-5.25,18.37Z"/><path class="cls-6" d="M1566.48,389.87a2.69,2.69,0,0,1-1.89-.74,2.36,2.36,0,0,1-.79-1.78,2.32,2.32,0,0,1,.79-1.77,2.69,2.69,0,0,1,1.89-.74,2.65,2.65,0,0,1,1.9.75,2.38,2.38,0,0,1,0,3.54A2.68,2.68,0,0,1,1566.48,389.87Zm-2.32,22.42V392.66h4.62v19.63Z"/><path class="cls-6" d="M1580.83,412.64a7.46,7.46,0,0,1-4.15-1.19,8.1,8.1,0,0,1-2.88-3.45,14.68,14.68,0,0,1,0-11,8,8,0,0,1,2.93-3.41,7.53,7.53,0,0,1,4.1-1.16,6.08,6.08,0,0,1,2.84.58,5.35,5.35,0,0,1,1.76,1.4,8.67,8.67,0,0,1,1,1.52h.19v-9.79h4.64v26.18h-4.55V409.2h-.28a7.66,7.66,0,0,1-1,1.51,5.58,5.58,0,0,1-1.79,1.36A6.15,6.15,0,0,1,1580.83,412.64Zm1.29-3.8a4,4,0,0,0,2.5-.8,4.9,4.9,0,0,0,1.58-2.23,9.67,9.67,0,0,0,.53-3.34,9.23,9.23,0,0,0-.53-3.31,4.74,4.74,0,0,0-1.56-2.18,4,4,0,0,0-2.52-.78,4.11,4.11,0,0,0-2.58.8,4.9,4.9,0,0,0-1.56,2.23,9.25,9.25,0,0,0-.53,3.24,9.52,9.52,0,0,0,.53,3.28,5.12,5.12,0,0,0,1.57,2.27A4,4,0,0,0,1582.12,408.84Z"/><path class="cls-6" d="M1606,392.66v3.58h-11.29v-3.58Zm-8.5-4.71h4.62v18.44a2.87,2.87,0,0,0,.29,1.42,1.49,1.49,0,0,0,.76.67,3,3,0,0,0,1,.18,4.92,4.92,0,0,0,.8-.06c.24-.05.43-.08.56-.12l.77,3.62a8.2,8.2,0,0,1-1.05.28,9.27,9.27,0,0,1-1.67.18,7.5,7.5,0,0,1-3.13-.53,4.85,4.85,0,0,1-2.21-1.81,5.38,5.38,0,0,1-.79-3.07Z"/><path class="cls-6" d="M1615,400.79v11.5h-4.63V386.11h4.52V396h.24a5.64,5.64,0,0,1,2.14-2.62,6.48,6.48,0,0,1,3.7-1,7.13,7.13,0,0,1,3.56.86,5.77,5.77,0,0,1,2.36,2.5,8.8,8.8,0,0,1,.84,4v12.5h-4.63V400.5a4.4,4.4,0,0,0-1-3.08,3.68,3.68,0,0,0-2.85-1.11,4.49,4.49,0,0,0-2.19.53,3.83,3.83,0,0,0-1.51,1.53A5,5,0,0,0,1615,400.79Z"/><path class="cls-6" d="M744.57,412.29v-3.42l9.09-8.91c.87-.88,1.59-1.66,2.17-2.34a8.82,8.82,0,0,0,1.31-2,4.85,4.85,0,0,0,.43-2,3.93,3.93,0,0,0-.56-2.13,3.75,3.75,0,0,0-1.55-1.37,4.92,4.92,0,0,0-2.24-.49,4.69,4.69,0,0,0-2.26.53,3.67,3.67,0,0,0-1.5,1.5,4.71,4.71,0,0,0-.53,2.32h-4.51a8.07,8.07,0,0,1,1.13-4.34,7.8,7.8,0,0,1,3.14-2.85,10.14,10.14,0,0,1,4.6-1,10.31,10.31,0,0,1,4.63,1,7.56,7.56,0,0,1,3.1,2.69,7.15,7.15,0,0,1,1.1,3.92,7.9,7.9,0,0,1-.56,2.89,12.36,12.36,0,0,1-2,3.14,52.22,52.22,0,0,1-4,4.18l-4.52,4.59v.18h11.41v4Z"/><path class="cls-6" d="M776,412.65a10.36,10.36,0,0,1-4.57-1,8,8,0,0,1-3.21-2.65,7.13,7.13,0,0,1-1.26-3.86h4.61A3.6,3.6,0,0,0,773,407.8a4.68,4.68,0,0,0,3,1,4.84,4.84,0,0,0,2.48-.63,4.6,4.6,0,0,0,1.72-1.78,5.28,5.28,0,0,0,.61-2.6,5.17,5.17,0,0,0-.63-2.63,4.68,4.68,0,0,0-1.75-1.81,4.9,4.9,0,0,0-2.56-.66,6,6,0,0,0-2.31.44,4.77,4.77,0,0,0-1.8,1.17l-4.28-.7,1.36-13.5h15.19v4H772.81l-.75,6.95h.15a5.32,5.32,0,0,1,2.06-1.43,7.26,7.26,0,0,1,2.91-.57,8,8,0,0,1,7.19,4.19,9.24,9.24,0,0,1,1.07,4.48,8.89,8.89,0,0,1-1.2,4.62,8.44,8.44,0,0,1-3.31,3.18A10,10,0,0,1,776,412.65Z"/><path class="cls-6" d="M790.4,392.4V391a6.15,6.15,0,0,1,.65-2.81,5.21,5.21,0,0,1,1.89-2.06,6.31,6.31,0,0,1,6,0,4.86,4.86,0,0,1,1.86,2.06,6.27,6.27,0,0,1,.63,2.81v1.38a6.27,6.27,0,0,1-.63,2.81,5,5,0,0,1-1.88,2,5.61,5.61,0,0,1-3,.76,5.67,5.67,0,0,1-3-.76A5.05,5.05,0,0,1,791,395.2,6.13,6.13,0,0,1,790.4,392.4Zm1.46,19.89,18-26.18h3.19l-18,26.18Zm1.9-21.27v1.38a3.68,3.68,0,0,0,.48,1.86,1.8,1.8,0,0,0,1.71.84,1.76,1.76,0,0,0,1.69-.84,3.78,3.78,0,0,0,.47-1.86V391a3.92,3.92,0,0,0-.45-1.87,1.75,1.75,0,0,0-1.71-.85,1.78,1.78,0,0,0-1.7.85A3.68,3.68,0,0,0,793.76,391Zm10,16.36V406a6.13,6.13,0,0,1,.64-2.8,5.13,5.13,0,0,1,1.89-2.06,5.54,5.54,0,0,1,3-.78,5.6,5.6,0,0,1,3,.78,5.1,5.1,0,0,1,1.86,2.05,6.27,6.27,0,0,1,.63,2.81v1.38a6.1,6.1,0,0,1-.64,2.8,5.08,5.08,0,0,1-1.87,2.06,6.28,6.28,0,0,1-6.06,0,5,5,0,0,1-1.87-2.06A6.22,6.22,0,0,1,803.71,407.38ZM807,406v1.38a3.72,3.72,0,0,0,.49,1.86,1.81,1.81,0,0,0,1.71.84,1.78,1.78,0,0,0,1.71-.84,3.75,3.75,0,0,0,.47-1.86V406a3.94,3.94,0,0,0-.45-1.87,1.76,1.76,0,0,0-1.73-.85,1.81,1.81,0,0,0-1.7.85A3.66,3.66,0,0,0,807,406Z"/><path class="cls-6" d="M2184.57,412.29v-3.42l9.09-8.91c.87-.88,1.59-1.66,2.17-2.34a8.82,8.82,0,0,0,1.31-2,4.85,4.85,0,0,0,.43-2,3.93,3.93,0,0,0-.56-2.13,3.75,3.75,0,0,0-1.55-1.37,4.92,4.92,0,0,0-2.24-.49,4.69,4.69,0,0,0-2.26.53,3.67,3.67,0,0,0-1.5,1.5,4.82,4.82,0,0,0-.53,2.32h-4.51a8.07,8.07,0,0,1,1.13-4.34,7.8,7.8,0,0,1,3.14-2.85,10.14,10.14,0,0,1,4.6-1,10.31,10.31,0,0,1,4.63,1,7.56,7.56,0,0,1,3.1,2.69,7.15,7.15,0,0,1,1.1,3.92,7.9,7.9,0,0,1-.56,2.89,12.36,12.36,0,0,1-2,3.14,52.22,52.22,0,0,1-3.95,4.18l-4.52,4.59v.18h11.41v4Z"/><path class="cls-6" d="M2216,412.65a10.36,10.36,0,0,1-4.57-1,8,8,0,0,1-3.21-2.65,7.13,7.13,0,0,1-1.26-3.86h4.61a3.6,3.6,0,0,0,1.39,2.63,4.68,4.68,0,0,0,3,1,4.84,4.84,0,0,0,2.48-.63,4.6,4.6,0,0,0,1.72-1.78,5.83,5.83,0,0,0,0-5.23,4.68,4.68,0,0,0-1.75-1.81,4.89,4.89,0,0,0-2.55-.66,6.05,6.05,0,0,0-2.32.44,4.77,4.77,0,0,0-1.8,1.17l-4.28-.7,1.36-13.5h15.19v4h-11.26l-.75,6.95h.15a5.32,5.32,0,0,1,2.06-1.43,7.26,7.26,0,0,1,2.91-.57,8,8,0,0,1,7.19,4.19,9.24,9.24,0,0,1,1.07,4.48,9,9,0,0,1-1.19,4.62,8.54,8.54,0,0,1-3.32,3.18A10,10,0,0,1,2216,412.65Z"/><path class="cls-6" d="M2230.4,392.4V391a6.15,6.15,0,0,1,.65-2.81,5.21,5.21,0,0,1,1.89-2.06,6.31,6.31,0,0,1,6,0,4.86,4.86,0,0,1,1.86,2.06,6.27,6.27,0,0,1,.63,2.81v1.38a6.27,6.27,0,0,1-.63,2.81,5,5,0,0,1-1.88,2,5.61,5.61,0,0,1-3,.76,5.67,5.67,0,0,1-3-.76,5.05,5.05,0,0,1-1.87-2.05A6.13,6.13,0,0,1,2230.4,392.4Zm1.46,19.89,18-26.18h3.19l-18,26.18Zm1.9-21.27v1.38a3.68,3.68,0,0,0,.48,1.86,1.8,1.8,0,0,0,1.71.84,1.76,1.76,0,0,0,1.69-.84,3.78,3.78,0,0,0,.47-1.86V391a3.92,3.92,0,0,0-.45-1.87,1.75,1.75,0,0,0-1.71-.85,1.78,1.78,0,0,0-1.7.85A3.68,3.68,0,0,0,2233.76,391Zm9.95,16.36V406a6.13,6.13,0,0,1,.64-2.8,5.13,5.13,0,0,1,1.89-2.06,5.54,5.54,0,0,1,3-.78,5.6,5.6,0,0,1,3.05.78,5.1,5.1,0,0,1,1.86,2.05,6.27,6.27,0,0,1,.63,2.81v1.38a6.1,6.1,0,0,1-.64,2.8,5.08,5.08,0,0,1-1.87,2.06,6.28,6.28,0,0,1-6.06,0,5,5,0,0,1-1.87-2.06A6.22,6.22,0,0,1,2243.71,407.38ZM2247,406v1.38a3.72,3.72,0,0,0,.49,1.86,1.81,1.81,0,0,0,1.71.84,1.78,1.78,0,0,0,1.71-.84,3.75,3.75,0,0,0,.47-1.86V406a3.94,3.94,0,0,0-.45-1.87,1.76,1.76,0,0,0-1.73-.85,1.81,1.81,0,0,0-1.7.85A3.66,3.66,0,0,0,2247,406Z"/></g></g></svg>