<svg xmlns="http://www.w3.org/2000/svg" viewBox="0 0 3000 2000"><defs><style>.cls-1{fill:#f5f7f9;}.cls-2,.cls-4{fill:none;stroke:#0071e3;stroke-miterlimit:10;}.cls-2{stroke-width:2px;}.cls-3{fill:#0071e3;}.cls-4{stroke-width:2.64px;}</style></defs><g id="Layer_2" data-name="Layer 2"><g id="Layer_1-2" data-name="Layer 1"><rect class="cls-1" width="3000" height="2000"/><line class="cls-2" x1="1620.09" y1="1126.62" x2="676" y2="1126.62"/><rect class="cls-3" x="1619.09" y="1120.12" width="2" height="13"/><rect class="cls-3" x="675" y="1120.12" width="2" height="13"/><path class="cls-3" d="M946.76,1166.09h5.81l7.77,19h.31l7.77-19h5.8v26.18h-4.55v-18h-.24l-7.24,17.91h-3.4l-7.23-18h-.25v18h-4.55Z"/><path class="cls-3" d="M984.83,1192.67a8.18,8.18,0,0,1-3.35-.67,5.48,5.48,0,0,1-2.36-2,5.85,5.85,0,0,1-.86-3.25,5.54,5.54,0,0,1,.62-2.75,4.72,4.72,0,0,1,1.67-1.74,8.9,8.9,0,0,1,2.4-1,20.26,20.26,0,0,1,2.77-.49c1.15-.12,2.08-.23,2.8-.33a3.91,3.91,0,0,0,1.56-.46,1.06,1.06,0,0,0,.49-1V1179a2.91,2.91,0,0,0-.85-2.24,3.51,3.51,0,0,0-2.47-.79,4.43,4.43,0,0,0-2.69.74,3.67,3.67,0,0,0-1.34,1.75l-4.32-.61a6.94,6.94,0,0,1,1.69-3,7.37,7.37,0,0,1,2.88-1.81,10.93,10.93,0,0,1,3.75-.61,12.36,12.36,0,0,1,2.83.33,8.17,8.17,0,0,1,2.57,1.09,5.68,5.68,0,0,1,1.87,2.07,6.78,6.78,0,0,1,.71,3.26v13.14h-4.45v-2.7h-.15a5.62,5.62,0,0,1-1.18,1.53,5.88,5.88,0,0,1-1.91,1.14A7.72,7.72,0,0,1,984.83,1192.67Zm1.2-3.4a5,5,0,0,0,2.42-.56,4,4,0,0,0,1.58-1.48,3.8,3.8,0,0,0,.56-2v-2.32a2.16,2.16,0,0,1-.74.33,8,8,0,0,1-1.16.27l-1.26.21-1.09.15a8,8,0,0,0-1.85.46,3,3,0,0,0-1.29.89,2.45,2.45,0,0,0,.46,3.39A4,4,0,0,0,986,1189.27Z"/><path class="cls-3" d="M1015.39,1177.82l-4.22.46a3.62,3.62,0,0,0-.62-1.2,3.3,3.3,0,0,0-1.18-.91,4.32,4.32,0,0,0-1.82-.34,4.38,4.38,0,0,0-2.42.63,1.84,1.84,0,0,0-1,1.62,1.65,1.65,0,0,0,.64,1.39,5.36,5.36,0,0,0,2.14.89l3.35.71a8.46,8.46,0,0,1,4.14,1.91,4.53,4.53,0,0,1,1.38,3.41,5.39,5.39,0,0,1-1.08,3.27,7,7,0,0,1-3,2.2,11.14,11.14,0,0,1-4.35.79,10,10,0,0,1-5.8-1.51,6,6,0,0,1-2.62-4.23l4.51-.43a3.23,3.23,0,0,0,1.3,2,4.56,4.56,0,0,0,2.6.67,4.67,4.67,0,0,0,2.65-.67,2,2,0,0,0,1-1.68,1.74,1.74,0,0,0-.65-1.39,4.62,4.62,0,0,0-2-.85l-3.35-.7a7.87,7.87,0,0,1-4.18-2,4.84,4.84,0,0,1-1.34-3.55,5,5,0,0,1,1-3.15,6.46,6.46,0,0,1,2.8-2.07,10.9,10.9,0,0,1,4.15-.73,9,9,0,0,1,5.44,1.47A6.22,6.22,0,0,1,1015.39,1177.82Z"/><path class="cls-3" d="M1029.44,1172.63v3.58h-11.29v-3.58Zm-8.51-4.7h4.63v18.43a2.88,2.88,0,0,0,.29,1.43,1.49,1.49,0,0,0,.76.67,3,3,0,0,0,1.05.18,4.92,4.92,0,0,0,.8-.06l.55-.12.78,3.62a10.31,10.31,0,0,1-1,.28,9.27,9.27,0,0,1-1.67.18,7.5,7.5,0,0,1-3.13-.53,4.8,4.8,0,0,1-2.21-1.81,5.46,5.46,0,0,1-.8-3.07Z"/><path class="cls-3" d="M1041.8,1192.65a10.08,10.08,0,0,1-5.1-1.23,8.31,8.31,0,0,1-3.29-3.5,12.92,12.92,0,0,1,0-10.68,8.72,8.72,0,0,1,3.24-3.58,9.2,9.2,0,0,1,4.9-1.28,10,10,0,0,1,3.43.58,7.88,7.88,0,0,1,2.86,1.8,8.32,8.32,0,0,1,2,3.08,12.45,12.45,0,0,1,.72,4.46v1.42h-16.1v-3.12h11.66a5.06,5.06,0,0,0-.57-2.37,4.23,4.23,0,0,0-1.57-1.65,4.83,4.83,0,0,0-4.82.09,4.63,4.63,0,0,0-1.67,1.79,5.08,5.08,0,0,0-.61,2.42v2.72a6.38,6.38,0,0,0,.63,2.94,4.37,4.37,0,0,0,1.75,1.86,5.21,5.21,0,0,0,2.63.65,5.53,5.53,0,0,0,1.83-.29,3.85,3.85,0,0,0,1.42-.85,3.62,3.62,0,0,0,.91-1.39l4.32.48a6.77,6.77,0,0,1-1.56,3,7.54,7.54,0,0,1-2.92,2A11.15,11.15,0,0,1,1041.8,1192.65Z"/><path class="cls-3" d="M1054.44,1192.27v-19.64h4.49v3.28h.2a4.94,4.94,0,0,1,1.85-2.63,5,5,0,0,1,3-.93l.86,0c.32,0,.59.06.8.1v4.26a5.22,5.22,0,0,0-.93-.19,10.4,10.4,0,0,0-1.22-.08,4.73,4.73,0,0,0-2.27.54,4,4,0,0,0-1.57,1.5,4.18,4.18,0,0,0-.58,2.22v11.54Z"/><path class="cls-3" d="M1077.86,1192.27v-26.18h10a11,11,0,0,1,4.73.89,6.38,6.38,0,0,1,2.82,2.42,6.48,6.48,0,0,1,.94,3.48,5.67,5.67,0,0,1-.61,2.73,5.19,5.19,0,0,1-1.65,1.83,6.86,6.86,0,0,1-2.31,1v.26a5.66,5.66,0,0,1,2.67.85,6,6,0,0,1,2.11,2.18,6.69,6.69,0,0,1,.82,3.4,6.87,6.87,0,0,1-1,3.65,6.76,6.76,0,0,1-3,2.55,11.71,11.71,0,0,1-5,.93Zm4.74-15h4.7a5.29,5.29,0,0,0,2.21-.45,3.71,3.71,0,0,0,1.55-1.29,3.45,3.45,0,0,0,.57-2,3.29,3.29,0,0,0-1.07-2.51,4.53,4.53,0,0,0-3.16-1h-4.8Zm0,11.09h5.11a5.63,5.63,0,0,0,3.72-1,3.23,3.23,0,0,0,1.15-2.55,3.92,3.92,0,0,0-2.22-3.59,5.49,5.49,0,0,0-2.53-.54h-5.23Z"/><path class="cls-3" d="M1101.32,1192.27v-19.64h4.49v3.28h.2a4.89,4.89,0,0,1,1.85-2.63,5,5,0,0,1,3-.93l.86,0c.32,0,.59.06.8.1v4.26a5.43,5.43,0,0,0-.93-.19,10.4,10.4,0,0,0-1.22-.08,4.73,4.73,0,0,0-2.27.54,4.14,4.14,0,0,0-1.58,1.5,4.27,4.27,0,0,0-.57,2.22v11.54Z"/><path class="cls-3" d="M1120.88,1192.67a8.26,8.26,0,0,1-3.36-.67,5.51,5.51,0,0,1-2.35-2,5.85,5.85,0,0,1-.86-3.25,5.54,5.54,0,0,1,.61-2.75,4.83,4.83,0,0,1,1.68-1.74,8.7,8.7,0,0,1,2.39-1,20.53,20.53,0,0,1,2.77-.49c1.15-.12,2.09-.23,2.8-.33a3.92,3.92,0,0,0,1.57-.46,1.06,1.06,0,0,0,.49-1V1179a2.92,2.92,0,0,0-.86-2.24,3.48,3.48,0,0,0-2.46-.79,4.46,4.46,0,0,0-2.7.74,3.65,3.65,0,0,0-1.33,1.75l-4.32-.61a6.94,6.94,0,0,1,1.69-3,7.41,7.41,0,0,1,2.87-1.81,11,11,0,0,1,3.76-.61,12.36,12.36,0,0,1,2.83.33,8.27,8.27,0,0,1,2.57,1.09,5.77,5.77,0,0,1,1.87,2.07,6.78,6.78,0,0,1,.71,3.26v13.14h-4.45v-2.7h-.15a5.66,5.66,0,0,1-1.19,1.53,5.72,5.72,0,0,1-1.9,1.14A7.81,7.81,0,0,1,1120.88,1192.67Zm1.2-3.4a5,5,0,0,0,2.42-.56,4,4,0,0,0,1.58-1.48,3.79,3.79,0,0,0,.55-2v-2.32a2.09,2.09,0,0,1-.73.33,8.28,8.28,0,0,1-1.16.27l-1.27.21-1.08.15a8.17,8.17,0,0,0-1.86.46,3.14,3.14,0,0,0-1.29.89,2.24,2.24,0,0,0-.47,1.46,2.19,2.19,0,0,0,.93,1.93A4.05,4.05,0,0,0,1122.08,1189.27Z"/><path class="cls-3" d="M1140.54,1180.76v11.51h-4.63v-19.64h4.43V1176h.23a5.6,5.6,0,0,1,2.16-2.62,6.63,6.63,0,0,1,3.69-1,7,7,0,0,1,3.55.87,5.91,5.91,0,0,1,2.35,2.52,8.73,8.73,0,0,1,.83,4v12.5h-4.63v-11.79a4.39,4.39,0,0,0-1-3.08,3.61,3.61,0,0,0-2.8-1.11,4.37,4.37,0,0,0-2.16.53,3.74,3.74,0,0,0-1.47,1.53A5.11,5.11,0,0,0,1140.54,1180.76Z"/><path class="cls-3" d="M1165.15,1192.62a7.45,7.45,0,0,1-4.14-1.19,8.15,8.15,0,0,1-2.89-3.46,14.72,14.72,0,0,1,0-11,7.89,7.89,0,0,1,2.92-3.41,7.47,7.47,0,0,1,4.1-1.16,6.08,6.08,0,0,1,2.84.58,5.61,5.61,0,0,1,1.77,1.39,8.91,8.91,0,0,1,1,1.53h.19v-9.79h4.64v26.18h-4.55v-3.09h-.28a8.05,8.05,0,0,1-1,1.51,5.61,5.61,0,0,1-1.79,1.36A6.09,6.09,0,0,1,1165.15,1192.62Zm1.29-3.8a4,4,0,0,0,2.51-.8,4.93,4.93,0,0,0,1.57-2.23,10.6,10.6,0,0,0,0-6.65A4.86,4.86,0,0,0,1169,1177a4.5,4.5,0,0,0-5.11,0,4.92,4.92,0,0,0-1.56,2.22,10.42,10.42,0,0,0,0,6.53,4.93,4.93,0,0,0,1.57,2.26A4,4,0,0,0,1166.44,1188.82Z"/><path class="cls-3" d="M1195.21,1192.27l-7.39-26.18h5.1l4.71,19.24h.25l5-19.24h4.64l5,19.25h.23l4.72-19.25h5.1l-7.39,26.18h-4.68l-5.24-18.37h-.2l-5.26,18.37Z"/><path class="cls-3" d="M1232.28,1192.65a9.56,9.56,0,0,1-5-1.26,8.65,8.65,0,0,1-3.26-3.54,12.8,12.8,0,0,1,0-10.65,8.58,8.58,0,0,1,3.26-3.56,10.51,10.51,0,0,1,10,0,8.58,8.58,0,0,1,3.26,3.56,12.8,12.8,0,0,1,0,10.65,8.65,8.65,0,0,1-3.26,3.54A9.56,9.56,0,0,1,1232.28,1192.65Zm0-3.7a3.93,3.93,0,0,0,2.6-.87,5.18,5.18,0,0,0,1.57-2.32,9.74,9.74,0,0,0,.52-3.24,9.88,9.88,0,0,0-.52-3.27,5.21,5.21,0,0,0-1.57-2.33,3.93,3.93,0,0,0-2.6-.87,4.05,4.05,0,0,0-2.66.87,5.21,5.21,0,0,0-1.57,2.33,9.63,9.63,0,0,0-.52,3.27,9.49,9.49,0,0,0,.52,3.24,5.18,5.18,0,0,0,1.57,2.32A4.05,4.05,0,0,0,1232.31,1189Z"/><path class="cls-3" d="M1245.6,1192.27v-19.64h4.49v3.28h.2a4.94,4.94,0,0,1,1.85-2.63,5,5,0,0,1,3-.93l.86,0c.32,0,.59.06.8.1v4.26a5.43,5.43,0,0,0-.93-.19,10.4,10.4,0,0,0-1.22-.08,4.73,4.73,0,0,0-2.27.54,4.14,4.14,0,0,0-1.58,1.5,4.27,4.27,0,0,0-.57,2.22v11.54Z"/><path class="cls-3" d="M1266.35,1192.62a7.43,7.43,0,0,1-4.14-1.19,8.08,8.08,0,0,1-2.89-3.46,14.72,14.72,0,0,1,0-11,7.89,7.89,0,0,1,2.92-3.41,7.45,7.45,0,0,1,4.1-1.16,6.08,6.08,0,0,1,2.84.58,5.46,5.46,0,0,1,1.76,1.39,8.36,8.36,0,0,1,1,1.53h.19v-9.79h4.65v26.18h-4.56v-3.09H1272a8,8,0,0,1-1,1.51,5.61,5.61,0,0,1-1.79,1.36A6.12,6.12,0,0,1,1266.35,1192.62Zm1.29-3.8a4,4,0,0,0,2.51-.8,4.93,4.93,0,0,0,1.57-2.23,9.71,9.71,0,0,0,.53-3.34,9.23,9.23,0,0,0-.53-3.31,4.72,4.72,0,0,0-1.56-2.19,4.49,4.49,0,0,0-5.1,0,4.92,4.92,0,0,0-1.56,2.22,9.35,9.35,0,0,0-.53,3.25,9.52,9.52,0,0,0,.53,3.28,5,5,0,0,0,1.58,2.26A4,4,0,0,0,1267.64,1188.82Z"/><path class="cls-3" d="M1286.38,1166.09v26.18h-4.63v-26.18Z"/><path class="cls-3" d="M1299.7,1192.65a9.5,9.5,0,0,1-5-1.26,8.61,8.61,0,0,1-3.27-3.54,12.8,12.8,0,0,1,0-10.65,8.54,8.54,0,0,1,3.27-3.56,10.49,10.49,0,0,1,10,0,8.58,8.58,0,0,1,3.26,3.56,12.8,12.8,0,0,1,0,10.65,8.65,8.65,0,0,1-3.26,3.54A9.56,9.56,0,0,1,1299.7,1192.65Zm0-3.7a4,4,0,0,0,2.61-.87,5.16,5.16,0,0,0,1.56-2.32,9.49,9.49,0,0,0,.52-3.24,9.63,9.63,0,0,0-.52-3.27,5.19,5.19,0,0,0-1.56-2.33,4,4,0,0,0-2.61-.87,4.05,4.05,0,0,0-2.66.87,5.21,5.21,0,0,0-1.57,2.33,9.88,9.88,0,0,0-.52,3.27,9.74,9.74,0,0,0,.52,3.24,5.18,5.18,0,0,0,1.57,2.32A4.05,4.05,0,0,0,1299.73,1189Z"/><path class="cls-3" d="M1321.59,1192.65a9.5,9.5,0,0,1-5-1.29,8.53,8.53,0,0,1-3.23-3.57,11.76,11.76,0,0,1-1.13-5.26,11.6,11.6,0,0,1,1.15-5.29,8.67,8.67,0,0,1,3.25-3.58,9.44,9.44,0,0,1,5-1.28,9.82,9.82,0,0,1,4.24.87,7.44,7.44,0,0,1,3,2.47,7.34,7.34,0,0,1,1.25,3.71h-4.42a4.37,4.37,0,0,0-1.27-2.37,3.77,3.77,0,0,0-2.68-1,4.2,4.2,0,0,0-2.5.76,5,5,0,0,0-1.66,2.18,8.72,8.72,0,0,0-.6,3.4,9.15,9.15,0,0,0,.59,3.45,5,5,0,0,0,1.65,2.21,4.23,4.23,0,0,0,2.52.77,4.17,4.17,0,0,0,1.83-.39,3.53,3.53,0,0,0,1.36-1.13,4.33,4.33,0,0,0,.76-1.8H1330a7.64,7.64,0,0,1-1.23,3.69,7.19,7.19,0,0,1-2.89,2.5A9.61,9.61,0,0,1,1321.59,1192.65Z"/><path class="cls-3" d="M1333.81,1192.27v-26.18h4.63v26.18Zm4.22-6.16v-5.59h.74l7-7.89h5.41l-8.68,9.67h-1Zm8.1,6.16-6.39-8.94,3.12-3.26,8.81,12.2Z"/><line class="cls-4" x1="2323.68" y1="887.9" x2="676.32" y2="887.9"/><rect class="cls-3" x="2322.36" y="879.32" width="2.64" height="17.17"/><rect class="cls-3" x="675" y="879.32" width="2.64" height="17.17"/><path class="cls-3" d="M1206.74,825.81h5.8l7.77,19h.31l7.77-19h5.81V852h-4.55V834h-.25l-7.23,17.91h-3.4L1211.53,834h-.24v18h-4.55Z"/><path class="cls-3" d="M1244.81,852.39a8,8,0,0,1-3.36-.68,5.36,5.36,0,0,1-2.35-2,5.77,5.77,0,0,1-.86-3.25,5.52,5.52,0,0,1,.61-2.75,4.89,4.89,0,0,1,1.67-1.74,8.9,8.9,0,0,1,2.4-1,19.07,19.07,0,0,1,2.77-.49c1.15-.12,2.08-.23,2.8-.33a4.09,4.09,0,0,0,1.57-.46,1.09,1.09,0,0,0,.49-1v-.07a2.9,2.9,0,0,0-.86-2.24,3.49,3.49,0,0,0-2.47-.79,4.43,4.43,0,0,0-2.69.74,3.65,3.65,0,0,0-1.33,1.75l-4.32-.61a6.91,6.91,0,0,1,1.68-3,7.54,7.54,0,0,1,2.88-1.82,11.23,11.23,0,0,1,3.76-.6,12.27,12.27,0,0,1,2.82.33,8.07,8.07,0,0,1,2.57,1.09,5.7,5.7,0,0,1,1.88,2.07,6.78,6.78,0,0,1,.71,3.26V852h-4.45v-2.7h-.16a5.43,5.43,0,0,1-1.18,1.53,5.83,5.83,0,0,1-1.9,1.14A7.81,7.81,0,0,1,1244.81,852.39ZM1246,849a5,5,0,0,0,2.42-.55A4,4,0,0,0,1250,847a3.72,3.72,0,0,0,.56-2v-2.31a2.09,2.09,0,0,1-.73.33,10.48,10.48,0,0,1-1.16.27l-1.27.21-1.08.15a8.17,8.17,0,0,0-1.86.46,3.14,3.14,0,0,0-1.29.89,2.24,2.24,0,0,0-.47,1.46,2.2,2.2,0,0,0,.93,1.93A4,4,0,0,0,1246,849Z"/><path class="cls-3" d="M1275.36,837.54l-4.22.46a3.44,3.44,0,0,0-.62-1.2,3.22,3.22,0,0,0-1.18-.91,4.29,4.29,0,0,0-1.82-.34,4.46,4.46,0,0,0-2.42.62,1.84,1.84,0,0,0-1,1.63,1.68,1.68,0,0,0,.63,1.39,5.23,5.23,0,0,0,2.14.88l3.35.72a8.59,8.59,0,0,1,4.15,1.9,4.56,4.56,0,0,1,1.37,3.42,5.34,5.34,0,0,1-1.08,3.26,7,7,0,0,1-3,2.21,11.12,11.12,0,0,1-4.34.79,10.06,10.06,0,0,1-5.81-1.51,6.06,6.06,0,0,1-2.62-4.23l4.52-.43a3.13,3.13,0,0,0,1.3,2,4.45,4.45,0,0,0,2.59.68,4.62,4.62,0,0,0,2.66-.68,2,2,0,0,0,1-1.67,1.73,1.73,0,0,0-.64-1.39,4.67,4.67,0,0,0-2-.85l-3.35-.7a7.91,7.91,0,0,1-4.18-2,4.84,4.84,0,0,1-1.34-3.55,5,5,0,0,1,1-3.15,6.52,6.52,0,0,1,2.8-2.07,10.9,10.9,0,0,1,4.15-.73,9,9,0,0,1,5.44,1.47A6.14,6.14,0,0,1,1275.36,837.54Z"/><path class="cls-3" d="M1289.41,832.35v3.58h-11.29v-3.58Zm-8.5-4.7h4.63v18.43a2.92,2.92,0,0,0,.28,1.43,1.51,1.51,0,0,0,.77.67,2.87,2.87,0,0,0,1,.18,4,4,0,0,0,.8-.07l.56-.11.78,3.62c-.25.08-.6.18-1.06.28a9.14,9.14,0,0,1-1.66.18,7.71,7.71,0,0,1-3.14-.53,4.77,4.77,0,0,1-2.2-1.81,5.38,5.38,0,0,1-.8-3.07Z"/><path class="cls-3" d="M1301.77,852.37a10,10,0,0,1-5.09-1.23,8.19,8.19,0,0,1-3.29-3.5,13,13,0,0,1,0-10.68,8.72,8.72,0,0,1,3.24-3.58,9.11,9.11,0,0,1,4.9-1.28,10,10,0,0,1,3.43.58,8,8,0,0,1,2.87,1.79,8.49,8.49,0,0,1,2,3.09,12.46,12.46,0,0,1,.71,4.46v1.42h-16.09v-3.12h11.66a5,5,0,0,0-.58-2.37,4.13,4.13,0,0,0-1.56-1.65,4.48,4.48,0,0,0-2.34-.6,4.52,4.52,0,0,0-2.49.69,4.71,4.71,0,0,0-1.67,1.79,5.07,5.07,0,0,0-.6,2.42v2.72a6.31,6.31,0,0,0,.62,2.93,4.4,4.4,0,0,0,1.75,1.87,5.22,5.22,0,0,0,2.64.65,5.47,5.47,0,0,0,1.82-.29,4,4,0,0,0,1.42-.85,3.58,3.58,0,0,0,.91-1.39l4.32.48a6.76,6.76,0,0,1-1.55,3,7.62,7.62,0,0,1-2.92,2A11.2,11.2,0,0,1,1301.77,852.37Z"/><path class="cls-3" d="M1314.42,852V832.35h4.48v3.27h.21A4.9,4.9,0,0,1,1321,833a5,5,0,0,1,3-.93l.87,0a6.67,6.67,0,0,1,.8.1v4.26a5.43,5.43,0,0,0-.93-.19,10.4,10.4,0,0,0-1.22-.08,4.7,4.7,0,0,0-2.27.54,4,4,0,0,0-1.58,1.5,4.26,4.26,0,0,0-.58,2.21V852Z"/><path class="cls-3" d="M1337.84,852V825.81h10a10.92,10.92,0,0,1,4.72.89,6.41,6.41,0,0,1,2.83,2.42,6.57,6.57,0,0,1,.94,3.48,5.61,5.61,0,0,1-.62,2.72,5.14,5.14,0,0,1-1.65,1.84,7.06,7.06,0,0,1-2.31,1v.25a5.94,5.94,0,0,1,2.68.85,6,6,0,0,1,2.1,2.18,6.65,6.65,0,0,1,.82,3.41,6.89,6.89,0,0,1-1,3.64,6.78,6.78,0,0,1-3,2.56,11.73,11.73,0,0,1-5,.93Zm4.74-15h4.69a5.23,5.23,0,0,0,2.21-.45,3.68,3.68,0,0,0,1.56-1.29,3.52,3.52,0,0,0,.56-2,3.26,3.26,0,0,0-1.06-2.51,4.56,4.56,0,0,0-3.17-1h-4.79Zm0,11.09h5.1a5.68,5.68,0,0,0,3.73-1,3.26,3.26,0,0,0,1.14-2.56,3.89,3.89,0,0,0-2.21-3.58,5.52,5.52,0,0,0-2.53-.54h-5.23Z"/><path class="cls-3" d="M1361.29,852V832.35h4.49v3.27h.21a4.89,4.89,0,0,1,1.84-2.62,5.08,5.08,0,0,1,3-.93l.86,0a6.41,6.41,0,0,1,.8.1v4.26a5.07,5.07,0,0,0-.92-.19,10.54,10.54,0,0,0-1.22-.08,4.7,4.7,0,0,0-2.27.54,4,4,0,0,0-1.58,1.5,4.17,4.17,0,0,0-.58,2.21V852Z"/><path class="cls-3" d="M1380.85,852.39a8,8,0,0,1-3.35-.68,5.36,5.36,0,0,1-2.35-2,5.77,5.77,0,0,1-.87-3.25,5.51,5.51,0,0,1,.62-2.75,4.8,4.8,0,0,1,1.67-1.74,8.9,8.9,0,0,1,2.4-1,18.84,18.84,0,0,1,2.77-.49c1.15-.12,2.08-.23,2.8-.33a4.08,4.08,0,0,0,1.56-.46,1.07,1.07,0,0,0,.49-1v-.07a2.9,2.9,0,0,0-.85-2.24,3.51,3.51,0,0,0-2.47-.79,4.43,4.43,0,0,0-2.69.74,3.67,3.67,0,0,0-1.34,1.75l-4.32-.61a6.92,6.92,0,0,1,1.69-3,7.39,7.39,0,0,1,2.88-1.82,11.17,11.17,0,0,1,3.75-.6,12.36,12.36,0,0,1,2.83.33,8.17,8.17,0,0,1,2.57,1.09,5.59,5.59,0,0,1,1.87,2.07,6.67,6.67,0,0,1,.71,3.26V852h-4.45v-2.7h-.15a5.62,5.62,0,0,1-1.18,1.53,5.88,5.88,0,0,1-1.91,1.14A7.72,7.72,0,0,1,1380.85,852.39Zm1.21-3.41a5,5,0,0,0,2.41-.55,4,4,0,0,0,1.58-1.48,3.81,3.81,0,0,0,.56-2v-2.31a2.16,2.16,0,0,1-.74.33,9.51,9.51,0,0,1-1.16.27l-1.26.21-1.09.15a8,8,0,0,0-1.85.46,3,3,0,0,0-1.29.89,2.45,2.45,0,0,0,.46,3.39A4,4,0,0,0,1382.06,849Z"/><path class="cls-3" d="M1400.52,840.48V852h-4.63V832.35h4.42v3.34h.23a5.62,5.62,0,0,1,2.17-2.62,6.58,6.58,0,0,1,3.69-1,7,7,0,0,1,3.54.87,6,6,0,0,1,2.36,2.51,8.77,8.77,0,0,1,.82,4V852h-4.63V840.2a4.43,4.43,0,0,0-1-3.08,3.63,3.63,0,0,0-2.81-1.11,4.31,4.31,0,0,0-2.15.53,3.62,3.62,0,0,0-1.47,1.53A5,5,0,0,0,1400.52,840.48Z"/><path class="cls-3" d="M1425.12,852.33a7.45,7.45,0,0,1-4.14-1.18,8.15,8.15,0,0,1-2.89-3.46,13,13,0,0,1-1.06-5.49,12.71,12.71,0,0,1,1.08-5.53,8,8,0,0,1,2.92-3.42,7.58,7.58,0,0,1,4.11-1.15,6.11,6.11,0,0,1,2.84.58,5.46,5.46,0,0,1,1.76,1.39,8.91,8.91,0,0,1,1,1.53h.19v-9.79h4.64V852H1431V848.9h-.28a7.6,7.6,0,0,1-1,1.51,5.5,5.5,0,0,1-1.79,1.36A6.1,6.1,0,0,1,1425.12,852.33Zm1.3-3.79a4,4,0,0,0,2.5-.8,4.86,4.86,0,0,0,1.57-2.23,10.6,10.6,0,0,0,0-6.65,4.72,4.72,0,0,0-1.56-2.19,4,4,0,0,0-2.52-.78,4.09,4.09,0,0,0-2.59.81,4.92,4.92,0,0,0-1.56,2.22,9.35,9.35,0,0,0-.52,3.25,9.52,9.52,0,0,0,.53,3.28,5,5,0,0,0,1.57,2.26A4,4,0,0,0,1426.42,848.54Z"/><path class="cls-3" d="M1450.35,841v-4H1468v4Zm6.84,6.84V830.1h4v17.7Z"/><path class="cls-3" d="M1482.82,852V825.81h17v4h-12.29v7.11H1499v4h-11.4V848H1500v4Z"/><path class="cls-3" d="M1509.12,825.81V852h-4.63V825.81Z"/><path class="cls-3" d="M1522.56,852.37a10.07,10.07,0,0,1-5.09-1.23,8.24,8.24,0,0,1-3.29-3.5,13,13,0,0,1,0-10.68,8.85,8.85,0,0,1,3.24-3.58,9.13,9.13,0,0,1,4.9-1.28,10,10,0,0,1,3.43.58,8,8,0,0,1,2.87,1.79,8.49,8.49,0,0,1,2,3.09,12.45,12.45,0,0,1,.72,4.46v1.42h-16.1v-3.12h11.66a5,5,0,0,0-.58-2.37,4.13,4.13,0,0,0-1.56-1.65,4.48,4.48,0,0,0-2.34-.6,4.52,4.52,0,0,0-2.49.69,4.79,4.79,0,0,0-1.67,1.79,5.07,5.07,0,0,0-.6,2.42v2.72a6.43,6.43,0,0,0,.62,2.93,4.4,4.4,0,0,0,1.75,1.87,5.22,5.22,0,0,0,2.64.65,5.57,5.57,0,0,0,1.83-.29,4.17,4.17,0,0,0,1.42-.85,3.56,3.56,0,0,0,.9-1.39l4.32.48a6.76,6.76,0,0,1-1.55,3,7.62,7.62,0,0,1-2.92,2A11.2,11.2,0,0,1,1522.56,852.37Z"/><path class="cls-3" d="M1535.21,852V832.35h4.42v3.34h.23a5.23,5.23,0,0,1,2-2.64,5.92,5.92,0,0,1,3.39-.95,5.75,5.75,0,0,1,3.37,1,5.16,5.16,0,0,1,1.94,2.63h.2a5.46,5.46,0,0,1,2.21-2.62,6.76,6.76,0,0,1,3.68-1,6,6,0,0,1,4.43,1.71,6.78,6.78,0,0,1,1.71,5V852h-4.64V839.52a3.35,3.35,0,0,0-1-2.67,3.47,3.47,0,0,0-2.38-.85,3.3,3.3,0,0,0-2.61,1,3.85,3.85,0,0,0-.94,2.7V852h-4.54V839.33a3.29,3.29,0,0,0-.92-2.43,3.24,3.24,0,0,0-2.38-.9,3.39,3.39,0,0,0-1.82.5,3.65,3.65,0,0,0-1.3,1.42,4.52,4.52,0,0,0-.49,2.13V852Z"/><path class="cls-3" d="M1576.22,852.37a10.08,10.08,0,0,1-5.1-1.23,8.31,8.31,0,0,1-3.29-3.5,12.92,12.92,0,0,1,0-10.68,8.72,8.72,0,0,1,3.24-3.58,9.11,9.11,0,0,1,4.9-1.28,10,10,0,0,1,3.43.58,8,8,0,0,1,2.86,1.79,8.36,8.36,0,0,1,2,3.09A12.45,12.45,0,0,1,1585,842v1.42h-16.1v-3.12h11.66a5.06,5.06,0,0,0-.57-2.37,4.23,4.23,0,0,0-1.57-1.65,4.83,4.83,0,0,0-4.82.09,4.63,4.63,0,0,0-1.67,1.79,5.08,5.08,0,0,0-.61,2.42v2.72a6.31,6.31,0,0,0,.63,2.93,4.4,4.4,0,0,0,1.75,1.87,5.21,5.21,0,0,0,2.63.65,5.49,5.49,0,0,0,1.83-.29,4,4,0,0,0,1.42-.85,3.7,3.7,0,0,0,.91-1.39l4.32.48a6.76,6.76,0,0,1-1.55,3,7.66,7.66,0,0,1-2.93,2A11.15,11.15,0,0,1,1576.22,852.37Z"/><path class="cls-3" d="M1593.49,840.48V852h-4.63V832.35h4.43v3.34h.23a5.6,5.6,0,0,1,2.16-2.62,6.61,6.61,0,0,1,3.69-1,7,7,0,0,1,3.55.87,6,6,0,0,1,2.35,2.51,8.65,8.65,0,0,1,.82,4V852h-4.62V840.2a4.39,4.39,0,0,0-1-3.08,3.62,3.62,0,0,0-2.81-1.11,4.34,4.34,0,0,0-2.15.53,3.62,3.62,0,0,0-1.47,1.53A5.11,5.11,0,0,0,1593.49,840.48Z"/><path class="cls-3" d="M1620.62,832.35v3.58h-11.29v-3.58Zm-8.5-4.7h4.62v18.43a2.91,2.91,0,0,0,.29,1.43,1.49,1.49,0,0,0,.76.67,3,3,0,0,0,1,.18,4,4,0,0,0,.8-.07l.56-.11.78,3.62c-.25.08-.6.18-1.06.28a9.27,9.27,0,0,1-1.67.18,7.66,7.66,0,0,1-3.13-.53,4.77,4.77,0,0,1-2.2-1.81,5.3,5.3,0,0,1-.8-3.07Z"/><path class="cls-3" d="M1639.14,852l-7.39-26.18h5.1l4.72,19.24h.24l5-19.24h4.64l5,19.25h.23l4.72-19.25h5.1L1659.2,852h-4.68l-5.24-18.37h-.21L1643.82,852Z"/><path class="cls-3" d="M1676.21,852.37a9.52,9.52,0,0,1-5-1.26,8.61,8.61,0,0,1-3.27-3.54,12.9,12.9,0,0,1,0-10.65,8.54,8.54,0,0,1,3.27-3.56,10.49,10.49,0,0,1,10,0,8.54,8.54,0,0,1,3.27,3.56,12.9,12.9,0,0,1,0,10.65,8.61,8.61,0,0,1-3.27,3.54A9.56,9.56,0,0,1,1676.21,852.37Zm0-3.7a4,4,0,0,0,2.61-.87,5.08,5.08,0,0,0,1.56-2.32,10.45,10.45,0,0,0,0-6.51,5.06,5.06,0,0,0-1.56-2.33,4,4,0,0,0-2.61-.87,4,4,0,0,0-2.65.87A5.1,5.1,0,0,0,1672,839a10.64,10.64,0,0,0,0,6.51,5.12,5.12,0,0,0,1.58,2.32A4,4,0,0,0,1676.24,848.67Z"/><path class="cls-3" d="M1689.54,852V832.35H1694v3.27h.21a4.89,4.89,0,0,1,1.84-2.62,5.08,5.08,0,0,1,3-.93l.86,0a6.41,6.41,0,0,1,.8.1v4.26a5.07,5.07,0,0,0-.92-.19,10.54,10.54,0,0,0-1.22-.08,4.7,4.7,0,0,0-2.27.54,4,4,0,0,0-1.58,1.5,4.17,4.17,0,0,0-.58,2.21V852Z"/><path class="cls-3" d="M1710.28,852.33a7.45,7.45,0,0,1-4.14-1.18,8.15,8.15,0,0,1-2.89-3.46,14.72,14.72,0,0,1,0-11,8,8,0,0,1,2.92-3.42,7.58,7.58,0,0,1,4.11-1.15,6,6,0,0,1,2.83.58,5.5,5.5,0,0,1,1.77,1.39,8.91,8.91,0,0,1,1,1.53h.19v-9.79h4.64V852h-4.55V848.9h-.28a7.6,7.6,0,0,1-1,1.51,5.5,5.5,0,0,1-1.79,1.36A6.1,6.1,0,0,1,1710.28,852.33Zm1.3-3.79a4,4,0,0,0,2.5-.8,4.93,4.93,0,0,0,1.57-2.23,10.6,10.6,0,0,0,0-6.65,4.72,4.72,0,0,0-1.56-2.19,4.5,4.5,0,0,0-5.11,0,4.92,4.92,0,0,0-1.56,2.22,9.35,9.35,0,0,0-.52,3.25,9.52,9.52,0,0,0,.53,3.28,5,5,0,0,0,1.57,2.26A4,4,0,0,0,1711.58,848.54Z"/><path class="cls-3" d="M1730.32,825.81V852h-4.63V825.81Z"/><path class="cls-3" d="M1743.64,852.37a9.56,9.56,0,0,1-5-1.26,8.65,8.65,0,0,1-3.26-3.54,12.8,12.8,0,0,1,0-10.65,8.58,8.58,0,0,1,3.26-3.56,10.49,10.49,0,0,1,10,0,8.54,8.54,0,0,1,3.27,3.56,12.8,12.8,0,0,1,0,10.65,8.61,8.61,0,0,1-3.27,3.54A9.52,9.52,0,0,1,1743.64,852.37Zm0-3.7a4,4,0,0,0,2.61-.87,5.18,5.18,0,0,0,1.57-2.32,10.64,10.64,0,0,0,0-6.51,5.16,5.16,0,0,0-1.57-2.33,4,4,0,0,0-2.61-.87,4,4,0,0,0-2.65.87,5.08,5.08,0,0,0-1.57,2.33,10.45,10.45,0,0,0,0,6.51,5.1,5.1,0,0,0,1.57,2.32A4,4,0,0,0,1743.66,848.67Z"/><path class="cls-3" d="M1765.52,852.37a9.44,9.44,0,0,1-5-1.29,8.53,8.53,0,0,1-3.23-3.57,12.72,12.72,0,0,1,0-10.55,8.69,8.69,0,0,1,3.26-3.58,9.32,9.32,0,0,1,5-1.28,9.89,9.89,0,0,1,4.24.87,7.21,7.21,0,0,1,4.2,6.18h-4.43a4.31,4.31,0,0,0-1.27-2.37,3.75,3.75,0,0,0-2.68-.95,4.17,4.17,0,0,0-2.49.76,4.91,4.91,0,0,0-1.67,2.18,8.73,8.73,0,0,0-.59,3.4,9.16,9.16,0,0,0,.58,3.45,5.12,5.12,0,0,0,1.66,2.21,4.2,4.2,0,0,0,2.51.77,4.24,4.24,0,0,0,1.84-.39,3.7,3.7,0,0,0,1.36-1.13,4.37,4.37,0,0,0,.75-1.8h4.43a7.75,7.75,0,0,1-1.23,3.69,7.19,7.19,0,0,1-2.89,2.5A9.63,9.63,0,0,1,1765.52,852.37Z"/><path class="cls-3" d="M1777.74,852V825.81h4.63V852Zm4.22-6.16v-5.59h.74l7.06-7.89h5.41l-8.68,9.67h-1Zm8.11,6.16-6.39-8.94,3.11-3.26,8.81,12.2Z"/><line class="cls-2" x1="2324" y1="1126.62" x2="1674.53" y2="1126.62"/><rect class="cls-3" x="2323" y="1120.12" width="2" height="13"/><rect class="cls-3" x="1673.53" y="1120.12" width="2" height="13"/><path class="cls-3" d="M1788.12,1192.27v-26.18h17v4h-12.28v7.11h11.4v4h-11.4v7.14h12.39v4Z"/><path class="cls-3" d="M1814.42,1166.09v26.18h-4.63v-26.18Z"/><path class="cls-3" d="M1827.87,1192.65a10,10,0,0,1-5.09-1.23,8.27,8.27,0,0,1-3.3-3.5,12.92,12.92,0,0,1,0-10.68,8.72,8.72,0,0,1,3.24-3.58,9.2,9.2,0,0,1,4.9-1.28,10,10,0,0,1,3.43.58,7.88,7.88,0,0,1,2.86,1.8,8.46,8.46,0,0,1,2,3.08,12.68,12.68,0,0,1,.71,4.46v1.42h-16.09v-3.12h11.66a5,5,0,0,0-.58-2.37,4.16,4.16,0,0,0-1.57-1.65,4.42,4.42,0,0,0-2.33-.6,4.52,4.52,0,0,0-2.49.69,4.71,4.71,0,0,0-1.67,1.79,5.08,5.08,0,0,0-.61,2.42v2.72a6.38,6.38,0,0,0,.63,2.94,4.43,4.43,0,0,0,1.75,1.86,5.21,5.21,0,0,0,2.63.65,5.49,5.49,0,0,0,1.83-.29,3.85,3.85,0,0,0,1.42-.85,3.62,3.62,0,0,0,.91-1.39l4.32.48a6.76,6.76,0,0,1-1.55,3,7.69,7.69,0,0,1-2.92,2A11.2,11.2,0,0,1,1827.87,1192.65Z"/><path class="cls-3" d="M1840.51,1192.27v-19.64h4.43V1176h.23a5.18,5.18,0,0,1,2-2.64,6,6,0,0,1,3.39-.95,5.75,5.75,0,0,1,3.37,1,5.15,5.15,0,0,1,1.93,2.63h.21a5.37,5.37,0,0,1,2.2-2.61,6.74,6.74,0,0,1,3.69-1,6,6,0,0,1,4.42,1.71,6.74,6.74,0,0,1,1.72,5v13.18h-4.64v-12.46a3.4,3.4,0,0,0-1-2.68,3.47,3.47,0,0,0-2.38-.85,3.33,3.33,0,0,0-2.62,1,3.91,3.91,0,0,0-.94,2.7v12.25H1852v-12.66a3.28,3.28,0,0,0-.91-2.43,3.24,3.24,0,0,0-2.38-.9,3.46,3.46,0,0,0-1.82.5,3.65,3.65,0,0,0-1.3,1.42,4.41,4.41,0,0,0-.49,2.13v11.94Z"/><path class="cls-3" d="M1881.52,1192.65a10.07,10.07,0,0,1-5.09-1.23,8.24,8.24,0,0,1-3.29-3.5,13,13,0,0,1,0-10.68,8.81,8.81,0,0,1,3.25-3.58,9.16,9.16,0,0,1,4.89-1.28,10,10,0,0,1,3.43.58,7.92,7.92,0,0,1,2.87,1.8,8.45,8.45,0,0,1,2,3.08,12.45,12.45,0,0,1,.72,4.46v1.42h-16.1v-3.12h11.66a5.06,5.06,0,0,0-.57-2.37,4.23,4.23,0,0,0-1.57-1.65,4.47,4.47,0,0,0-2.33-.6,4.53,4.53,0,0,0-2.5.69,4.79,4.79,0,0,0-1.67,1.79,5.19,5.19,0,0,0-.6,2.42v2.72a6.51,6.51,0,0,0,.62,2.94,4.46,4.46,0,0,0,1.76,1.86,5.18,5.18,0,0,0,2.63.65,5.57,5.57,0,0,0,1.83-.29,3.93,3.93,0,0,0,1.42-.85,3.49,3.49,0,0,0,.9-1.39l4.32.48a6.76,6.76,0,0,1-1.55,3,7.62,7.62,0,0,1-2.92,2A11.16,11.16,0,0,1,1881.52,1192.65Z"/><path class="cls-3" d="M1898.8,1180.76v11.51h-4.63v-19.64h4.42V1176h.23a5.62,5.62,0,0,1,2.17-2.62,6.58,6.58,0,0,1,3.69-1,7,7,0,0,1,3.54.87,5.94,5.94,0,0,1,2.36,2.52,8.73,8.73,0,0,1,.82,4v12.5h-4.63v-11.79a4.43,4.43,0,0,0-1-3.08,3.63,3.63,0,0,0-2.81-1.11,4.31,4.31,0,0,0-2.15.53,3.62,3.62,0,0,0-1.47,1.53A5,5,0,0,0,1898.8,1180.76Z"/><path class="cls-3" d="M1925.92,1172.63v3.58h-11.28v-3.58Zm-8.5-4.7h4.63v18.43a2.88,2.88,0,0,0,.29,1.43,1.45,1.45,0,0,0,.76.67,2.89,2.89,0,0,0,1.05.18,5,5,0,0,0,.8-.06l.55-.12.78,3.62c-.25.08-.6.18-1,.28a9.37,9.37,0,0,1-1.67.18,7.5,7.5,0,0,1-3.13-.53,4.8,4.8,0,0,1-2.21-1.81,5.38,5.38,0,0,1-.8-3.07Z"/><path class="cls-3" d="M1938.94,1192.27v-26.18h10a10.92,10.92,0,0,1,4.72.89,6.41,6.41,0,0,1,2.83,2.42,6.48,6.48,0,0,1,.94,3.48,5.67,5.67,0,0,1-.62,2.73,5.07,5.07,0,0,1-1.64,1.83,6.91,6.91,0,0,1-2.32,1v.26a5.7,5.7,0,0,1,2.68.85,5.87,5.87,0,0,1,2.1,2.18,6.59,6.59,0,0,1,.82,3.4,7,7,0,0,1-1,3.65,6.82,6.82,0,0,1-3,2.55,11.71,11.71,0,0,1-5,.93Zm4.74-15h4.69a5.23,5.23,0,0,0,2.21-.45,3.68,3.68,0,0,0,1.56-1.29,3.45,3.45,0,0,0,.57-2,3.29,3.29,0,0,0-1.07-2.51,4.56,4.56,0,0,0-3.17-1h-4.79Zm0,11.09h5.1a5.68,5.68,0,0,0,3.73-1,3.22,3.22,0,0,0,1.14-2.55,4,4,0,0,0-.57-2.11,4.07,4.07,0,0,0-1.64-1.48,5.52,5.52,0,0,0-2.53-.54h-5.23Z"/><path class="cls-3" d="M1962.4,1192.27v-19.64h4.48v3.28h.21a4.93,4.93,0,0,1,1.84-2.63,5.08,5.08,0,0,1,3-.93l.87,0c.32,0,.58.06.79.1v4.26a5.07,5.07,0,0,0-.92-.19,10.4,10.4,0,0,0-1.22-.08,4.7,4.7,0,0,0-2.27.54,4.07,4.07,0,0,0-1.58,1.5,4.18,4.18,0,0,0-.58,2.22v11.54Z"/><path class="cls-3" d="M1982,1192.67a8.19,8.19,0,0,1-3.36-.67,5.45,5.45,0,0,1-2.35-2,5.77,5.77,0,0,1-.87-3.25,5.54,5.54,0,0,1,.62-2.75,4.8,4.8,0,0,1,1.67-1.74,8.9,8.9,0,0,1,2.4-1,20.26,20.26,0,0,1,2.77-.49c1.15-.12,2.08-.23,2.8-.33a3.86,3.86,0,0,0,1.56-.46,1.07,1.07,0,0,0,.5-1V1179a2.92,2.92,0,0,0-.86-2.24,3.49,3.49,0,0,0-2.47-.79,4.43,4.43,0,0,0-2.69.74,3.73,3.73,0,0,0-1.34,1.75l-4.32-.61a7,7,0,0,1,1.69-3,7.44,7.44,0,0,1,2.88-1.81,10.94,10.94,0,0,1,3.76-.61,12.34,12.34,0,0,1,2.82.33,8.17,8.17,0,0,1,2.57,1.09,5.59,5.59,0,0,1,1.87,2.07,6.67,6.67,0,0,1,.71,3.26v13.14h-4.45v-2.7h-.15a5.62,5.62,0,0,1-1.18,1.53,5.77,5.77,0,0,1-1.91,1.14A7.71,7.71,0,0,1,1982,1192.67Zm1.2-3.4a5,5,0,0,0,2.41-.56,4,4,0,0,0,1.58-1.48,3.8,3.8,0,0,0,.56-2v-2.32a2.16,2.16,0,0,1-.74.33,8.12,8.12,0,0,1-1.15.27l-1.27.21-1.09.15a8.08,8.08,0,0,0-1.85.46,3,3,0,0,0-1.29.89,2.48,2.48,0,0,0,.46,3.39A4,4,0,0,0,1983.16,1189.27Z"/><path class="cls-3" d="M2001.62,1180.76v11.51H1997v-19.64h4.42V1176h.23a5.62,5.62,0,0,1,2.17-2.62,6.58,6.58,0,0,1,3.69-1,7,7,0,0,1,3.54.87,5.88,5.88,0,0,1,2.36,2.52,8.6,8.6,0,0,1,.82,4v12.5h-4.63v-11.79a4.38,4.38,0,0,0-1-3.08,3.63,3.63,0,0,0-2.81-1.11,4.31,4.31,0,0,0-2.15.53,3.62,3.62,0,0,0-1.47,1.53A5,5,0,0,0,2001.62,1180.76Z"/><path class="cls-3" d="M2026.23,1192.62a7.46,7.46,0,0,1-4.15-1.19,8.13,8.13,0,0,1-2.88-3.46,14.66,14.66,0,0,1,0-11,7.9,7.9,0,0,1,2.93-3.41,7.45,7.45,0,0,1,4.1-1.16,6.08,6.08,0,0,1,2.84.58,5.46,5.46,0,0,1,1.76,1.39,8.36,8.36,0,0,1,1,1.53h.19v-9.79h4.64v26.18h-4.55v-3.09h-.28a8,8,0,0,1-1,1.51,5.72,5.72,0,0,1-1.79,1.36A6.15,6.15,0,0,1,2026.23,1192.62Zm1.29-3.8a4,4,0,0,0,2.5-.8,5,5,0,0,0,1.58-2.23,9.71,9.71,0,0,0,.53-3.34,9.23,9.23,0,0,0-.53-3.31A4.72,4.72,0,0,0,2030,1177a4.49,4.49,0,0,0-5.1,0,4.84,4.84,0,0,0-1.56,2.22,9.35,9.35,0,0,0-.53,3.25,9.52,9.52,0,0,0,.53,3.28A5.09,5.09,0,0,0,2025,1188,4,4,0,0,0,2027.52,1188.82Z"/><path class="cls-3" d="M2056.28,1192.27l-7.39-26.18h5.1l4.72,19.24h.24l5-19.24h4.64l5,19.25h.23l4.72-19.25h5.1l-7.39,26.18h-4.68l-5.24-18.37h-.21l-5.25,18.37Z"/><path class="cls-3" d="M2093.36,1192.65a9.56,9.56,0,0,1-5-1.26,8.61,8.61,0,0,1-3.27-3.54,12.9,12.9,0,0,1,0-10.65,8.54,8.54,0,0,1,3.27-3.56,10.49,10.49,0,0,1,10,0,8.54,8.54,0,0,1,3.27,3.56,12.9,12.9,0,0,1,0,10.65,8.61,8.61,0,0,1-3.27,3.54A9.55,9.55,0,0,1,2093.36,1192.65Zm0-3.7a4,4,0,0,0,2.61-.87,5.08,5.08,0,0,0,1.56-2.32,9.49,9.49,0,0,0,.52-3.24,9.63,9.63,0,0,0-.52-3.27,5.12,5.12,0,0,0-1.56-2.33,4,4,0,0,0-2.61-.87,4,4,0,0,0-2.65.87,5.13,5.13,0,0,0-1.57,2.33,9.63,9.63,0,0,0-.52,3.27,9.49,9.49,0,0,0,.52,3.24,5.1,5.1,0,0,0,1.57,2.32A4,4,0,0,0,2093.38,1189Z"/><path class="cls-3" d="M2106.68,1192.27v-19.64h4.48v3.28h.21a4.93,4.93,0,0,1,1.84-2.63,5.08,5.08,0,0,1,3-.93l.87,0c.32,0,.58.06.8.1v4.26a5.43,5.43,0,0,0-.93-.19,10.4,10.4,0,0,0-1.22-.08,4.7,4.7,0,0,0-2.27.54,4.07,4.07,0,0,0-1.58,1.5,4.27,4.27,0,0,0-.58,2.22v11.54Z"/><path class="cls-3" d="M2127.42,1192.62a7.45,7.45,0,0,1-4.14-1.19,8.15,8.15,0,0,1-2.89-3.46,14.72,14.72,0,0,1,0-11,8,8,0,0,1,2.92-3.41,7.51,7.51,0,0,1,4.11-1.16,6,6,0,0,1,2.83.58,5.5,5.5,0,0,1,1.77,1.39,8.91,8.91,0,0,1,1,1.53h.19v-9.79h4.64v26.18h-4.55v-3.09h-.28a8.05,8.05,0,0,1-1,1.51,5.61,5.61,0,0,1-1.79,1.36A6.09,6.09,0,0,1,2127.42,1192.62Zm1.29-3.8a4,4,0,0,0,2.51-.8,4.93,4.93,0,0,0,1.57-2.23,10.6,10.6,0,0,0,0-6.65,4.72,4.72,0,0,0-1.56-2.19,4.5,4.5,0,0,0-5.11,0,4.92,4.92,0,0,0-1.56,2.22,9.35,9.35,0,0,0-.52,3.25,9.52,9.52,0,0,0,.53,3.28,5,5,0,0,0,1.57,2.26A4,4,0,0,0,2128.71,1188.82Z"/><path class="cls-3" d="M2147.46,1166.09v26.18h-4.63v-26.18Z"/><path class="cls-3" d="M2160.78,1192.65a9.56,9.56,0,0,1-5-1.26,8.58,8.58,0,0,1-3.26-3.54,12.8,12.8,0,0,1,0-10.65,8.51,8.51,0,0,1,3.26-3.56,10.49,10.49,0,0,1,10,0,8.54,8.54,0,0,1,3.27,3.56,12.8,12.8,0,0,1,0,10.65,8.61,8.61,0,0,1-3.27,3.54A9.52,9.52,0,0,1,2160.78,1192.65Zm0-3.7a4,4,0,0,0,2.61-.87,5.18,5.18,0,0,0,1.57-2.32,9.75,9.75,0,0,0,.51-3.24,9.89,9.89,0,0,0-.51-3.27,5.21,5.21,0,0,0-1.57-2.33,4,4,0,0,0-2.61-.87,4,4,0,0,0-2.65.87,5.13,5.13,0,0,0-1.57,2.33,9.63,9.63,0,0,0-.52,3.27,9.49,9.49,0,0,0,.52,3.24,5.1,5.1,0,0,0,1.57,2.32A4,4,0,0,0,2160.8,1189Z"/><path class="cls-3" d="M2182.66,1192.65a9.44,9.44,0,0,1-5-1.29,8.62,8.62,0,0,1-3.24-3.57,12.77,12.77,0,0,1,0-10.55,8.69,8.69,0,0,1,3.26-3.58,9.41,9.41,0,0,1,5-1.28,9.89,9.89,0,0,1,4.24.87,7.34,7.34,0,0,1,2.94,2.47,7.44,7.44,0,0,1,1.26,3.71h-4.43a4.31,4.31,0,0,0-1.27-2.37,3.75,3.75,0,0,0-2.68-1,4.15,4.15,0,0,0-2.49.76,5,5,0,0,0-1.67,2.18,8.73,8.73,0,0,0-.59,3.4,9.16,9.16,0,0,0,.58,3.45,5.06,5.06,0,0,0,1.66,2.21,4.2,4.2,0,0,0,2.51.77,4.24,4.24,0,0,0,1.84-.39,3.61,3.61,0,0,0,1.36-1.13,4.45,4.45,0,0,0,.75-1.8h4.43a7.86,7.86,0,0,1-1.23,3.69,7.19,7.19,0,0,1-2.89,2.5A9.63,9.63,0,0,1,2182.66,1192.65Z"/><path class="cls-3" d="M2194.88,1192.27v-26.18h4.63v26.18Zm4.22-6.16v-5.59h.74l7.06-7.89h5.41l-8.68,9.67h-1Zm8.11,6.16-6.39-8.94,3.12-3.26,8.8,12.2Z"/><path d="M675,1076.73V927.92h55.8q17.16,0,28.82,6a41,41,0,0,1,17.65,16.67q6,10.73,6,25t-6.07,24.82a40.22,40.22,0,0,1-17.84,16.2q-11.77,5.7-28.92,5.7H690.69V999.85h36.12q10,0,16.42-2.79a19.52,19.52,0,0,0,9.48-8.21,26.56,26.56,0,0,0,3.09-13.34A27.58,27.58,0,0,0,752.68,962a20.17,20.17,0,0,0-9.52-8.57q-6.4-3-16.5-2.95H702v126.29Zm76.88-67.43,36.84,67.43H758.63l-36.18-67.43Z"/><path d="M845.85,1078.91q-16.35,0-28.34-7.19A48.64,48.64,0,0,1,799,1051.59q-6.59-12.93-6.58-30.23t6.58-30.3a48.52,48.52,0,0,1,18.56-20.2q12-7.18,28.34-7.19t28.34,7.19a48.61,48.61,0,0,1,18.57,20.2q6.57,13,6.57,30.3t-6.57,30.23a48.73,48.73,0,0,1-18.57,20.13Q862.21,1078.91,845.85,1078.91Zm.15-21.07q8.87,0,14.82-4.91a29.34,29.34,0,0,0,8.9-13.18,59.58,59.58,0,0,0,0-37,29.65,29.65,0,0,0-8.9-13.26q-6-4.94-14.82-4.94-9.09,0-15.08,4.94a29.56,29.56,0,0,0-8.94,13.26,59.77,59.77,0,0,0,0,37,29.25,29.25,0,0,0,8.94,13.18Q836.92,1057.84,846,1057.84Z"/><path d="M913.38,1076.73V965.12h25.14v19h1.31a29.8,29.8,0,0,1,11.55-15q8.07-5.42,19.26-5.41t19.14,5.48a29.13,29.13,0,0,1,11,14.94H1002a30.59,30.59,0,0,1,12.53-14.86q8.84-5.57,21-5.56,15.4,0,25.14,9.74t9.74,28.41v74.91H1044v-70.84q0-10.39-5.52-15.23a19.81,19.81,0,0,0-13.51-4.83q-9.53,0-14.86,5.92t-5.34,15.37v69.61h-25.8V1004.8q0-8.65-5.19-13.81t-13.56-5.16a19.28,19.28,0,0,0-10.31,2.87,20.7,20.7,0,0,0-7.42,8.07,25.38,25.38,0,0,0-2.76,12.09v67.87Z"/><path d="M1121,1079a46,46,0,0,1-19.07-3.81,30.61,30.61,0,0,1-13.37-11.3q-4.9-7.48-4.91-18.46,0-9.44,3.49-15.62a27.09,27.09,0,0,1,9.52-9.88,48.61,48.61,0,0,1,13.62-5.63,113.24,113.24,0,0,1,15.73-2.8q9.81-1,15.92-1.85c4.07-.56,7-1.43,8.9-2.62a6.12,6.12,0,0,0,2.8-5.56V1001c0-5.48-1.63-9.71-4.87-12.72s-7.92-4.5-14-4.5q-9.66,0-15.29,4.21a20.75,20.75,0,0,0-7.59,10l-24.56-3.49a39.4,39.4,0,0,1,9.59-17,42.15,42.15,0,0,1,16.35-10.32,63.13,63.13,0,0,1,21.36-3.45,69.57,69.57,0,0,1,16.06,1.89,45.68,45.68,0,0,1,14.6,6.21,31.92,31.92,0,0,1,10.65,11.74q4,7.41,4,18.52v74.7h-25.29V1061.4h-.87a31.77,31.77,0,0,1-17.55,15.15A43.39,43.39,0,0,1,1121,1079Zm6.83-19.32a28.27,28.27,0,0,0,13.73-3.17,23,23,0,0,0,9-8.39,21.64,21.64,0,0,0,3.16-11.41v-13.15a12.38,12.38,0,0,1-4.18,1.89,62.56,62.56,0,0,1-6.58,1.53q-3.63.64-7.19,1.16l-6.17.87a46.3,46.3,0,0,0-10.54,2.62,17.6,17.6,0,0,0-7.34,5.05A12.58,12.58,0,0,0,1109,1045q0,7.26,5.31,11T1127.83,1059.66Z"/><path d="M1224.57,1011.34v65.39h-26.3V965.12h25.14v19h1.31a31.79,31.79,0,0,1,12.31-14.9q8.46-5.52,21-5.52a39.84,39.84,0,0,1,20.16,4.94,33.57,33.57,0,0,1,13.37,14.31q4.76,9.38,4.68,22.75v71.06h-26.3v-67q0-11.19-5.78-17.51t-15.94-6.33a24.48,24.48,0,0,0-12.25,3,21.06,21.06,0,0,0-8.35,8.68A28.81,28.81,0,0,0,1224.57,1011.34Z"/><path d="M1314.84,1076.73V927.92h26.31v148.81Zm24-35-.07-31.76H1343l40.11-44.83h30.74l-49.34,54.93H1359Zm46.07,35-36.33-50.79,17.73-18.53,50.06,69.32Z"/><path d="M1436.29,949.28a15.19,15.19,0,0,1-10.76-4.21,13.55,13.55,0,0,1,0-20.17,15.95,15.95,0,0,1,21.55,0,13.62,13.62,0,0,1,0,20.16A15.22,15.22,0,0,1,1436.29,949.28Zm-13.23,127.45V965.12h26.3v111.61Z"/><path d="M1491.24,1076.73l-31.53-111.61h26.81l19.62,78.48h1l20-78.48h26.52l20.06,78h1.09l19.32-78h26.89l-31.61,111.61h-27.39l-20.93-75.42h-1.52l-20.93,75.42Z"/><path d="M1796.77,974.42h-13.66a43.41,43.41,0,0,0-5.49-14.13,44.31,44.31,0,0,0-9.92-11.37,44.85,44.85,0,0,0-13.52-7.56,48.41,48.41,0,0,0-16.34-2.69,47.07,47.07,0,0,0-25.69,7.34q-11.6,7.34-18.53,21.55t-6.94,34.77q0,20.7,6.94,34.87t18.53,21.48a47.29,47.29,0,0,0,25.69,7.3,48.41,48.41,0,0,0,16.34-2.69,45.4,45.4,0,0,0,13.52-7.52,43.76,43.76,0,0,0,15.41-25.54h13.66a59.91,59.91,0,0,1-6.8,19.07,57.17,57.17,0,0,1-30.26,25.76,62.28,62.28,0,0,1-21.87,3.71q-18.75,0-33.28-9.41t-22.78-26.56q-8.25-17.15-8.25-40.47t8.25-40.48q8.25-17.15,22.78-26.56t33.28-9.41a63,63,0,0,1,21.87,3.67,56.58,56.58,0,0,1,17.62,10.32A58.36,58.36,0,0,1,1790,955.31,59.62,59.62,0,0,1,1796.77,974.42Z"/><path d="M1824.62,945.94a9.5,9.5,0,0,1-6.83-2.73,9,9,0,0,1,0-13.15,9.88,9.88,0,0,1,13.62,0,8.79,8.79,0,0,1,2.83,6.58,8.69,8.69,0,0,1-2.87,6.57A9.5,9.5,0,0,1,1824.62,945.94ZM1818,1076.73V965.12h13v111.61Z"/><path d="M1870.06,1007v69.75h-12.93V965.12h12.57v17.51h1.16a31.51,31.51,0,0,1,12.24-13.77q8.33-5.19,20.6-5.19a40.42,40.42,0,0,1,19.8,4.69,32.38,32.38,0,0,1,13.3,13.76q4.76,9.09,4.76,22.31v72.3h-12.93v-71.5q0-13.72-7.67-21.72t-20.53-8a31.71,31.71,0,0,0-15.62,3.78A27.43,27.43,0,0,0,1874,990.15,34,34,0,0,0,1870.06,1007Z"/><path d="M2012.65,1079.06q-15.63,0-27-7.31a48,48,0,0,1-17.62-20.27q-6.21-13-6.21-29.9t6.21-30A50,50,0,0,1,1985.22,971a44.41,44.41,0,0,1,25.47-7.44,47.63,47.63,0,0,1,17.51,3.3,43.59,43.59,0,0,1,15.15,10.1A48.34,48.34,0,0,1,2054,994.08q3.93,10.27,3.93,24.3v6.4h-87.2v-11.41h74a42.56,42.56,0,0,0-4.32-19.36,34.3,34.3,0,0,0-12-13.63A33.69,33.69,0,0,0,1992,981a38.65,38.65,0,0,0-12.6,15,46.47,46.47,0,0,0-4.62,20.35v6.83q0,13.29,4.62,23.21a35.44,35.44,0,0,0,13.11,15.37q8.51,5.46,20.13,5.45a36.21,36.21,0,0,0,13.91-2.47,29.67,29.67,0,0,0,10.1-6.65,29.26,29.26,0,0,0,6.22-9.19l12.28,4a36.41,36.41,0,0,1-8.32,13,42.53,42.53,0,0,1-14.39,9.56A51,51,0,0,1,2012.65,1079.06Z"/><path d="M2078.14,1076.73V965.12h12.57v17.15h1.17A27.44,27.44,0,0,1,2103,968.65q7.8-5,18.78-5,11.55,0,19,5.41A32.56,32.56,0,0,1,2152,983.94h.94a31.12,31.12,0,0,1,12.32-14.79q8.54-5.48,20.74-5.48,15.56,0,24.56,9.77t9,28.52v74.77h-12.93V1002q0-13.22-6.76-19.84t-17.8-6.61q-12.8,0-19.69,7.85t-6.91,19.91v73.46h-13.22V1000.8q0-11.34-6.32-18.31t-17.8-7a25.9,25.9,0,0,0-13.85,3.78,26.51,26.51,0,0,0-9.66,10.5,32.76,32.76,0,0,0-3.52,15.44v71.5Z"/><path d="M2276.68,1079.27a42.57,42.57,0,0,1-18.46-4,31.85,31.85,0,0,1-13.29-11.48q-4.95-7.51-4.95-18.27a28.6,28.6,0,0,1,3.13-14,25.43,25.43,0,0,1,8.86-9.3,49.05,49.05,0,0,1,13.59-5.74,124.81,124.81,0,0,1,17.3-3.27q9.38-1.17,15.87-2a29,29,0,0,0,9.92-2.76,6.45,6.45,0,0,0,3.42-6.1v-2.62q0-11.4-6.8-18t-19.51-6.58q-12.06,0-19.65,5.31A29.28,29.28,0,0,0,2255.46,993l-12.28-4.43A36.54,36.54,0,0,1,2253.65,974a41.89,41.89,0,0,1,15-7.92,59.4,59.4,0,0,1,16.79-2.43,56.56,56.56,0,0,1,13.33,1.67,38.4,38.4,0,0,1,12.9,5.77,30,30,0,0,1,9.66,11.41q3.71,7.31,3.71,18.49v75.79h-12.93v-17.66h-.8a34.92,34.92,0,0,1-6.91,9.6,35.82,35.82,0,0,1-11.48,7.63A40.73,40.73,0,0,1,2276.68,1079.27Zm1.74-11.84a33.87,33.87,0,0,0,17.88-4.58,31.6,31.6,0,0,0,11.66-12.17,34.6,34.6,0,0,0,4.11-16.75V1017.8a12.75,12.75,0,0,1-4.84,2.47,64.8,64.8,0,0,1-7.77,1.93q-4.39.84-8.76,1.42l-7.84,1a72.65,72.65,0,0,0-16.14,3.64,23.37,23.37,0,0,0-10.24,6.79,16.82,16.82,0,0,0-3.56,11.08q0,10.17,7.26,15.73T2278.42,1067.43Z"/></g></g></svg>