<svg xmlns="http://www.w3.org/2000/svg" viewBox="0 0 3000 2000"><defs><style>.cls-1{fill:#f5f7f9;}.cls-2,.cls-4,.cls-5{fill:none;stroke:#0071e3;stroke-miterlimit:10;stroke-width:2px;}.cls-3{fill:#0071e3;}.cls-4{stroke-dasharray:5.16 5.16;}.cls-5{stroke-dasharray:4.87 4.87;}</style></defs><g id="Layer_2" data-name="Layer 2"><g id="Layer_1-2" data-name="Layer 1"><rect class="cls-1" width="3000" height="2000"/><line class="cls-2" x1="1620.09" y1="1126.62" x2="676" y2="1126.62"/><rect class="cls-3" x="1619.09" y="1120.12" width="2" height="13"/><rect class="cls-3" x="675" y="1120.12" width="2" height="13"/><line class="cls-2" x1="1621.09" y1="1126.62" x2="1623.59" y2="1126.62"/><line class="cls-4" x1="1628.75" y1="1126.62" x2="1667.45" y2="1126.62"/><line class="cls-2" x1="1670.03" y1="1126.62" x2="1672.53" y2="1126.62"/><rect class="cls-3" x="1671.53" y="1120.12" width="2" height="13"/><path class="cls-3" d="M866.87,1166.09v26.18h-4.74v-26.18Z"/><path class="cls-3" d="M876.44,1180.76v11.51h-4.62v-19.64h4.42V1176h.23a5.56,5.56,0,0,1,2.17-2.62,6.58,6.58,0,0,1,3.69-1,7,7,0,0,1,3.54.87,5.89,5.89,0,0,1,2.35,2.51,8.64,8.64,0,0,1,.83,4v12.5h-4.63v-11.79a4.43,4.43,0,0,0-1-3.08,3.63,3.63,0,0,0-2.81-1.11,4.31,4.31,0,0,0-2.15.53,3.7,3.7,0,0,0-1.48,1.53A5.11,5.11,0,0,0,876.44,1180.76Z"/><path class="cls-3" d="M903.57,1172.63v3.58H892.28v-3.58Zm-8.5-4.7h4.63v18.43a2.78,2.78,0,0,0,.29,1.43,1.45,1.45,0,0,0,.76.67,2.87,2.87,0,0,0,1,.18,4.92,4.92,0,0,0,.8-.06l.56-.12.78,3.62c-.25.08-.6.18-1.06.28a9.14,9.14,0,0,1-1.66.18,7.55,7.55,0,0,1-3.14-.53,4.82,4.82,0,0,1-2.2-1.81,5.38,5.38,0,0,1-.8-3.07Z"/><path class="cls-3" d="M915.93,1192.65a10,10,0,0,1-5.09-1.23,8.19,8.19,0,0,1-3.29-3.5,13,13,0,0,1,0-10.68,8.85,8.85,0,0,1,3.24-3.58,9.22,9.22,0,0,1,4.9-1.28,10,10,0,0,1,3.43.58,7.92,7.92,0,0,1,2.87,1.8,8.45,8.45,0,0,1,2,3.08,12.45,12.45,0,0,1,.72,4.46v1.42h-16.1v-3.12h11.66a5,5,0,0,0-.58-2.37,4.13,4.13,0,0,0-1.56-1.65,4.48,4.48,0,0,0-2.34-.6,4.52,4.52,0,0,0-2.49.69,4.79,4.79,0,0,0-1.67,1.79,5.19,5.19,0,0,0-.6,2.42v2.72a6.51,6.51,0,0,0,.62,2.94,4.43,4.43,0,0,0,1.75,1.86,5.22,5.22,0,0,0,2.64.65,5.57,5.57,0,0,0,1.83-.29,4,4,0,0,0,1.42-.85,3.49,3.49,0,0,0,.9-1.39l4.32.48a6.76,6.76,0,0,1-1.55,3,7.62,7.62,0,0,1-2.92,2A11.2,11.2,0,0,1,915.93,1192.65Z"/><path class="cls-3" d="M928.58,1192.27v-19.64h4.48v3.28h.21a4.89,4.89,0,0,1,1.85-2.63,5,5,0,0,1,3-.93l.87,0c.32,0,.58.06.8.1v4.26a5.43,5.43,0,0,0-.93-.19,10.4,10.4,0,0,0-1.22-.08,4.73,4.73,0,0,0-2.27.54,4,4,0,0,0-1.58,1.5,4.27,4.27,0,0,0-.57,2.22v11.54Z"/><path class="cls-3" d="M966.23,1173.29a3.48,3.48,0,0,0-1.51-2.61,5.82,5.82,0,0,0-3.43-.94,6.45,6.45,0,0,0-2.54.45,3.76,3.76,0,0,0-1.63,1.22,3,3,0,0,0-.57,1.75,2.56,2.56,0,0,0,.38,1.42,3.18,3.18,0,0,0,1,1,7.21,7.21,0,0,0,1.45.7,15.36,15.36,0,0,0,1.6.47l2.45.62a17.38,17.38,0,0,1,2.86.93,10.51,10.51,0,0,1,2.47,1.48,6.85,6.85,0,0,1,1.73,2.16,6.63,6.63,0,0,1,.64,3,7.06,7.06,0,0,1-1.18,4,7.68,7.68,0,0,1-3.39,2.72,13.31,13.31,0,0,1-5.37,1,13.63,13.63,0,0,1-5.3-1,7.88,7.88,0,0,1-3.5-2.76,8.17,8.17,0,0,1-1.36-4.42h4.67a4,4,0,0,0,.84,2.27,4.47,4.47,0,0,0,1.94,1.36,7.76,7.76,0,0,0,2.68.44,7.29,7.29,0,0,0,2.71-.46,4.37,4.37,0,0,0,1.84-1.31,3.15,3.15,0,0,0,.68-2,2.48,2.48,0,0,0-.61-1.69,4.45,4.45,0,0,0-1.64-1.13,16.89,16.89,0,0,0-2.46-.81l-3-.77a11.9,11.9,0,0,1-5.11-2.52,5.81,5.81,0,0,1-1.87-4.51,6.72,6.72,0,0,1,1.26-4,8.32,8.32,0,0,1,3.43-2.71,12.08,12.08,0,0,1,4.93-1,11.72,11.72,0,0,1,4.89,1,8.08,8.08,0,0,1,3.3,2.68,6.89,6.89,0,0,1,1.24,3.92Z"/><path class="cls-3" d="M983.85,1192.65a10.07,10.07,0,0,1-5.09-1.23,8.24,8.24,0,0,1-3.29-3.5,13,13,0,0,1,0-10.68,8.85,8.85,0,0,1,3.24-3.58,9.22,9.22,0,0,1,4.9-1.28,10,10,0,0,1,3.43.58,7.92,7.92,0,0,1,2.87,1.8,8.45,8.45,0,0,1,2,3.08,12.45,12.45,0,0,1,.72,4.46v1.42h-16.1v-3.12h11.66a5,5,0,0,0-.58-2.37,4.13,4.13,0,0,0-1.56-1.65,4.47,4.47,0,0,0-2.33-.6,4.53,4.53,0,0,0-2.5.69,4.79,4.79,0,0,0-1.67,1.79,5.07,5.07,0,0,0-.6,2.42v2.72a6.51,6.51,0,0,0,.62,2.94,4.46,4.46,0,0,0,1.76,1.86,5.18,5.18,0,0,0,2.63.65,5.57,5.57,0,0,0,1.83-.29,4,4,0,0,0,1.42-.85,3.49,3.49,0,0,0,.9-1.39l4.32.48a6.76,6.76,0,0,1-1.55,3,7.62,7.62,0,0,1-2.92,2A11.16,11.16,0,0,1,983.85,1192.65Z"/><path class="cls-3" d="M996.5,1192.27v-19.64h4.42V1176h.23a5.28,5.28,0,0,1,2-2.64,6,6,0,0,1,3.39-.95,5.75,5.75,0,0,1,3.37,1,5.16,5.16,0,0,1,1.94,2.63h.2a5.39,5.39,0,0,1,2.21-2.61,6.69,6.69,0,0,1,3.69-1,6,6,0,0,1,4.42,1.71,6.78,6.78,0,0,1,1.71,5v13.18h-4.64v-12.46a3.36,3.36,0,0,0-1-2.68,3.47,3.47,0,0,0-2.38-.85,3.3,3.3,0,0,0-2.61,1,3.86,3.86,0,0,0-.94,2.7v12.25H1008v-12.66a3.32,3.32,0,0,0-.91-2.43,3.27,3.27,0,0,0-2.39-.9,3.33,3.33,0,0,0-1.81.5,3.67,3.67,0,0,0-1.31,1.42,4.52,4.52,0,0,0-.48,2.13v11.94Z"/><path class="cls-3" d="M1031.14,1169.85a2.66,2.66,0,0,1-1.89-.75,2.38,2.38,0,0,1,0-3.54,2.8,2.8,0,0,1,3.79,0,2.36,2.36,0,0,1,.79,1.78,2.32,2.32,0,0,1-.79,1.77A2.68,2.68,0,0,1,1031.14,1169.85Zm-2.32,22.42v-19.64h4.62v19.64Z"/><path class="cls-3" d="M1038.4,1192.27v-26.18h10a11,11,0,0,1,4.72.89,6.41,6.41,0,0,1,2.83,2.42,6.57,6.57,0,0,1,.93,3.48,5.67,5.67,0,0,1-.61,2.73,5.19,5.19,0,0,1-1.65,1.83,6.86,6.86,0,0,1-2.31,1v.26a5.7,5.7,0,0,1,2.68.85,6,6,0,0,1,2.1,2.18,6.69,6.69,0,0,1,.82,3.4,6.87,6.87,0,0,1-1,3.65,6.74,6.74,0,0,1-3,2.55,11.76,11.76,0,0,1-5,.93Zm4.75-15h4.69a5.26,5.26,0,0,0,2.21-.45,3.65,3.65,0,0,0,1.55-1.29,3.45,3.45,0,0,0,.57-2,3.25,3.25,0,0,0-1.07-2.51,4.53,4.53,0,0,0-3.16-1h-4.79Zm0,11.09h5.1a5.63,5.63,0,0,0,3.72-1,3.21,3.21,0,0,0,1.15-2.56,3.91,3.91,0,0,0-.58-2.1,4,4,0,0,0-1.63-1.48,5.52,5.52,0,0,0-2.53-.54h-5.23Z"/><path class="cls-3" d="M1070.43,1192.65a9.56,9.56,0,0,1-5-1.26,8.65,8.65,0,0,1-3.26-3.54,12.8,12.8,0,0,1,0-10.65,8.58,8.58,0,0,1,3.26-3.56,10.49,10.49,0,0,1,10,0,8.54,8.54,0,0,1,3.27,3.56,12.8,12.8,0,0,1,0,10.65,8.61,8.61,0,0,1-3.27,3.54A9.5,9.5,0,0,1,1070.43,1192.65Zm0-3.7a4,4,0,0,0,2.61-.87,5.18,5.18,0,0,0,1.57-2.32,9.76,9.76,0,0,0,.52-3.25,9.86,9.86,0,0,0-.52-3.26,5.21,5.21,0,0,0-1.57-2.33,4,4,0,0,0-2.61-.87,4,4,0,0,0-2.65.87,5.13,5.13,0,0,0-1.57,2.33,9.61,9.61,0,0,0-.52,3.26,9.51,9.51,0,0,0,.52,3.25,5.1,5.1,0,0,0,1.57,2.32A4,4,0,0,0,1070.45,1189Z"/><path class="cls-3" d="M1088.38,1166.09v26.18h-4.63v-26.18Z"/><path class="cls-3" d="M1100.42,1192.61a7.45,7.45,0,0,1-4.14-1.18,8.08,8.08,0,0,1-2.89-3.46,14.72,14.72,0,0,1,0-11,8,8,0,0,1,2.92-3.42,7.53,7.53,0,0,1,4.1-1.15,6.08,6.08,0,0,1,2.84.58,5.46,5.46,0,0,1,1.76,1.39,8.36,8.36,0,0,1,1,1.53h.2v-9.79h4.64v26.18h-4.56v-3.09H1106a8,8,0,0,1-1,1.51,5.61,5.61,0,0,1-1.79,1.36A6.13,6.13,0,0,1,1100.42,1192.61Zm1.29-3.79a4,4,0,0,0,2.5-.8,4.88,4.88,0,0,0,1.58-2.23,9.48,9.48,0,0,0,.53-3.34,9.23,9.23,0,0,0-.53-3.31,4.72,4.72,0,0,0-1.56-2.19,4.49,4.49,0,0,0-5.1,0,4.92,4.92,0,0,0-1.56,2.22,9.35,9.35,0,0,0-.53,3.25,9.52,9.52,0,0,0,.53,3.28,5,5,0,0,0,1.58,2.26A4,4,0,0,0,1101.71,1188.82Z"/><path class="cls-3" d="M1134.3,1192.63a11,11,0,0,1-3.67-.66,8.38,8.38,0,0,1-3.22-2.11,10.27,10.27,0,0,1-2.28-3.9,18.46,18.46,0,0,1-.83-6,23.29,23.29,0,0,1,.71-6,13.46,13.46,0,0,1,2.06-4.45,8.95,8.95,0,0,1,7.49-3.74,9.48,9.48,0,0,1,4.38,1,8.22,8.22,0,0,1,3.09,2.65,8.56,8.56,0,0,1,1.46,3.79h-4.67a4.14,4.14,0,0,0-4.26-3.31,4.64,4.64,0,0,0-4.18,2.37,12.35,12.35,0,0,0-1.48,6.49h.18a6.7,6.7,0,0,1,1.62-1.93,7.64,7.64,0,0,1,2.26-1.24,8.35,8.35,0,0,1,6.8.65,8.14,8.14,0,0,1,2.91,3,8.82,8.82,0,0,1,1.06,4.4,8.93,8.93,0,0,1-1.18,4.64,8.47,8.47,0,0,1-3.31,3.22A9.84,9.84,0,0,1,1134.3,1192.63Zm0-3.84a4.56,4.56,0,0,0,2.49-.68,4.83,4.83,0,0,0,1.74-1.82,5.1,5.1,0,0,0,.63-2.59,5.16,5.16,0,0,0-.61-2.54,4.63,4.63,0,0,0-1.71-1.8,4.67,4.67,0,0,0-2.48-.67,4.8,4.8,0,0,0-1.93.4,5,5,0,0,0-1.56,1.09,5.24,5.24,0,0,0-1,1.61,5.19,5.19,0,0,0,.25,4.47,4.86,4.86,0,0,0,1.73,1.84A4.57,4.57,0,0,0,1134.27,1188.79Z"/><path class="cls-3" d="M1157.72,1192.77a9.12,9.12,0,0,1-5.42-1.61,10,10,0,0,1-3.46-4.64,22.57,22.57,0,0,1,0-14.61,10,10,0,0,1,3.46-4.59,10,10,0,0,1,10.81,0,9.86,9.86,0,0,1,3.47,4.6,19.5,19.5,0,0,1,1.21,7.28,19.79,19.79,0,0,1-1.21,7.34,10.05,10.05,0,0,1-3.46,4.63A9.08,9.08,0,0,1,1157.72,1192.77Zm0-4a4.35,4.35,0,0,0,3.88-2.43q1.43-2.41,1.42-7.14a18.31,18.31,0,0,0-.65-5.24,7.09,7.09,0,0,0-1.84-3.2,4,4,0,0,0-2.81-1.08,4.32,4.32,0,0,0-3.86,2.42,14.36,14.36,0,0,0-1.44,7.1,18.11,18.11,0,0,0,.64,5.27,7,7,0,0,0,1.83,3.22A4.05,4.05,0,0,0,1157.72,1188.77Z"/><path class="cls-3" d="M1181.72,1192.77a9.11,9.11,0,0,1-5.41-1.61,10,10,0,0,1-3.46-4.64,22.57,22.57,0,0,1,0-14.61,9.88,9.88,0,0,1,3.46-4.59,10,10,0,0,1,10.81,0,9.86,9.86,0,0,1,3.47,4.6,19.5,19.5,0,0,1,1.21,7.28,19.79,19.79,0,0,1-1.21,7.34,10.05,10.05,0,0,1-3.46,4.63A9.11,9.11,0,0,1,1181.72,1192.77Zm0-4a4.34,4.34,0,0,0,3.88-2.43q1.43-2.41,1.43-7.14a18.31,18.31,0,0,0-.65-5.24,7.09,7.09,0,0,0-1.84-3.2,4,4,0,0,0-2.82-1.08,4.34,4.34,0,0,0-3.86,2.42,14.48,14.48,0,0,0-1.43,7.1,17.78,17.78,0,0,0,.64,5.27,7,7,0,0,0,1.83,3.22A4,4,0,0,0,1181.72,1188.77Z"/><path class="cls-3" d="M1200.52,1188.69l-.17,1.41a22.24,22.24,0,0,1-.63,3.28c-.3,1.11-.62,2.13-1,3.07s-.6,1.67-.81,2.21h-3.12c.12-.52.28-1.23.49-2.12s.42-1.9.61-3a29.23,29.23,0,0,0,.4-3.4l.09-1.43Z"/><path class="cls-3" d="M1225.73,1177.27v3.81h-11.79v-3.81Z"/><path class="cls-3" d="M1230.07,1187.41v-3.77l11.11-17.55h3.15v5.37h-1.92l-7.48,11.85v.2h15.51v3.9Zm12.49,4.86v-6l0-1.69v-18.48h4.48v26.18Z"/><path class="cls-3" d="M1264.19,1192.77a9.09,9.09,0,0,1-5.41-1.61,10,10,0,0,1-3.46-4.64,22.57,22.57,0,0,1,0-14.61,9.88,9.88,0,0,1,3.46-4.59,10,10,0,0,1,10.81,0,9.86,9.86,0,0,1,3.47,4.6,19.5,19.5,0,0,1,1.21,7.28,19.79,19.79,0,0,1-1.21,7.34,10.05,10.05,0,0,1-3.46,4.63A9.11,9.11,0,0,1,1264.19,1192.77Zm0-4a4.34,4.34,0,0,0,3.88-2.43q1.42-2.41,1.43-7.14a18.31,18.31,0,0,0-.65-5.24,7.09,7.09,0,0,0-1.84-3.2,4.06,4.06,0,0,0-2.82-1.08,4.34,4.34,0,0,0-3.86,2.42,14.48,14.48,0,0,0-1.43,7.1,18.14,18.14,0,0,0,.63,5.27,7,7,0,0,0,1.84,3.22A4,4,0,0,0,1264.19,1188.77Z"/><path class="cls-3" d="M1286.57,1170.06v-4h20.89v4h-8.1v22.21h-4.7v-22.21Z"/><path class="cls-3" d="M1309.22,1192.27v-19.64h4.49v3.28h.2a4.89,4.89,0,0,1,1.85-2.63,5,5,0,0,1,3-.93l.86,0c.32,0,.59.06.8.1v4.26a5.43,5.43,0,0,0-.93-.19,10.4,10.4,0,0,0-1.22-.08,4.73,4.73,0,0,0-2.27.54,4.07,4.07,0,0,0-1.58,1.5,4.27,4.27,0,0,0-.57,2.22v11.54Z"/><path class="cls-3" d="M1328.78,1192.67a8.26,8.26,0,0,1-3.36-.67,5.51,5.51,0,0,1-2.35-2,5.85,5.85,0,0,1-.86-3.25,5.54,5.54,0,0,1,.61-2.75,4.83,4.83,0,0,1,1.68-1.74,8.7,8.7,0,0,1,2.39-1,20.53,20.53,0,0,1,2.77-.49c1.15-.12,2.09-.23,2.8-.33a3.92,3.92,0,0,0,1.57-.46,1.06,1.06,0,0,0,.49-1V1179a2.92,2.92,0,0,0-.86-2.24,3.48,3.48,0,0,0-2.46-.79,4.44,4.44,0,0,0-2.7.74,3.65,3.65,0,0,0-1.33,1.75l-4.32-.61a6.88,6.88,0,0,1,1.69-3,7.41,7.41,0,0,1,2.87-1.81,11,11,0,0,1,3.76-.61,12.36,12.36,0,0,1,2.83.33,8.12,8.12,0,0,1,2.56,1.09,5.7,5.7,0,0,1,1.88,2.07,6.78,6.78,0,0,1,.71,3.26v13.14h-4.45v-2.7h-.16a5.43,5.43,0,0,1-1.18,1.53,5.72,5.72,0,0,1-1.9,1.14A7.81,7.81,0,0,1,1328.78,1192.67Zm1.2-3.41a5,5,0,0,0,2.42-.55,4,4,0,0,0,1.58-1.48,3.79,3.79,0,0,0,.55-2v-2.32a2.09,2.09,0,0,1-.73.33,8.28,8.28,0,0,1-1.16.27l-1.27.21-1.08.15a8.17,8.17,0,0,0-1.86.46,3.14,3.14,0,0,0-1.29.89,2.24,2.24,0,0,0-.47,1.46,2.19,2.19,0,0,0,.93,1.93A4,4,0,0,0,1330,1189.26Z"/><path class="cls-3" d="M1352.38,1192.65a9.5,9.5,0,0,1-5.05-1.29,8.59,8.59,0,0,1-3.23-3.57,11.76,11.76,0,0,1-1.13-5.26,11.6,11.6,0,0,1,1.15-5.29,8.67,8.67,0,0,1,3.25-3.58,9.46,9.46,0,0,1,5-1.28,9.82,9.82,0,0,1,4.24.87,7.44,7.44,0,0,1,3,2.47,7.34,7.34,0,0,1,1.25,3.71h-4.42a4.37,4.37,0,0,0-1.27-2.37,3.77,3.77,0,0,0-2.68-1,4.2,4.2,0,0,0-2.5.76,4.89,4.89,0,0,0-1.66,2.18,8.72,8.72,0,0,0-.6,3.4,9.15,9.15,0,0,0,.59,3.45,4.91,4.91,0,0,0,1.66,2.21,4.48,4.48,0,0,0,4.34.38,3.62,3.62,0,0,0,1.36-1.13,4.33,4.33,0,0,0,.76-1.8h4.42a7.64,7.64,0,0,1-1.23,3.69,7.13,7.13,0,0,1-2.89,2.5A9.58,9.58,0,0,1,1352.38,1192.65Z"/><path class="cls-3" d="M1364.6,1192.27v-26.18h4.63v26.18Zm4.22-6.16v-5.59h.74l7-7.89H1382l-8.68,9.67h-1Zm8.1,6.16-6.39-8.94,3.12-3.26,8.81,12.2Z"/><path class="cls-3" d="M1387.41,1169.85a2.67,2.67,0,0,1-1.9-.75,2.38,2.38,0,0,1,0-3.54,2.7,2.7,0,0,1,1.9-.74,2.66,2.66,0,0,1,1.89.74,2.36,2.36,0,0,1,.79,1.78,2.32,2.32,0,0,1-.79,1.77A2.66,2.66,0,0,1,1387.41,1169.85Zm-2.33,22.42v-19.64h4.63v19.64Z"/><path class="cls-3" d="M1399.09,1180.76v11.51h-4.63v-19.64h4.43V1176h.23a5.6,5.6,0,0,1,2.16-2.62,6.61,6.61,0,0,1,3.69-1,7,7,0,0,1,3.55.87,6,6,0,0,1,2.35,2.51,8.77,8.77,0,0,1,.83,4v12.5h-4.63v-11.79a4.39,4.39,0,0,0-1-3.08,3.61,3.61,0,0,0-2.8-1.11,4.37,4.37,0,0,0-2.16.53,3.62,3.62,0,0,0-1.47,1.53A5.11,5.11,0,0,0,1399.09,1180.76Z"/><path class="cls-3" d="M1425,1200a12.14,12.14,0,0,1-4.28-.67,7.78,7.78,0,0,1-2.88-1.79,6.25,6.25,0,0,1-1.5-2.5l4.16-1a4.63,4.63,0,0,0,.82,1.15,4.23,4.23,0,0,0,1.45.94,6.13,6.13,0,0,0,2.31.38,5.38,5.38,0,0,0,3.26-1,3.64,3.64,0,0,0,1.29-3.13v-3.72h-.23a6.77,6.77,0,0,1-1,1.47,5.58,5.58,0,0,1-1.8,1.27,6.79,6.79,0,0,1-2.81.51,8,8,0,0,1-4.1-1.07,7.51,7.51,0,0,1-2.91-3.2,11.68,11.68,0,0,1-1.08-5.33,12.49,12.49,0,0,1,1.08-5.47,8,8,0,0,1,2.92-3.39,7.55,7.55,0,0,1,4.1-1.15,6.15,6.15,0,0,1,2.85.58,5.66,5.66,0,0,1,1.78,1.39,7.87,7.87,0,0,1,1,1.53h.26v-3.25h4.56v20a6.91,6.91,0,0,1-1.2,4.17,7.16,7.16,0,0,1-3.29,2.46A12.75,12.75,0,0,1,1425,1200Zm0-11.68a4.29,4.29,0,0,0,2.51-.72,4.37,4.37,0,0,0,1.57-2.06,8.61,8.61,0,0,0,.54-3.22,9.23,9.23,0,0,0-.53-3.25,4.82,4.82,0,0,0-1.56-2.16,4.5,4.5,0,0,0-5.11,0,4.91,4.91,0,0,0-1.56,2.2,9.07,9.07,0,0,0-.52,3.18,8.45,8.45,0,0,0,.53,3.15,4.5,4.5,0,0,0,1.57,2.1A4.26,4.26,0,0,0,1425,1188.36Z"/><line class="cls-2" x1="2324" y1="887.9" x2="1674.53" y2="887.9"/><rect class="cls-3" x="2323" y="881.4" width="2" height="13"/><rect class="cls-3" x="1673.53" y="881.4" width="2" height="13"/><path class="cls-3" d="M1756,825.81V852h-4.74V825.81Z"/><path class="cls-3" d="M1765.61,840.48V852H1761V832.35h4.42v3.34h.23a5.62,5.62,0,0,1,2.17-2.62,6.58,6.58,0,0,1,3.69-1,7,7,0,0,1,3.55.87,6,6,0,0,1,2.35,2.51,8.65,8.65,0,0,1,.82,4V852h-4.63V840.2a4.38,4.38,0,0,0-1-3.08,3.62,3.62,0,0,0-2.81-1.11,4.31,4.31,0,0,0-2.15.53,3.62,3.62,0,0,0-1.47,1.53A5,5,0,0,0,1765.61,840.48Z"/><path class="cls-3" d="M1792.73,832.35v3.58h-11.28v-3.58Zm-8.5-4.7h4.63v18.43a2.91,2.91,0,0,0,.29,1.43,1.45,1.45,0,0,0,.76.67,2.89,2.89,0,0,0,1,.18,4,4,0,0,0,.8-.07l.55-.11.78,3.62c-.24.08-.6.18-1,.28a9.27,9.27,0,0,1-1.67.18,7.66,7.66,0,0,1-3.13-.53,4.8,4.8,0,0,1-2.21-1.81,5.38,5.38,0,0,1-.8-3.07Z"/><path class="cls-3" d="M1805.1,852.37a10.08,10.08,0,0,1-5.1-1.23,8.24,8.24,0,0,1-3.29-3.5,12.92,12.92,0,0,1,0-10.68,8.72,8.72,0,0,1,3.24-3.58,9.19,9.19,0,0,1,4.89-1.28,10.06,10.06,0,0,1,3.44.58,8.08,8.08,0,0,1,2.86,1.79,8.49,8.49,0,0,1,2,3.09,12.45,12.45,0,0,1,.72,4.46v1.42h-16.1v-3.12h11.66a5.06,5.06,0,0,0-.57-2.37,4.23,4.23,0,0,0-1.57-1.65,4.47,4.47,0,0,0-2.33-.6,4.53,4.53,0,0,0-2.5.69,4.68,4.68,0,0,0-1.66,1.79,5.08,5.08,0,0,0-.61,2.42v2.72a6.38,6.38,0,0,0,.63,2.94,4.37,4.37,0,0,0,1.75,1.86,5.18,5.18,0,0,0,2.63.65,5.57,5.57,0,0,0,1.83-.29,4.08,4.08,0,0,0,1.42-.85,3.56,3.56,0,0,0,.9-1.39l4.33.48a6.77,6.77,0,0,1-1.56,3,7.54,7.54,0,0,1-2.92,2A11.15,11.15,0,0,1,1805.1,852.37Z"/><path class="cls-3" d="M1817.74,852V832.35h4.49v3.28h.2a4.89,4.89,0,0,1,1.85-2.63,5,5,0,0,1,3-.93l.86,0a6.41,6.41,0,0,1,.8.1v4.26a5.43,5.43,0,0,0-.93-.19,10.4,10.4,0,0,0-1.22-.08,4.73,4.73,0,0,0-2.27.54,4.07,4.07,0,0,0-1.58,1.5,4.27,4.27,0,0,0-.57,2.22V852Z"/><path class="cls-3" d="M1841.16,852V825.81h4.74V848h11.53v4Z"/><path class="cls-3" d="M1863.66,829.57a2.64,2.64,0,0,1-1.89-.75,2.36,2.36,0,0,1,0-3.54,2.8,2.8,0,0,1,3.79,0,2.38,2.38,0,0,1,.78,1.78,2.35,2.35,0,0,1-.78,1.77A2.7,2.7,0,0,1,1863.66,829.57ZM1861.33,852V832.35H1866V852Z"/><path class="cls-3" d="M1879.26,859.76a12.19,12.19,0,0,1-4.29-.67,7.67,7.67,0,0,1-2.87-1.8,6.13,6.13,0,0,1-1.51-2.49l4.17-1a4.76,4.76,0,0,0,.81,1.15,4.19,4.19,0,0,0,1.46.94,6,6,0,0,0,2.3.38,5.38,5.38,0,0,0,3.26-1,3.64,3.64,0,0,0,1.29-3.13v-3.72h-.23a6.44,6.44,0,0,1-1,1.47,5.47,5.47,0,0,1-1.8,1.27,6.79,6.79,0,0,1-2.81.51,8,8,0,0,1-4.09-1.07,7.47,7.47,0,0,1-2.92-3.2,11.68,11.68,0,0,1-1.08-5.33,12.49,12.49,0,0,1,1.08-5.47,8,8,0,0,1,2.92-3.39,7.58,7.58,0,0,1,4.11-1.15,6.11,6.11,0,0,1,2.84.58,5.55,5.55,0,0,1,1.78,1.39,7.43,7.43,0,0,1,1,1.53h.26v-3.25h4.56v20a6.91,6.91,0,0,1-1.2,4.17,7.18,7.18,0,0,1-3.28,2.46A12.79,12.79,0,0,1,1879.26,859.76Zm0-11.68a4.29,4.29,0,0,0,2.51-.72,4.42,4.42,0,0,0,1.57-2.06,8.61,8.61,0,0,0,.54-3.22,9.23,9.23,0,0,0-.53-3.25,4.82,4.82,0,0,0-1.56-2.16,4.5,4.5,0,0,0-5.11,0,4.91,4.91,0,0,0-1.56,2.2,9.07,9.07,0,0,0-.52,3.18,8.45,8.45,0,0,0,.53,3.15,4.57,4.57,0,0,0,1.57,2.1A4.28,4.28,0,0,0,1879.29,848.08Z"/><path class="cls-3" d="M1897.86,840.48V852h-4.63V825.81h4.52v9.88h.23a5.78,5.78,0,0,1,2.14-2.63,6.62,6.62,0,0,1,3.71-1,7.13,7.13,0,0,1,3.56.85,5.8,5.8,0,0,1,2.36,2.51,8.8,8.8,0,0,1,.84,4V852H1906V840.2a4.44,4.44,0,0,0-1-3.09,3.71,3.71,0,0,0-2.85-1.1,4.49,4.49,0,0,0-2.19.53,3.65,3.65,0,0,0-1.51,1.53A5,5,0,0,0,1897.86,840.48Z"/><path class="cls-3" d="M1925.1,832.35v3.58h-11.29v-3.58Zm-8.5-4.7h4.62v18.43a2.91,2.91,0,0,0,.29,1.43,1.53,1.53,0,0,0,.76.67,3,3,0,0,0,1,.18,4,4,0,0,0,.8-.07l.56-.11.78,3.62c-.25.08-.6.18-1.06.28a9.16,9.16,0,0,1-1.67.18,7.66,7.66,0,0,1-3.13-.53,4.77,4.77,0,0,1-2.2-1.81,5.38,5.38,0,0,1-.8-3.07Z"/><path class="cls-3" d="M1947.25,852.35a12,12,0,0,1-4.9-1,8.17,8.17,0,0,1-3.38-2.63,6.82,6.82,0,0,1-1.32-3.9h4.81a3.19,3.19,0,0,0,.7,1.85,4.23,4.23,0,0,0,1.7,1.22,6.23,6.23,0,0,0,2.38.43,5.92,5.92,0,0,0,2.49-.49,4,4,0,0,0,1.7-1.38,3.36,3.36,0,0,0,.6-2,3.48,3.48,0,0,0-.61-2.09,4.08,4.08,0,0,0-1.81-1.42,7.17,7.17,0,0,0-2.84-.51h-2.32v-3.66h2.32a5.72,5.72,0,0,0,2.39-.47,3.91,3.91,0,0,0,1.62-1.34,3.41,3.41,0,0,0,.58-2,3.53,3.53,0,0,0-.5-1.94,3.37,3.37,0,0,0-1.41-1.28,4.7,4.7,0,0,0-2.15-.46,5.6,5.6,0,0,0-2.22.43,4.05,4.05,0,0,0-1.65,1.24,3.09,3.09,0,0,0-.66,1.89h-4.57a6.7,6.7,0,0,1,1.27-3.86,8.24,8.24,0,0,1,3.27-2.61,10.79,10.79,0,0,1,4.59-.94,10,10,0,0,1,4.56,1,7.37,7.37,0,0,1,3,2.62,6.6,6.6,0,0,1,1.07,3.65,5.36,5.36,0,0,1-1.3,3.7,6.16,6.16,0,0,1-3.43,2v.21a6.63,6.63,0,0,1,4.23,2,5.9,5.9,0,0,1,1.47,4.12,6.59,6.59,0,0,1-1.25,3.93,8.31,8.31,0,0,1-3.42,2.71A12,12,0,0,1,1947.25,852.35Z"/><path class="cls-3" d="M1971,852.49a9.09,9.09,0,0,1-5.41-1.61,10,10,0,0,1-3.47-4.64,19.9,19.9,0,0,1-1.2-7.32,19.51,19.51,0,0,1,1.22-7.29,10,10,0,0,1,3.46-4.6,10,10,0,0,1,10.81,0,9.94,9.94,0,0,1,3.47,4.61,19.5,19.5,0,0,1,1.21,7.28,19.79,19.79,0,0,1-1.21,7.34,10.05,10.05,0,0,1-3.46,4.63A9.18,9.18,0,0,1,1971,852.49Zm0-4a4.34,4.34,0,0,0,3.88-2.43q1.43-2.41,1.43-7.14a18.26,18.26,0,0,0-.65-5.24,7,7,0,0,0-1.85-3.2,4,4,0,0,0-2.81-1.08,4.34,4.34,0,0,0-3.86,2.42,14.45,14.45,0,0,0-1.43,7.1,18.14,18.14,0,0,0,.63,5.27,6.93,6.93,0,0,0,1.84,3.22A4,4,0,0,0,1971,848.49Z"/><path class="cls-3" d="M1995,852.49a9.09,9.09,0,0,1-5.41-1.61,10,10,0,0,1-3.47-4.64,22.57,22.57,0,0,1,0-14.61,10,10,0,0,1,3.47-4.6,10,10,0,0,1,10.81,0,10,10,0,0,1,3.47,4.61,19.5,19.5,0,0,1,1.21,7.28,19.79,19.79,0,0,1-1.21,7.34,10.07,10.07,0,0,1-3.47,4.63A9.13,9.13,0,0,1,1995,852.49Zm0-4a4.34,4.34,0,0,0,3.88-2.43q1.42-2.41,1.43-7.14a17.88,17.88,0,0,0-.66-5.24,6.91,6.91,0,0,0-1.84-3.2,4,4,0,0,0-2.81-1.08,4.33,4.33,0,0,0-3.86,2.42c-1,1.62-1.42,4-1.43,7.1a18.14,18.14,0,0,0,.63,5.27,6.93,6.93,0,0,0,1.84,3.22A4,4,0,0,0,1995,848.49Z"/><path class="cls-3" d="M2013.79,848.41l-.16,1.41a20.73,20.73,0,0,1-.64,3.27c-.3,1.12-.62,2.14-1,3.08s-.6,1.67-.8,2.21h-3.12c.12-.52.28-1.23.49-2.12s.41-1.9.61-3a31.56,31.56,0,0,0,.39-3.4l.09-1.43Z"/><path class="cls-3" d="M2039,837v3.81h-11.78V837Z"/><path class="cls-3" d="M2043.35,847.13v-3.77l11.11-17.55h3.15v5.37h-1.92L2048.21,843v.2h15.5v3.9Zm12.49,4.86v-6l0-1.69V825.81h4.48V852Z"/><path class="cls-3" d="M2077.47,852.49a9.09,9.09,0,0,1-5.41-1.61,10,10,0,0,1-3.47-4.64,22.48,22.48,0,0,1,0-14.61,9.9,9.9,0,0,1,3.46-4.6,10,10,0,0,1,10.81,0,10,10,0,0,1,3.47,4.61,19.7,19.7,0,0,1,1.21,7.28,20,20,0,0,1-1.21,7.34,10.07,10.07,0,0,1-3.47,4.63A9.13,9.13,0,0,1,2077.47,852.49Zm0-4a4.34,4.34,0,0,0,3.88-2.43q1.43-2.41,1.43-7.14a17.88,17.88,0,0,0-.66-5.24,6.91,6.91,0,0,0-1.84-3.2,4,4,0,0,0-2.81-1.08,4.33,4.33,0,0,0-3.86,2.42c-1,1.62-1.42,4-1.43,7.1a18.14,18.14,0,0,0,.63,5.27,7,7,0,0,0,1.83,3.22A4.09,4.09,0,0,0,2077.47,848.49Z"/><path class="cls-3" d="M2099.84,829.78v-4h20.89v4h-8.09V852h-4.7V829.78Z"/><path class="cls-3" d="M2122.5,852V832.35H2127v3.28h.21A4.84,4.84,0,0,1,2129,833a5,5,0,0,1,3-.93l.86,0a6.87,6.87,0,0,1,.81.1v4.26a5.43,5.43,0,0,0-.93-.19,10.4,10.4,0,0,0-1.22-.08,4.7,4.7,0,0,0-2.27.54,4,4,0,0,0-1.58,1.5,4.18,4.18,0,0,0-.58,2.22V852Z"/><path class="cls-3" d="M2142.05,852.39a8,8,0,0,1-3.35-.68,5.36,5.36,0,0,1-2.35-2,5.77,5.77,0,0,1-.87-3.25,5.51,5.51,0,0,1,.62-2.75,4.8,4.8,0,0,1,1.67-1.74,8.9,8.9,0,0,1,2.4-1,20.26,20.26,0,0,1,2.77-.49c1.15-.12,2.08-.23,2.8-.33a3.91,3.91,0,0,0,1.56-.46,1.07,1.07,0,0,0,.49-1v-.07a2.9,2.9,0,0,0-.85-2.24,3.51,3.51,0,0,0-2.47-.79,4.43,4.43,0,0,0-2.69.74,3.59,3.59,0,0,0-1.33,1.75l-4.33-.61a6.92,6.92,0,0,1,1.69-3,7.46,7.46,0,0,1,2.88-1.82,11.19,11.19,0,0,1,3.76-.6,12.34,12.34,0,0,1,2.82.33,8.17,8.17,0,0,1,2.57,1.09,5.59,5.59,0,0,1,1.87,2.07,6.67,6.67,0,0,1,.71,3.26V852H2148v-2.7h-.15a5.62,5.62,0,0,1-1.18,1.53,5.77,5.77,0,0,1-1.91,1.14A7.72,7.72,0,0,1,2142.05,852.39Zm1.21-3.41a5,5,0,0,0,2.41-.55,4,4,0,0,0,1.58-1.48,3.8,3.8,0,0,0,.56-2v-2.32a2.16,2.16,0,0,1-.74.33,9.78,9.78,0,0,1-1.15.27l-1.27.21-1.09.15a8.08,8.08,0,0,0-1.85.46,3,3,0,0,0-1.29.89,2.48,2.48,0,0,0,.46,3.39A4,4,0,0,0,2143.26,849Z"/><path class="cls-3" d="M2165.65,852.37a9.44,9.44,0,0,1-5-1.29,8.53,8.53,0,0,1-3.23-3.57,12.77,12.77,0,0,1,0-10.55,8.6,8.6,0,0,1,3.25-3.58,9.41,9.41,0,0,1,5-1.28,9.89,9.89,0,0,1,4.24.87,7.21,7.21,0,0,1,4.2,6.18h-4.43a4.31,4.31,0,0,0-1.27-2.37,3.75,3.75,0,0,0-2.68-.95,4.2,4.2,0,0,0-2.49.76,4.91,4.91,0,0,0-1.67,2.18,8.73,8.73,0,0,0-.59,3.4,9,9,0,0,0,.59,3.45,5,5,0,0,0,1.65,2.21,4.5,4.5,0,0,0,4.35.38,3.7,3.7,0,0,0,1.36-1.13,4.19,4.19,0,0,0,.75-1.8h4.43a7.64,7.64,0,0,1-1.23,3.69,7.19,7.19,0,0,1-2.89,2.5A9.63,9.63,0,0,1,2165.65,852.37Z"/><path class="cls-3" d="M2177.87,852V825.81h4.63V852Zm4.22-6.16v-5.59h.74l7.06-7.89h5.41l-8.68,9.67h-1Zm8.11,6.16-6.39-8.94,3.12-3.26,8.8,12.2Z"/><path class="cls-3" d="M2200.68,829.57a2.66,2.66,0,0,1-1.89-.75,2.38,2.38,0,0,1,0-3.54,2.8,2.8,0,0,1,3.79,0,2.36,2.36,0,0,1,.79,1.78,2.32,2.32,0,0,1-.79,1.77A2.68,2.68,0,0,1,2200.68,829.57ZM2198.36,852V832.35H2203V852Z"/><path class="cls-3" d="M2212.37,840.48V852h-4.63V832.35h4.42v3.34h.23a5.62,5.62,0,0,1,2.17-2.62,6.58,6.58,0,0,1,3.69-1,7,7,0,0,1,3.54.87,6,6,0,0,1,2.36,2.51,8.65,8.65,0,0,1,.82,4V852h-4.63V840.2a4.38,4.38,0,0,0-1-3.08,3.63,3.63,0,0,0-2.81-1.11,4.31,4.31,0,0,0-2.15.53,3.62,3.62,0,0,0-1.47,1.53A5,5,0,0,0,2212.37,840.48Z"/><path class="cls-3" d="M2238.23,859.76a12.14,12.14,0,0,1-4.28-.67,7.63,7.63,0,0,1-2.88-1.8,6.24,6.24,0,0,1-1.51-2.49l4.17-1a4.82,4.82,0,0,0,.82,1.15,4.14,4.14,0,0,0,1.45.94,6.11,6.11,0,0,0,2.3.38,5.34,5.34,0,0,0,3.26-1,3.62,3.62,0,0,0,1.3-3.13v-3.72h-.23a6.51,6.51,0,0,1-1.05,1.47,5.37,5.37,0,0,1-1.8,1.27,6.74,6.74,0,0,1-2.8.51,8,8,0,0,1-4.1-1.07,7.53,7.53,0,0,1-2.92-3.2,11.68,11.68,0,0,1-1.08-5.33,12.49,12.49,0,0,1,1.08-5.47,8.07,8.07,0,0,1,2.92-3.39,7.58,7.58,0,0,1,4.11-1.15,6.08,6.08,0,0,1,2.84.58,5.7,5.7,0,0,1,1.79,1.39,7.87,7.87,0,0,1,1,1.53h.25v-3.25h4.57v20a6.91,6.91,0,0,1-1.21,4.17,7.13,7.13,0,0,1-3.28,2.46A12.79,12.79,0,0,1,2238.23,859.76Zm0-11.68a4.26,4.26,0,0,0,2.5-.72,4.43,4.43,0,0,0,1.58-2.06,8.83,8.83,0,0,0,.53-3.22,9,9,0,0,0-.53-3.25,4.68,4.68,0,0,0-1.56-2.16,4.49,4.49,0,0,0-5.1,0,4.85,4.85,0,0,0-1.57,2.2,9.3,9.3,0,0,0-.52,3.18,8.66,8.66,0,0,0,.53,3.15,4.57,4.57,0,0,0,1.57,2.1A4.29,4.29,0,0,0,2238.27,848.08Z"/><path d="M675,1076.73V927.92h55.8q17.16,0,28.82,6a41,41,0,0,1,17.65,16.67q6,10.73,6,25t-6.07,24.82a40.22,40.22,0,0,1-17.84,16.2q-11.77,5.7-28.92,5.7H690.69V999.85h36.12q10,0,16.42-2.79a19.52,19.52,0,0,0,9.48-8.21,26.56,26.56,0,0,0,3.09-13.34A27.58,27.58,0,0,0,752.68,962a20.17,20.17,0,0,0-9.52-8.57q-6.4-3-16.5-2.95H702v126.29Zm76.88-67.43,36.84,67.43H758.63l-36.18-67.43Z"/><path d="M845.85,1078.91q-16.35,0-28.34-7.19A48.64,48.64,0,0,1,799,1051.59q-6.59-12.93-6.58-30.23t6.58-30.3a48.52,48.52,0,0,1,18.56-20.2q12-7.18,28.34-7.19t28.34,7.19a48.61,48.61,0,0,1,18.57,20.2q6.57,13,6.57,30.3t-6.57,30.23a48.73,48.73,0,0,1-18.57,20.13Q862.21,1078.91,845.85,1078.91Zm.15-21.07q8.87,0,14.82-4.91a29.34,29.34,0,0,0,8.9-13.18,59.58,59.58,0,0,0,0-37,29.65,29.65,0,0,0-8.9-13.26q-6-4.94-14.82-4.94-9.09,0-15.08,4.94a29.56,29.56,0,0,0-8.94,13.26,59.77,59.77,0,0,0,0,37,29.25,29.25,0,0,0,8.94,13.18Q836.92,1057.84,846,1057.84Z"/><path d="M913.38,1076.73V965.12h25.14v19h1.31a29.8,29.8,0,0,1,11.55-15q8.07-5.42,19.26-5.41t19.14,5.48a29.13,29.13,0,0,1,11,14.94H1002a30.59,30.59,0,0,1,12.53-14.86q8.84-5.57,21-5.56,15.4,0,25.14,9.74t9.74,28.41v74.91H1044v-70.84q0-10.39-5.52-15.23a19.81,19.81,0,0,0-13.51-4.83q-9.53,0-14.86,5.92t-5.34,15.37v69.61h-25.8V1004.8q0-8.65-5.19-13.81t-13.56-5.16a19.28,19.28,0,0,0-10.31,2.87,20.7,20.7,0,0,0-7.42,8.07,25.38,25.38,0,0,0-2.76,12.09v67.87Z"/><path d="M1121,1079a46,46,0,0,1-19.07-3.81,30.61,30.61,0,0,1-13.37-11.3q-4.9-7.48-4.91-18.46,0-9.44,3.49-15.62a27.09,27.09,0,0,1,9.52-9.88,48.61,48.61,0,0,1,13.62-5.63,113.24,113.24,0,0,1,15.73-2.8q9.81-1,15.92-1.85c4.07-.56,7-1.43,8.9-2.62a6.12,6.12,0,0,0,2.8-5.56V1001c0-5.48-1.63-9.71-4.87-12.72s-7.92-4.5-14-4.5q-9.66,0-15.29,4.21a20.75,20.75,0,0,0-7.59,10l-24.56-3.49a39.4,39.4,0,0,1,9.59-17,42.15,42.15,0,0,1,16.35-10.32,63.13,63.13,0,0,1,21.36-3.45,69.57,69.57,0,0,1,16.06,1.89,45.68,45.68,0,0,1,14.6,6.21,31.92,31.92,0,0,1,10.65,11.74q4,7.41,4,18.52v74.7h-25.29V1061.4h-.87a31.77,31.77,0,0,1-17.55,15.15A43.39,43.39,0,0,1,1121,1079Zm6.83-19.32a28.27,28.27,0,0,0,13.73-3.17,23,23,0,0,0,9-8.39,21.64,21.64,0,0,0,3.16-11.41v-13.15a12.38,12.38,0,0,1-4.18,1.89,62.56,62.56,0,0,1-6.58,1.53q-3.63.64-7.19,1.16l-6.17.87a46.3,46.3,0,0,0-10.54,2.62,17.6,17.6,0,0,0-7.34,5.05A12.58,12.58,0,0,0,1109,1045q0,7.26,5.31,11T1127.83,1059.66Z"/><path d="M1224.57,1011.34v65.39h-26.3V965.12h25.14v19h1.31a31.79,31.79,0,0,1,12.31-14.9q8.46-5.52,21-5.52a39.84,39.84,0,0,1,20.16,4.94,33.57,33.57,0,0,1,13.37,14.31q4.76,9.38,4.68,22.75v71.06h-26.3v-67q0-11.19-5.78-17.51t-15.94-6.33a24.48,24.48,0,0,0-12.25,3,21.06,21.06,0,0,0-8.35,8.68A28.81,28.81,0,0,0,1224.57,1011.34Z"/><path d="M1314.84,1076.73V927.92h26.31v148.81Zm24-35-.07-31.76H1343l40.11-44.83h30.74l-49.34,54.93H1359Zm46.07,35-36.33-50.79,17.73-18.53,50.06,69.32Z"/><path d="M1436.29,949.28a15.19,15.19,0,0,1-10.76-4.21,13.55,13.55,0,0,1,0-20.17,15.95,15.95,0,0,1,21.55,0,13.62,13.62,0,0,1,0,20.16A15.22,15.22,0,0,1,1436.29,949.28Zm-13.23,127.45V965.12h26.3v111.61Z"/><path d="M1491.24,1076.73l-31.53-111.61h26.81l19.62,78.48h1l20-78.48h26.52l20.06,78h1.09l19.32-78h26.89l-31.61,111.61h-27.39l-20.93-75.42h-1.52l-20.93,75.42Z"/><path d="M1796.77,974.42h-13.66a43.41,43.41,0,0,0-5.49-14.13,44.31,44.31,0,0,0-9.92-11.37,44.85,44.85,0,0,0-13.52-7.56,48.41,48.41,0,0,0-16.34-2.69,47.07,47.07,0,0,0-25.69,7.34q-11.6,7.34-18.53,21.55t-6.94,34.77q0,20.7,6.94,34.87t18.53,21.48a47.29,47.29,0,0,0,25.69,7.3,48.41,48.41,0,0,0,16.34-2.69,45.4,45.4,0,0,0,13.52-7.52,43.76,43.76,0,0,0,15.41-25.54h13.66a59.91,59.91,0,0,1-6.8,19.07,57.17,57.17,0,0,1-30.26,25.76,62.28,62.28,0,0,1-21.87,3.71q-18.75,0-33.28-9.41t-22.78-26.56q-8.25-17.15-8.25-40.47t8.25-40.48q8.25-17.15,22.78-26.56t33.28-9.41a63,63,0,0,1,21.87,3.67,56.58,56.58,0,0,1,17.62,10.32A58.36,58.36,0,0,1,1790,955.31,59.62,59.62,0,0,1,1796.77,974.42Z"/><path d="M1824.62,945.94a9.5,9.5,0,0,1-6.83-2.73,9,9,0,0,1,0-13.15,9.88,9.88,0,0,1,13.62,0,8.79,8.79,0,0,1,2.83,6.58,8.69,8.69,0,0,1-2.87,6.57A9.5,9.5,0,0,1,1824.62,945.94ZM1818,1076.73V965.12h13v111.61Z"/><path d="M1870.06,1007v69.75h-12.93V965.12h12.57v17.51h1.16a31.51,31.51,0,0,1,12.24-13.77q8.33-5.19,20.6-5.19a40.42,40.42,0,0,1,19.8,4.69,32.38,32.38,0,0,1,13.3,13.76q4.76,9.09,4.76,22.31v72.3h-12.93v-71.5q0-13.72-7.67-21.72t-20.53-8a31.71,31.71,0,0,0-15.62,3.78A27.43,27.43,0,0,0,1874,990.15,34,34,0,0,0,1870.06,1007Z"/><path d="M2012.65,1079.06q-15.63,0-27-7.31a48,48,0,0,1-17.62-20.27q-6.21-13-6.21-29.9t6.21-30A50,50,0,0,1,1985.22,971a44.41,44.41,0,0,1,25.47-7.44,47.63,47.63,0,0,1,17.51,3.3,43.59,43.59,0,0,1,15.15,10.1A48.34,48.34,0,0,1,2054,994.08q3.93,10.27,3.93,24.3v6.4h-87.2v-11.41h74a42.56,42.56,0,0,0-4.32-19.36,34.3,34.3,0,0,0-12-13.63A33.69,33.69,0,0,0,1992,981a38.65,38.65,0,0,0-12.6,15,46.47,46.47,0,0,0-4.62,20.35v6.83q0,13.29,4.62,23.21a35.44,35.44,0,0,0,13.11,15.37q8.51,5.46,20.13,5.45a36.21,36.21,0,0,0,13.91-2.47,29.67,29.67,0,0,0,10.1-6.65,29.26,29.26,0,0,0,6.22-9.19l12.28,4a36.41,36.41,0,0,1-8.32,13,42.53,42.53,0,0,1-14.39,9.56A51,51,0,0,1,2012.65,1079.06Z"/><path d="M2078.14,1076.73V965.12h12.57v17.15h1.17A27.44,27.44,0,0,1,2103,968.65q7.8-5,18.78-5,11.55,0,19,5.41A32.56,32.56,0,0,1,2152,983.94h.94a31.12,31.12,0,0,1,12.32-14.79q8.54-5.48,20.74-5.48,15.56,0,24.56,9.77t9,28.52v74.77h-12.93V1002q0-13.22-6.76-19.84t-17.8-6.61q-12.8,0-19.69,7.85t-6.91,19.91v73.46h-13.22V1000.8q0-11.34-6.32-18.31t-17.8-7a25.9,25.9,0,0,0-13.85,3.78,26.51,26.51,0,0,0-9.66,10.5,32.76,32.76,0,0,0-3.52,15.44v71.5Z"/><path d="M2276.68,1079.27a42.57,42.57,0,0,1-18.46-4,31.85,31.85,0,0,1-13.29-11.48q-4.95-7.51-4.95-18.27a28.6,28.6,0,0,1,3.13-14,25.43,25.43,0,0,1,8.86-9.3,49.05,49.05,0,0,1,13.59-5.74,124.81,124.81,0,0,1,17.3-3.27q9.38-1.17,15.87-2a29,29,0,0,0,9.92-2.76,6.45,6.45,0,0,0,3.42-6.1v-2.62q0-11.4-6.8-18t-19.51-6.58q-12.06,0-19.65,5.31A29.28,29.28,0,0,0,2255.46,993l-12.28-4.43A36.54,36.54,0,0,1,2253.65,974a41.89,41.89,0,0,1,15-7.92,59.4,59.4,0,0,1,16.79-2.43,56.56,56.56,0,0,1,13.33,1.67,38.4,38.4,0,0,1,12.9,5.77,30,30,0,0,1,9.66,11.41q3.71,7.31,3.71,18.49v75.79h-12.93v-17.66h-.8a34.92,34.92,0,0,1-6.91,9.6,35.82,35.82,0,0,1-11.48,7.63A40.73,40.73,0,0,1,2276.68,1079.27Zm1.74-11.84a33.87,33.87,0,0,0,17.88-4.58,31.6,31.6,0,0,0,11.66-12.17,34.6,34.6,0,0,0,4.11-16.75V1017.8a12.75,12.75,0,0,1-4.84,2.47,64.8,64.8,0,0,1-7.77,1.93q-4.39.84-8.76,1.42l-7.84,1a72.65,72.65,0,0,0-16.14,3.64,23.37,23.37,0,0,0-10.24,6.79,16.82,16.82,0,0,0-3.56,11.08q0,10.17,7.26,15.73T2278.42,1067.43Z"/><line class="cls-2" x1="1621.09" y1="1076.73" x2="1621.09" y2="1074.23"/><line class="cls-5" x1="1621.09" y1="1069.36" x2="1621.09" y2="925.66"/><line class="cls-2" x1="1621.09" y1="923.23" x2="1621.09" y2="920.73"/><line class="cls-2" x1="1673.53" y1="1076.73" x2="1673.53" y2="1074.23"/><line class="cls-5" x1="1673.53" y1="1069.36" x2="1673.53" y2="925.66"/><line class="cls-2" x1="1673.53" y1="923.23" x2="1673.53" y2="920.73"/></g></g></svg>