<svg xmlns="http://www.w3.org/2000/svg" viewBox="0 0 525.03 55.69"><defs><style>.cls-1{fill:#f5f7f9;}</style></defs><g id="Layer_2" data-name="Layer 2"><g id="Layer_1-2" data-name="Layer 1"><path class="cls-1" d="M25.82,9.82h9.41V46.64a17.15,17.15,0,0,1-2.15,8.7,14.19,14.19,0,0,1-5.91,5.6,19,19,0,0,1-8.84,2,20,20,0,0,1-8.27-1.65,13.41,13.41,0,0,1-5.82-4.9A14.35,14.35,0,0,1,2.1,48.27h9.43a7.3,7.3,0,0,0,.93,3.66A6.08,6.08,0,0,0,15,54.28a8,8,0,0,0,3.71.82,7.32,7.32,0,0,0,3.86-1A6.1,6.1,0,0,0,25,51.29a11.77,11.77,0,0,0,.85-4.65Z" transform="translate(-2.1 -7.29)"/><path class="cls-1" d="M52.83,63a16.05,16.05,0,0,1-6.71-1.34,10.77,10.77,0,0,1-4.71-4,11.62,11.62,0,0,1-1.72-6.5,11,11,0,0,1,1.22-5.49,9.56,9.56,0,0,1,3.35-3.48,17.19,17.19,0,0,1,4.8-2,39.16,39.16,0,0,1,5.53-1c2.3-.24,4.17-.45,5.6-.65a8.11,8.11,0,0,0,3.13-.92,2.15,2.15,0,0,0,1-2v-.15a5.74,5.74,0,0,0-1.72-4.47,7,7,0,0,0-4.93-1.59A8.77,8.77,0,0,0,52.28,31a7.34,7.34,0,0,0-2.67,3.51L41,33.24a14,14,0,0,1,3.38-6,14.87,14.87,0,0,1,5.75-3.63,22.22,22.22,0,0,1,7.52-1.21,24.7,24.7,0,0,1,5.65.66,16.13,16.13,0,0,1,5.14,2.19,11.16,11.16,0,0,1,3.74,4.13,13.47,13.47,0,0,1,1.42,6.52V62.18H64.67V56.79h-.31A11,11,0,0,1,62,59.84a11.17,11.17,0,0,1-3.81,2.28A15.25,15.25,0,0,1,52.83,63Zm2.4-6.8a10,10,0,0,0,4.83-1.11,8.12,8.12,0,0,0,3.16-3,7.66,7.66,0,0,0,1.11-4V43.47a4.25,4.25,0,0,1-1.47.66q-1,.3-2.31.54c-.85.15-1.7.29-2.53.41l-2.18.3a16.55,16.55,0,0,0-3.7.92,6.34,6.34,0,0,0-2.59,1.78,5,5,0,0,0,.93,6.79A8.07,8.07,0,0,0,55.23,56.17Z" transform="translate(-2.1 -7.29)"/><path class="cls-1" d="M79.3,62.18V22.91h9v6.55h.41a9.85,9.85,0,0,1,3.69-5.26,10.11,10.11,0,0,1,6-1.85c.51,0,1.09,0,1.73.06a13.12,13.12,0,0,1,1.59.19v8.52a9.8,9.8,0,0,0-1.85-.37,17.27,17.27,0,0,0-2.44-.17,9.32,9.32,0,0,0-4.54,1.09,8.07,8.07,0,0,0-3.16,3,8.49,8.49,0,0,0-1.15,4.42V62.18Z" transform="translate(-2.1 -7.29)"/><path class="cls-1" d="M119.75,63a19.06,19.06,0,0,1-10-2.53,17,17,0,0,1-6.53-7.09,23,23,0,0,1-2.32-10.63A23.22,23.22,0,0,1,103.25,32a17,17,0,0,1,6.53-7.11,20.91,20.91,0,0,1,19.94,0A17.09,17.09,0,0,1,136.25,32a23.22,23.22,0,0,1,2.32,10.66,23,23,0,0,1-2.32,10.63,17.1,17.1,0,0,1-6.53,7.09A19.09,19.09,0,0,1,119.75,63Zm0-7.42A8,8,0,0,0,125,53.81a10.4,10.4,0,0,0,3.13-4.64,19.35,19.35,0,0,0,1-6.5,19.49,19.49,0,0,0-1-6.53A10.49,10.49,0,0,0,125,31.47a8,8,0,0,0-5.22-1.73,8.08,8.08,0,0,0-5.3,1.73,10.37,10.37,0,0,0-3.15,4.67,19.49,19.49,0,0,0-1,6.53,19.35,19.35,0,0,0,1,6.5,10.27,10.27,0,0,0,3.15,4.64A8.08,8.08,0,0,0,119.8,55.53Z" transform="translate(-2.1 -7.29)"/><path class="cls-1" d="M157.36,62.87a14.83,14.83,0,0,1-8.28-2.38,16.12,16.12,0,0,1-5.78-6.9,25.83,25.83,0,0,1-2.12-11,25.48,25.48,0,0,1,2.16-11.06,15.92,15.92,0,0,1,5.84-6.83,15.14,15.14,0,0,1,8.21-2.31,12.31,12.31,0,0,1,5.68,1.16,11,11,0,0,1,3.52,2.79,17,17,0,0,1,2,3H169V9.82h9.28V62.18h-9.1V56h-.57a14.62,14.62,0,0,1-2.07,3A11.13,11.13,0,0,1,163,61.75,12.35,12.35,0,0,1,157.36,62.87ZM160,55.28a7.93,7.93,0,0,0,5-1.6,9.74,9.74,0,0,0,3.14-4.46,18.91,18.91,0,0,0,1.08-6.68,19,19,0,0,0-1.06-6.62A9.6,9.6,0,0,0,165,31.55a9,9,0,0,0-10.22.05,9.81,9.81,0,0,0-3.12,4.45,18.64,18.64,0,0,0-1,6.49,18.76,18.76,0,0,0,1.07,6.56,10,10,0,0,0,3.14,4.53A8,8,0,0,0,160,55.28Z" transform="translate(-2.1 -7.29)"/><path class="cls-1" d="M199.25,62.18V9.82h19.64A22.12,22.12,0,0,1,229,11.92a14.39,14.39,0,0,1,6.21,5.86,17.67,17.67,0,0,1,2.11,8.79,17.22,17.22,0,0,1-2.13,8.73,14.23,14.23,0,0,1-6.28,5.7,23.18,23.18,0,0,1-10.18,2h-14V35.13h12.7a14.62,14.62,0,0,0,5.78-1,6.87,6.87,0,0,0,3.34-2.89,9.4,9.4,0,0,0,1.09-4.69,9.72,9.72,0,0,0-1.1-4.77,7.12,7.12,0,0,0-3.35-3,14,14,0,0,0-5.81-1h-8.69V62.18Zm27.06-23.72,13,23.72H228.68L216,38.46Z" transform="translate(-2.1 -7.29)"/><path class="cls-1" d="M258.65,63a19.09,19.09,0,0,1-10-2.53,17.1,17.1,0,0,1-6.53-7.09,23.16,23.16,0,0,1-2.31-10.63A23.35,23.35,0,0,1,242.15,32a17.09,17.09,0,0,1,6.53-7.11,20.91,20.91,0,0,1,19.94,0A17,17,0,0,1,275.16,32a23.35,23.35,0,0,1,2.31,10.66,23.16,23.16,0,0,1-2.31,10.63,17.05,17.05,0,0,1-6.54,7.09A19.06,19.06,0,0,1,258.65,63Zm.06-7.42a7.92,7.92,0,0,0,5.21-1.72,10.32,10.32,0,0,0,3.13-4.64,19.35,19.35,0,0,0,1-6.5,19.49,19.49,0,0,0-1-6.53,10.41,10.41,0,0,0-3.13-4.67,7.93,7.93,0,0,0-5.21-1.73,8.11,8.11,0,0,0-5.31,1.73,10.45,10.45,0,0,0-3.15,4.67,19.49,19.49,0,0,0-1,6.53,19.35,19.35,0,0,0,1,6.5,10.35,10.35,0,0,0,3.15,4.64A8.11,8.11,0,0,0,258.71,55.53Z" transform="translate(-2.1 -7.29)"/><path class="cls-1" d="M281.7,62.18V22.91h8.84v6.67H291a10.46,10.46,0,0,1,4.07-5.28,11.86,11.86,0,0,1,6.77-1.9,11.41,11.41,0,0,1,6.74,1.93,10.28,10.28,0,0,1,3.87,5.25h.41a10.83,10.83,0,0,1,4.41-5.23,13.59,13.59,0,0,1,7.38-2,12,12,0,0,1,8.85,3.42q3.42,3.43,3.42,10V62.18h-9.28V37.25c0-2.43-.65-4.22-1.94-5.35a7,7,0,0,0-4.76-1.7,6.69,6.69,0,0,0-5.23,2.08,7.78,7.78,0,0,0-1.88,5.41V62.18h-9.07V36.87a6.26,6.26,0,0,0-6.6-6.67,6.71,6.71,0,0,0-3.63,1A7.29,7.29,0,0,0,291.92,34a8.93,8.93,0,0,0-1,4.26V62.18Z" transform="translate(-2.1 -7.29)"/><path class="cls-1" d="M354,63a16.08,16.08,0,0,1-6.71-1.34,10.75,10.75,0,0,1-4.7-4,11.54,11.54,0,0,1-1.73-6.5,11,11,0,0,1,1.23-5.49,9.48,9.48,0,0,1,3.35-3.48,17,17,0,0,1,4.79-2,39.3,39.3,0,0,1,5.54-1c2.3-.24,4.16-.45,5.6-.65a8.17,8.17,0,0,0,3.13-.92,2.17,2.17,0,0,0,1-2v-.15a5.77,5.77,0,0,0-1.71-4.47,7,7,0,0,0-4.94-1.59A8.79,8.79,0,0,0,353.48,31a7.34,7.34,0,0,0-2.67,3.51l-8.64-1.23a13.84,13.84,0,0,1,3.37-6,14.91,14.91,0,0,1,5.76-3.63,22.16,22.16,0,0,1,7.51-1.21,24.57,24.57,0,0,1,5.65.66,16,16,0,0,1,5.14,2.19,11.27,11.27,0,0,1,3.75,4.13,13.59,13.59,0,0,1,1.42,6.52V62.18h-8.9V56.79h-.31a11.15,11.15,0,0,1-2.36,3.05,11.37,11.37,0,0,1-3.81,2.28A15.3,15.3,0,0,1,354,63Zm2.41-6.8a10,10,0,0,0,4.83-1.11,8.26,8.26,0,0,0,3.16-3,7.66,7.66,0,0,0,1.11-4V43.47a4.25,4.25,0,0,1-1.47.66c-.69.2-1.46.38-2.32.54s-1.69.29-2.53.41l-2.17.3a16.64,16.64,0,0,0-3.71.92,6.23,6.23,0,0,0-2.58,1.78,4.95,4.95,0,0,0,.92,6.79A8.11,8.11,0,0,0,356.44,56.17Z" transform="translate(-2.1 -7.29)"/><path class="cls-1" d="M389.76,39.17v23H380.5V22.91h8.85v6.67h.46a11.16,11.16,0,0,1,4.33-5.24,13.27,13.27,0,0,1,7.38-1.94,14,14,0,0,1,7.09,1.74,11.83,11.83,0,0,1,4.71,5,17.5,17.5,0,0,1,1.65,8v25h-9.26V38.61a8.8,8.8,0,0,0-2-6.16,7.22,7.22,0,0,0-5.62-2.23,8.67,8.67,0,0,0-4.3,1.06,7.36,7.36,0,0,0-2.94,3.06A10.14,10.14,0,0,0,389.76,39.17Z" transform="translate(-2.1 -7.29)"/><path class="cls-1" d="M420.8,62.18V9.82h9.26V62.18Zm8.44-12.32,0-11.18h1.48l14.12-15.77h10.81L438.26,42.24h-1.92Zm16.21,12.32L432.66,44.31l6.24-6.52,17.62,24.39Z" transform="translate(-2.1 -7.29)"/><path class="cls-1" d="M462.81,17.33A5.33,5.33,0,0,1,459,15.85a4.75,4.75,0,0,1,0-7.09,5.61,5.61,0,0,1,7.58,0,4.8,4.8,0,0,1,0,7.1A5.37,5.37,0,0,1,462.81,17.33Zm-4.65,44.85V22.91h9.26V62.18Z" transform="translate(-2.1 -7.29)"/><path class="cls-1" d="M481.43,62.18l-11.1-39.27h9.44l6.9,27.61H487l7.06-27.61h9.33l7.06,27.46h.38l6.8-27.46h9.46L516,62.18h-9.64L499,35.64h-.54L491.1,62.18Z" transform="translate(-2.1 -7.29)"/></g></g></svg>