<svg xmlns="http://www.w3.org/2000/svg" viewBox="0 0 750 500"><defs><style>.cls-1{fill:#f5f7f9;}.cls-2{fill:#231f20;}</style></defs><g id="Layer_2" data-name="Layer 2"><g id="Layer_1-2" data-name="Layer 1"><rect class="cls-1" width="750" height="500"/><path class="cls-2" d="M138.19,217.22h9.41V254a17.19,17.19,0,0,1-2.14,8.71,14.31,14.31,0,0,1-5.92,5.59,19,19,0,0,1-8.84,2,20,20,0,0,1-8.27-1.65,13.51,13.51,0,0,1-5.82-4.89,14.37,14.37,0,0,1-2.14-8.08h9.43a7.29,7.29,0,0,0,.93,3.65,6.08,6.08,0,0,0,2.52,2.35,8,8,0,0,0,3.71.82,7.32,7.32,0,0,0,3.86-1,6.1,6.1,0,0,0,2.42-2.85,11.77,11.77,0,0,0,.85-4.65Z"/><path class="cls-2" d="M165.2,270.38a16.21,16.21,0,0,1-6.71-1.34,10.79,10.79,0,0,1-4.71-4,11.61,11.61,0,0,1-1.72-6.49,11.17,11.17,0,0,1,1.22-5.5,9.56,9.56,0,0,1,3.35-3.48,17.19,17.19,0,0,1,4.8-2,40.64,40.64,0,0,1,5.53-1q3.45-.35,5.6-.65a7.94,7.94,0,0,0,3.13-.92,2.15,2.15,0,0,0,1-2v-.16a5.8,5.8,0,0,0-1.71-4.47,7,7,0,0,0-4.94-1.59,8.77,8.77,0,0,0-5.38,1.49,7.32,7.32,0,0,0-2.67,3.5l-8.65-1.23a14,14,0,0,1,3.38-6,14.94,14.94,0,0,1,5.75-3.63A22.26,22.26,0,0,1,170,229.8a24.17,24.17,0,0,1,5.65.67,16.11,16.11,0,0,1,5.14,2.18,11.35,11.35,0,0,1,3.75,4.13,13.59,13.59,0,0,1,1.41,6.52v26.28H177v-5.39h-.31a11.34,11.34,0,0,1-2.36,3.06,11.52,11.52,0,0,1-3.81,2.27A15.33,15.33,0,0,1,165.2,270.38Zm2.4-6.8a9.85,9.85,0,0,0,4.83-1.12,8,8,0,0,0,3.16-2.95,7.62,7.62,0,0,0,1.11-4v-4.63a4.25,4.25,0,0,1-1.47.66,19.76,19.76,0,0,1-2.31.54c-.85.15-1.7.29-2.53.41l-2.17.31a15.5,15.5,0,0,0-3.71.92,6.22,6.22,0,0,0-2.58,1.77,4.95,4.95,0,0,0,.92,6.79A8.1,8.1,0,0,0,167.6,263.58Z"/><path class="cls-2" d="M191.67,269.58V230.31h9v6.55h.41a9.91,9.91,0,0,1,3.69-5.26,10.18,10.18,0,0,1,6-1.85c.51,0,1.09,0,1.73.06a12.64,12.64,0,0,1,1.59.2v8.51a9.8,9.8,0,0,0-1.85-.37,18.9,18.9,0,0,0-2.44-.17,9.43,9.43,0,0,0-4.54,1.09,8.15,8.15,0,0,0-3.16,3,8.52,8.52,0,0,0-1.15,4.43v23.08Z"/><path class="cls-2" d="M232.12,270.35a19,19,0,0,1-10-2.53,17.13,17.13,0,0,1-6.53-7.08,25.6,25.6,0,0,1,0-21.3,17.09,17.09,0,0,1,6.53-7.11,20.91,20.91,0,0,1,19.94,0,17.09,17.09,0,0,1,6.53,7.11,25.6,25.6,0,0,1,0,21.3,17.13,17.13,0,0,1-6.53,7.08A19,19,0,0,1,232.12,270.35Zm0-7.41a8,8,0,0,0,5.22-1.73,10.4,10.4,0,0,0,3.13-4.64,19.29,19.29,0,0,0,1-6.49,19.55,19.55,0,0,0-1-6.54,10.46,10.46,0,0,0-3.13-4.66,7.91,7.91,0,0,0-5.22-1.74,8,8,0,0,0-5.3,1.74,10.33,10.33,0,0,0-3.15,4.66,19.55,19.55,0,0,0-1,6.54,19.29,19.29,0,0,0,1,6.49,10.27,10.27,0,0,0,3.15,4.64A8.08,8.08,0,0,0,232.17,262.94Z"/><path class="cls-2" d="M269.74,270.28a14.92,14.92,0,0,1-8.29-2.38,16.21,16.21,0,0,1-5.78-6.91,25.8,25.8,0,0,1-2.12-11,25.51,25.51,0,0,1,2.16-11.06,15.89,15.89,0,0,1,5.84-6.82,15.07,15.07,0,0,1,8.21-2.32,12.31,12.31,0,0,1,5.68,1.16,10.93,10.93,0,0,1,3.52,2.79,17.35,17.35,0,0,1,2,3.06h.38V217.22h9.28v52.36h-9.1V263.4H281a15.69,15.69,0,0,1-2.08,3,11.25,11.25,0,0,1-3.58,2.72A12.3,12.3,0,0,1,269.74,270.28Zm2.58-7.6a7.93,7.93,0,0,0,5-1.6,9.74,9.74,0,0,0,3.14-4.46,21.17,21.17,0,0,0,0-13.29,9.58,9.58,0,0,0-3.12-4.38,9,9,0,0,0-10.22.06,9.73,9.73,0,0,0-3.12,4.44,20.83,20.83,0,0,0,0,13.06,10,10,0,0,0,3.14,4.52A8,8,0,0,0,272.32,262.68Z"/><path class="cls-2" d="M311.62,269.58V217.22h19.64a22.12,22.12,0,0,1,10.14,2.1,14.35,14.35,0,0,1,6.21,5.87,17.64,17.64,0,0,1,2.11,8.78,17.16,17.16,0,0,1-2.13,8.73,14.23,14.23,0,0,1-6.28,5.7,23.18,23.18,0,0,1-10.18,2h-14v-7.88h12.71a14.42,14.42,0,0,0,5.77-1,6.87,6.87,0,0,0,3.34-2.89,9.27,9.27,0,0,0,1.09-4.69,9.72,9.72,0,0,0-1.1-4.77,7.12,7.12,0,0,0-3.35-3,14,14,0,0,0-5.81-1h-8.69v44.43Zm27.06-23.72,13,23.72H341.05l-12.73-23.72Z"/><path class="cls-2" d="M371,270.35a19,19,0,0,1-10-2.53,17.13,17.13,0,0,1-6.53-7.08,25.71,25.71,0,0,1,0-21.3,17.09,17.09,0,0,1,6.53-7.11,20.93,20.93,0,0,1,19.95,0,17.09,17.09,0,0,1,6.53,7.11,25.71,25.71,0,0,1,0,21.3,17.13,17.13,0,0,1-6.53,7.08A19,19,0,0,1,371,270.35Zm.06-7.41a7.93,7.93,0,0,0,5.21-1.73,10.32,10.32,0,0,0,3.13-4.64,19.29,19.29,0,0,0,1-6.49,19.55,19.55,0,0,0-1-6.54,10.38,10.38,0,0,0-3.13-4.66,7.88,7.88,0,0,0-5.21-1.74,8.08,8.08,0,0,0-5.31,1.74,10.32,10.32,0,0,0-3.14,4.66,19.55,19.55,0,0,0-1,6.54,19.29,19.29,0,0,0,1,6.49,10.25,10.25,0,0,0,3.14,4.64A8.13,8.13,0,0,0,371.08,262.94Z"/><path class="cls-2" d="M394.07,269.58V230.31h8.84V237h.46a10.52,10.52,0,0,1,4.07-5.28,11.86,11.86,0,0,1,6.77-1.91,11.41,11.41,0,0,1,6.74,1.93,10.27,10.27,0,0,1,3.87,5.26h.41a10.74,10.74,0,0,1,4.41-5.23,13.51,13.51,0,0,1,7.38-2,12,12,0,0,1,8.85,3.43q3.42,3.42,3.42,10v26.36H440V244.66q0-3.66-1.94-5.36a7,7,0,0,0-4.76-1.7,6.69,6.69,0,0,0-5.23,2.08,7.8,7.8,0,0,0-1.88,5.41v24.49h-9.07V244.27a6.27,6.27,0,0,0-6.6-6.67,6.8,6.8,0,0,0-3.63,1,7.25,7.25,0,0,0-2.61,2.84,8.89,8.89,0,0,0-1,4.25v23.88Z"/><path class="cls-2" d="M466.4,270.38a16.24,16.24,0,0,1-6.71-1.34,10.77,10.77,0,0,1-4.7-4,11.61,11.61,0,0,1-1.73-6.49,11.05,11.05,0,0,1,1.23-5.5,9.48,9.48,0,0,1,3.35-3.48,17,17,0,0,1,4.79-2,40.78,40.78,0,0,1,5.54-1c2.3-.23,4.16-.45,5.6-.65a8,8,0,0,0,3.13-.92,2.16,2.16,0,0,0,1-2v-.16a5.8,5.8,0,0,0-1.71-4.47,7,7,0,0,0-4.93-1.59,8.8,8.8,0,0,0-5.39,1.49,7.32,7.32,0,0,0-2.67,3.5l-8.64-1.23a14,14,0,0,1,3.37-6,14.91,14.91,0,0,1,5.76-3.63,22.15,22.15,0,0,1,7.51-1.22,24,24,0,0,1,5.65.67,16,16,0,0,1,5.14,2.18,11.35,11.35,0,0,1,3.75,4.13,13.47,13.47,0,0,1,1.42,6.52v26.28h-8.9v-5.39h-.31a11.34,11.34,0,0,1-2.36,3.06,11.52,11.52,0,0,1-3.81,2.27A15.3,15.3,0,0,1,466.4,270.38Zm2.41-6.8a9.9,9.9,0,0,0,4.83-1.12,8.19,8.19,0,0,0,3.16-2.95,7.62,7.62,0,0,0,1.11-4v-4.63a4.25,4.25,0,0,1-1.47.66,19.48,19.48,0,0,1-2.32.54c-.85.15-1.69.29-2.53.41l-2.17.31a15.62,15.62,0,0,0-3.71.92,6.22,6.22,0,0,0-2.58,1.77,4.95,4.95,0,0,0,.92,6.79A8.11,8.11,0,0,0,468.81,263.58Z"/><path class="cls-2" d="M502.13,246.57v23h-9.26V230.31h8.85V237h.46a11.24,11.24,0,0,1,4.33-5.25,13.29,13.29,0,0,1,7.38-1.94,14,14,0,0,1,7.09,1.74,11.85,11.85,0,0,1,4.71,5,17.46,17.46,0,0,1,1.65,8v25h-9.26V246a8.82,8.82,0,0,0-2-6.16,7.25,7.25,0,0,0-5.61-2.23,8.58,8.58,0,0,0-4.31,1.07,7.27,7.27,0,0,0-2.94,3.05A10.14,10.14,0,0,0,502.13,246.57Z"/><path class="cls-2" d="M533.17,269.58V217.22h9.26v52.36Zm8.44-12.32,0-11.17h1.49l14.11-15.78H568l-17.36,19.33h-1.91Zm16.21,12.32L545,251.71l6.24-6.52,17.62,24.39Z"/><path class="cls-2" d="M575.18,224.74a5.39,5.39,0,0,1-3.78-1.48,4.71,4.71,0,0,1-1.59-3.56,4.65,4.65,0,0,1,1.59-3.54,5.38,5.38,0,0,1,3.78-1.47,5.32,5.32,0,0,1,3.8,1.48,4.72,4.72,0,0,1,1.57,3.56,4.67,4.67,0,0,1-1.57,3.54A5.36,5.36,0,0,1,575.18,224.74Zm-4.65,44.84V230.31h9.26v39.27Z"/><path class="cls-2" d="M593.8,269.58l-11.09-39.27h9.43l6.9,27.62h.36l7.06-27.62h9.33l7.06,27.46h.38l6.8-27.46h9.46l-11.12,39.27h-9.64l-7.36-26.53h-.54l-7.36,26.53Z"/></g></g></svg>