<svg xmlns="http://www.w3.org/2000/svg" viewBox="0 0 400 400"><defs><style>.cls-1{fill:#f5f7f9;}.cls-2{fill:#231f20;}</style></defs><g id="Layer_2" data-name="Layer 2"><g id="Layer_1-2" data-name="Layer 1"><rect class="cls-1" width="400" height="400"/><path class="cls-2" d="M174.64,158.46h14.73v57.63A27,27,0,0,1,186,229.72a22.32,22.32,0,0,1-9.27,8.76,29.8,29.8,0,0,1-13.83,3.06A31.24,31.24,0,0,1,150,239a21,21,0,0,1-9.11-7.66,22.47,22.47,0,0,1-3.36-12.65h14.77a11.19,11.19,0,0,0,1.46,5.72,9.54,9.54,0,0,0,3.94,3.69,12.71,12.71,0,0,0,5.81,1.28,11.49,11.49,0,0,0,6-1.5,9.52,9.52,0,0,0,3.78-4.47,18.52,18.52,0,0,0,1.34-7.28Z"/><path class="cls-2" d="M199.86,240.42v-82H230.6q9.45,0,15.87,3.28a22.7,22.7,0,0,1,9.73,9.18,27.73,27.73,0,0,1,3.3,13.75,26.94,26.94,0,0,1-3.34,13.67,22.21,22.21,0,0,1-9.83,8.93q-6.48,3.14-15.93,3.14H208.51V198.08H228.4a22.64,22.64,0,0,0,9-1.54,10.79,10.79,0,0,0,5.23-4.53,14.62,14.62,0,0,0,1.7-7.34,15.1,15.1,0,0,0-1.72-7.46,11.17,11.17,0,0,0-5.24-4.73,21.89,21.89,0,0,0-9.09-1.62H214.71v69.56Zm42.35-37.14,20.29,37.14H245.93L226,203.28Z"/><path class="cls-2" d="M250,110a40,40,0,0,1,40,40V250a40,40,0,0,1-40,40H150a40,40,0,0,1-40-40V150a40,40,0,0,1,40-40H250m0-10H150a50,50,0,0,0-50,50V250a50,50,0,0,0,50,50H250a50,50,0,0,0,50-50V150a50,50,0,0,0-50-50Z"/></g></g></svg>