<svg xmlns="http://www.w3.org/2000/svg" viewBox="0 0 750 500"><defs><style>.cls-1{fill:#171a1c;}.cls-2{fill:#f5f7f9;}</style></defs><g id="Layer_2" data-name="Layer 2"><g id="Layer_1-2" data-name="Layer 1"><rect class="cls-1" width="750" height="500"/><path class="cls-2" d="M191,277.48V217.59h22.46a25.45,25.45,0,0,1,11.6,2.39,16.44,16.44,0,0,1,7.1,6.72,20.19,20.19,0,0,1,2.42,10,19.72,19.72,0,0,1-2.44,10,16.23,16.23,0,0,1-7.18,6.52,26.57,26.57,0,0,1-11.64,2.29h-16v-9h14.53a16.6,16.6,0,0,0,6.61-1.13,7.84,7.84,0,0,0,3.82-3.3,10.69,10.69,0,0,0,1.24-5.37,11.06,11.06,0,0,0-1.26-5.45,8,8,0,0,0-3.83-3.45,15.89,15.89,0,0,0-6.63-1.19h-9.95v50.83ZM222,250.34l14.83,27.14H224.67l-14.56-27.14Z"/><path class="cls-2" d="M259,278.35a21.73,21.73,0,0,1-11.4-2.89,19.51,19.51,0,0,1-7.47-8.1,29.32,29.32,0,0,1,0-24.36,19.47,19.47,0,0,1,7.47-8.13,23.88,23.88,0,0,1,22.81,0,19.6,19.6,0,0,1,7.47,8.13,29.32,29.32,0,0,1,0,24.36,19.64,19.64,0,0,1-7.47,8.1A21.77,21.77,0,0,1,259,278.35Zm.06-8.48a9.06,9.06,0,0,0,6-2,11.92,11.92,0,0,0,3.58-5.31,24.11,24.11,0,0,0,0-14.9,11.94,11.94,0,0,0-3.58-5.33,9,9,0,0,0-6-2,9.2,9.2,0,0,0-6.07,2,11.71,11.71,0,0,0-3.59,5.33,23.92,23.92,0,0,0,0,14.9,11.7,11.7,0,0,0,3.59,5.31A9.25,9.25,0,0,0,259,269.87Z"/><path class="cls-2" d="M285.31,277.48V232.56h10.11v7.63H296a12,12,0,0,1,4.65-6,13.59,13.59,0,0,1,7.75-2.18,13.06,13.06,0,0,1,7.7,2.21,11.74,11.74,0,0,1,4.44,6H321a12.39,12.39,0,0,1,5.05-6,15.52,15.52,0,0,1,8.44-2.24,13.69,13.69,0,0,1,10.11,3.92q3.93,3.93,3.92,11.44v30.15H337.86V249c0-2.78-.75-4.83-2.23-6.12a8,8,0,0,0-5.44-2,7.66,7.66,0,0,0-6,2.39,8.89,8.89,0,0,0-2.14,6.18v28H311.68v-29a7.17,7.17,0,0,0-7.54-7.64,7.73,7.73,0,0,0-4.15,1.16,8.29,8.29,0,0,0-3,3.24,10.26,10.26,0,0,0-1.11,4.87v27.32Z"/><path class="cls-2" d="M368,278.38a18.54,18.54,0,0,1-7.68-1.53A12.41,12.41,0,0,1,355,272.3a13.31,13.31,0,0,1-2-7.43,12.69,12.69,0,0,1,1.4-6.28,10.91,10.91,0,0,1,3.83-4,19.58,19.58,0,0,1,5.49-2.27,45.42,45.42,0,0,1,6.33-1.12c2.63-.28,4.77-.53,6.4-.75a9.26,9.26,0,0,0,3.59-1.05,2.47,2.47,0,0,0,1.12-2.24V247a6.61,6.61,0,0,0-2-5.12,8,8,0,0,0-5.64-1.82,10.08,10.08,0,0,0-6.16,1.7,8.35,8.35,0,0,0-3.05,4l-9.89-1.41a15.89,15.89,0,0,1,3.86-6.85,17.06,17.06,0,0,1,6.58-4.16,25.56,25.56,0,0,1,8.6-1.39,28.36,28.36,0,0,1,6.46.76,18.36,18.36,0,0,1,5.88,2.5,12.89,12.89,0,0,1,4.28,4.73,15.35,15.35,0,0,1,1.63,7.45v30.07H381.58v-6.17h-.35a12.83,12.83,0,0,1-7.06,6.09A17.33,17.33,0,0,1,368,278.38Zm2.75-7.78a11.41,11.41,0,0,0,5.53-1.27,9.28,9.28,0,0,0,3.61-3.38,8.68,8.68,0,0,0,1.27-4.59v-5.29a4.92,4.92,0,0,1-1.68.76,24.35,24.35,0,0,1-2.65.61c-1,.18-1.94.34-2.89.47l-2.49.35a18.65,18.65,0,0,0-4.24,1.06,7,7,0,0,0-2.95,2,5.67,5.67,0,0,0,1.05,7.76A9.24,9.24,0,0,0,370.79,270.6Z"/><path class="cls-2" d="M408.9,251.16v26.32H398.31V232.56h10.12v7.63H409a12.75,12.75,0,0,1,5-6,15,15,0,0,1,8.43-2.23,16.1,16.1,0,0,1,8.12,2,13.58,13.58,0,0,1,5.38,5.76,19.91,19.91,0,0,1,1.88,9.16v28.6H427.15v-27a10,10,0,0,0-2.33-7,8.25,8.25,0,0,0-6.42-2.55,9.81,9.81,0,0,0-4.92,1.22,8.47,8.47,0,0,0-3.37,3.49A11.62,11.62,0,0,0,408.9,251.16Z"/><path class="cls-2" d="M444.41,277.48V217.59H455v59.89Zm9.65-14.1,0-12.78h1.69l16.15-18h12.37l-19.86,22.11h-2.19Zm18.54,14.1L458,257l7.13-7.46,20.15,27.9Z"/><path class="cls-2" d="M492.46,226.18a6.12,6.12,0,0,1-4.33-1.69,5.37,5.37,0,0,1-1.81-4.07,5.32,5.32,0,0,1,1.81-4,6.4,6.4,0,0,1,8.67,0,5.47,5.47,0,0,1,0,8.11A6.12,6.12,0,0,1,492.46,226.18Zm-5.32,51.3V232.56h10.58v44.92Z"/><path class="cls-2" d="M513.75,277.48l-12.69-44.92h10.79l7.9,31.58h.41l8.07-31.58H538.9L547,264h.43l7.78-31.41H566l-12.72,44.92h-11l-8.42-30.36h-.62l-8.42,30.36Z"/></g></g></svg>